<svg width="11" height="12" viewBox="0 0 11 12" fill="none" xmlns="http://www.w3.org/2000/svg">
  <path d="M10.9473 0.0520289C10.8935 -0.00196029 10.811 -0.0153971 10.7426 0.0186185L0.098306 5.34079C0.0106644 5.38461 -0.0250459 5.49101 0.0186538 5.57878C0.0486747 5.63906 0.11029 5.67707 0.177595 5.67707H5.32242V10.8218C5.32121 10.9197 5.39978 11.0001 5.49783 11.0012C5.56646 11.0019 5.62953 10.9629 5.65943 10.9011L10.9816 0.256728C11.0155 0.188212 11.0017 0.105776 10.9473 0.0520289ZM5.67723 10.0703V5.49961C5.67723 5.40168 5.59782 5.32227 5.49976 5.32227H0.929085L10.4254 0.574126L5.67723 10.0703Z" fill="#F1D261"/>
</svg>
