<svg width="15" height="12" viewBox="0 0 15 12" fill="none" xmlns="http://www.w3.org/2000/svg">
  <path d="M13.9299 3.53723C13.8692 3.08125 13.8607 2.29588 14.2842 2.03217C14.2918 2.02734 14.2974 2.02035 14.3041 2.01435C14.6503 1.9036 14.8899 1.74818 14.7018 1.53904L9.59402 0L1.32329 1.14989C1.32329 1.14989 0.37619 1.28526 0.460796 2.7567C0.506726 3.55755 0.757904 3.95086 0.977568 4.14443L0.29888 4.34896C0.110507 4.5581 0.350091 4.71357 0.696397 4.82415C0.702977 4.83032 0.708528 4.83726 0.716228 4.8421C1.13948 5.10603 1.13134 5.89131 1.07046 6.34738C-0.45009 6.77914 0.0957343 6.91984 0.0957343 6.91984L0.429281 7.00055C0.194666 7.21256 -0.0383382 7.6146 0.00530809 8.37709C0.0899595 9.84826 0.867893 9.94979 0.867893 9.94979L6.28021 11.709L14.4495 9.73026C14.4495 9.73026 14.9955 9.58934 13.4745 9.15753C13.4134 8.70217 13.4049 7.91699 13.8291 7.65238C13.8369 7.64768 13.8426 7.64056 13.8489 7.63465C14.1952 7.5239 14.4346 7.36861 14.2464 7.15947L13.8914 7.05226C14.1282 6.90945 14.4839 6.53624 14.5396 5.5668C14.5781 4.89998 14.4041 4.50944 14.2028 4.27953L14.9046 4.10969C14.9046 4.10996 15.4506 3.96904 13.9299 3.53723ZM7.09682 3.51838L8.47058 3.23605L13.1131 2.28201L13.8048 2.13974C13.5838 2.54424 13.593 3.09781 13.6296 3.45361C13.6376 3.5341 13.6469 3.6076 13.6558 3.66347L12.8987 3.85171L7.03908 5.3094L7.09682 3.51838ZM1.19571 4.95012L1.88729 5.09238L6.34579 6.00891L6.7353 6.08868L7.90336 6.32876L7.96097 8.11982L1.9385 6.62148L1.34478 6.47393C1.35351 6.41797 1.36273 6.34456 1.3711 6.26385C1.40745 5.90832 1.4169 5.35462 1.19571 4.95012ZM0.927028 2.68588C0.918657 2.2945 0.988402 2.01144 1.12937 1.86757C1.21908 1.77571 1.32495 1.7566 1.39756 1.7566C1.43592 1.7566 1.46354 1.76192 1.46542 1.76192L5.02906 2.92372L6.80701 3.50339L6.74868 5.30694L1.76083 3.90856L1.49761 3.83483C1.48794 3.8321 1.47482 3.83022 1.46471 3.82977C1.44416 3.82829 0.951022 3.7829 0.927028 2.68588ZM6.2931 10.9276L1.04216 9.45544C1.03245 9.45262 1.01947 9.45074 1.00935 9.45025C0.988446 9.44886 0.495087 9.40351 0.471227 8.30676C0.462721 7.91489 0.532824 7.6321 0.673522 7.48809C0.763455 7.39623 0.86937 7.37712 0.941846 7.37712C0.980299 7.37712 1.00783 7.38227 1.00984 7.38227C1.00984 7.38227 1.01007 7.38227 1.00984 7.38227L6.35108 9.124L6.2931 10.9276ZM13.1738 9.074C13.1821 9.15475 13.1913 9.22812 13.2002 9.28408L6.58336 10.9301L6.6412 9.13908L8.05583 8.84824L8.26475 8.89878L9.04779 8.64429L12.6573 7.90257L13.3492 7.76022C13.128 8.16468 13.1372 8.71847 13.1738 9.074ZM13.5383 6.63988C13.5262 6.64014 13.5142 6.64176 13.5028 6.64534L13.0038 6.78505L8.25204 8.11745L8.19393 6.31389L9.75293 5.8054L13.5279 4.57431C13.5284 4.57409 13.7264 4.53008 13.8718 4.67794C14.0126 4.82182 14.0824 5.10487 14.0742 5.49625C14.0496 6.59292 13.5562 6.63849 13.5383 6.63988Z" fill="#EE1C41"/>
</svg>
