<svg width="50" height="50" viewBox="0 0 50 50" fill="none" xmlns="http://www.w3.org/2000/svg">
  <g clip-path="url(#clip0)">
    <path d="M30.6557 20.3558L23.1432 27.4515L19.5378 23.7422C19.1381 23.3307 18.4799 23.3214 18.0688 23.7211C17.6573 24.1212 17.6479 24.7789 18.0476 25.1904L22.3719 29.6295C22.7736 30.0337 23.4228 30.0475 23.8413 29.6604L32.1043 21.8666C32.305 21.6774 32.4222 21.4161 32.43 21.1405C32.4377 20.8649 32.3355 20.5975 32.1459 20.3973C31.7437 19.9793 31.0807 19.9609 30.6557 20.3558Z" fill="#F1D261"/>
    <path d="M25.0828 9.43555C16.497 9.43555 9.51562 16.4169 9.51562 25.0028C9.51562 33.589 16.497 40.5704 25.0828 40.5704C33.6691 40.5704 40.6504 33.589 40.6504 25.0028C40.6504 16.4169 33.6691 9.43555 25.0828 9.43555ZM25.0828 38.4864C17.6432 38.4864 11.5996 32.4322 11.5996 25.0028C11.5996 17.5733 17.6432 11.5195 25.0828 11.5195C32.5298 11.5195 38.5665 17.5562 38.5665 25.0028C38.5665 32.4493 32.5298 38.4864 25.0828 38.4864Z" fill="#F1D261"/>
    <path d="M46.5054 19.2717L46.8494 13.0926C46.8734 12.6778 46.6479 12.2883 46.2763 12.1027L40.7745 9.32064L37.9924 3.81884C37.8032 3.45048 37.4161 3.22621 37.0025 3.24575L30.8128 3.57951L25.655 0.171868C25.3074 -0.0572892 24.8568 -0.0572892 24.5088 0.171868L19.3509 3.57951L13.1722 3.23557C12.7571 3.21115 12.368 3.43664 12.1823 3.80867L9.3999 9.31047L3.89851 12.0925C3.52974 12.2814 3.30588 12.6684 3.32541 13.0824L3.66895 19.2615L0.261711 24.4194C0.0325545 24.767 0.0325545 25.2175 0.261711 25.5655L3.65877 30.7336L3.31483 36.9127C3.29082 37.3274 3.5159 37.717 3.88793 37.9026L9.38973 40.6846L12.1718 46.1864C12.3606 46.5552 12.7477 46.779 13.1617 46.7595L19.3408 46.4156L24.4986 49.8228C24.8442 50.0593 25.2992 50.0593 25.6448 49.8228L30.8027 46.4156L36.9818 46.7595C37.3965 46.7835 37.7857 46.558 37.9717 46.1864L40.7537 40.6846L46.2555 37.9026C46.6239 37.7133 46.8481 37.3266 46.8286 36.9127L46.4847 30.7336L49.8919 25.5757C50.1211 25.2281 50.1211 24.7771 49.8919 24.4295L46.5054 19.2717ZM44.5672 29.8792C44.4402 30.0657 44.3811 30.2899 44.4007 30.515L44.7234 36.3603L39.5241 38.9861C39.3258 39.0854 39.1651 39.2466 39.0658 39.4448L36.4396 44.6442L30.5943 44.3214C30.3704 44.3133 30.1494 44.3711 29.9585 44.4879L25.0819 47.7079L20.2057 44.4879C20.0364 44.3735 19.8369 44.3116 19.6326 44.3108H19.5805L13.7348 44.634L11.109 39.4342C11.0097 39.236 10.8489 39.0752 10.6503 38.9759L5.44033 36.3603L5.76351 30.515C5.77165 30.2911 5.71345 30.0701 5.59663 29.8792L2.37704 25.0026L5.59663 20.126C5.72403 19.94 5.78305 19.7153 5.76351 19.4907L5.44033 13.6449L10.6401 11.0192C10.8383 10.9199 10.9991 10.7591 11.0984 10.5609L13.7242 5.36107L19.5699 5.68425C19.7934 5.69199 20.0144 5.63419 20.2057 5.51737L25.0819 2.29778L29.9585 5.51737C30.1449 5.64477 30.3696 5.70379 30.5943 5.68425L36.4396 5.36107L39.0658 10.5609C39.1651 10.7591 39.3258 10.9199 39.5241 11.0192L44.7234 13.6449L44.4007 19.4907C44.3925 19.7141 44.4507 19.9351 44.5672 20.126L47.7872 25.0026L44.5672 29.8792Z" fill="#F1D261"/>
  </g>
  <defs>
    <clipPath id="clip0">
      <rect width="50" height="50" fill="white"/>
    </clipPath>
  </defs>
</svg>
