<svg width="15" height="15" viewBox="0 0 15 15" fill="none" xmlns="http://www.w3.org/2000/svg">
  <g clip-path="url(#clip0)">
    <path d="M7.69618 8.1868C7.66843 8.18079 7.63995 8.17971 7.61184 8.18391C7.33012 8.15112 7.11759 7.91276 7.11711 7.62923C7.11711 7.49336 7.00695 7.38319 6.87107 7.38319C6.73519 7.38319 6.62503 7.49336 6.62503 7.62923C6.62575 8.1027 6.94243 8.51742 7.39896 8.64272V8.88877C7.39896 9.02464 7.50912 9.13481 7.645 9.13481C7.78088 9.13481 7.89104 9.02464 7.89104 8.88877V8.65762C8.41797 8.54733 8.7761 8.05657 8.72072 7.52111C8.66521 6.98565 8.21409 6.57874 7.67575 6.57862C7.36724 6.57862 7.11711 6.32849 7.11711 6.01997C7.11711 5.71146 7.36724 5.46133 7.67575 5.46133C7.98427 5.46133 8.2344 5.71146 8.2344 6.01997C8.2344 6.15585 8.34456 6.26602 8.48044 6.26602C8.61632 6.26602 8.72648 6.15585 8.72648 6.01997C8.72576 5.52284 8.37748 5.09407 7.89104 4.99147V4.76753C7.89104 4.63165 7.78088 4.52148 7.645 4.52148C7.50912 4.52148 7.39896 4.63165 7.39896 4.76753V5.00648C6.89125 5.14512 6.56448 5.63805 6.6344 6.1597C6.70432 6.68134 7.14943 7.07071 7.67575 7.07059C7.98019 7.07059 8.22851 7.31435 8.23404 7.61866C8.23968 7.92297 8.00037 8.17574 7.69618 8.1868V8.1868Z" fill="white"/>
    <path d="M4.10742 6.84325C4.10742 8.81376 5.70478 10.4111 7.6753 10.4111C9.64581 10.4111 11.2432 8.81376 11.2432 6.84325C11.2432 4.87275 9.64581 3.27539 7.6753 3.27539C5.70575 3.27755 4.1097 4.87371 4.10742 6.84325ZM7.6753 3.76748C9.37406 3.76748 10.7511 5.1445 10.7511 6.84325C10.7511 8.542 9.37406 9.91903 7.6753 9.91903C5.97654 9.91903 4.59951 8.542 4.59951 6.84325C4.60143 5.14534 5.97738 3.7694 7.6753 3.76748Z" fill="white"/>
    <path d="M12.4562 11.0174L10.5288 11.9281C10.2627 11.4331 9.75225 11.1181 9.19049 11.1022L7.41124 11.0533C7.12951 11.0453 6.85307 10.9739 6.60259 10.8445L6.42154 10.7507C5.49455 10.2675 4.38964 10.2687 3.46361 10.7538L3.47491 10.3437C3.47863 10.2078 3.37159 10.0946 3.23571 10.0909L1.28466 10.0372C1.14879 10.0335 1.03574 10.1405 1.03201 10.2764L0.914157 14.5579C0.910433 14.6938 1.01748 14.8069 1.15335 14.8107L3.1044 14.8644H3.11113C3.24448 14.8644 3.35357 14.7583 3.35717 14.625L3.36282 14.4202L3.86968 14.1488C4.06863 14.0418 4.30122 14.0163 4.51855 14.0778L7.54531 14.9273C7.5506 14.9289 7.55588 14.9301 7.56129 14.9313C7.78006 14.9771 8.00304 15 8.2265 14.9999C8.69984 15.0001 9.16766 14.8981 9.59787 14.7006C9.60845 14.6958 9.61866 14.6902 9.62839 14.6838L14.0169 11.8452C14.1262 11.7744 14.1616 11.6308 14.0975 11.5174C13.7717 10.9393 13.0491 10.7191 12.4562 11.0174V11.0174ZM1.41285 14.3255L1.51713 10.5359L2.97621 10.576L2.87193 14.3658L1.41285 14.3255ZM9.37622 14.2611C8.84172 14.5024 8.24476 14.5689 7.67026 14.4516L4.65166 13.6042C4.31191 13.5082 3.94825 13.548 3.63745 13.7151L3.37843 13.8539L3.44775 11.3342C4.26854 10.7883 5.32119 10.7322 6.19532 11.1876L6.37637 11.2815C6.69281 11.4449 7.04181 11.535 7.39778 11.5453L9.17715 11.5942C9.67693 11.6086 10.1014 11.9645 10.2028 12.4541L7.5524 12.381C7.41652 12.3773 7.30347 12.4844 7.29963 12.6202C7.2959 12.7561 7.40307 12.8692 7.53882 12.8729L10.4637 12.9534H10.4706C10.6038 12.9533 10.7128 12.8472 10.7164 12.7141C10.7194 12.6072 10.7114 12.5002 10.6926 12.3949L12.6695 11.4608C12.6714 11.46 12.6733 11.459 12.6752 11.4581C12.9556 11.3162 13.2947 11.3637 13.5253 11.5771L9.37622 14.2611Z" fill="white"/>
    <path d="M7.92178 2.58345V0.246043C7.92178 0.110167 7.81161 0 7.67573 0C7.53985 0 7.42969 0.110167 7.42969 0.246043V2.58345C7.42969 2.71933 7.53985 2.8295 7.67573 2.8295C7.81161 2.8295 7.92178 2.71933 7.92178 2.58345Z" fill="white"/>
    <path d="M9.76748 2.58273V1.47554C9.76748 1.33966 9.65731 1.22949 9.52143 1.22949C9.38556 1.22949 9.27539 1.33966 9.27539 1.47554V2.58273C9.27539 2.71861 9.38556 2.82877 9.52143 2.82877C9.65731 2.82877 9.76748 2.71861 9.76748 2.58273Z" fill="white"/>
    <path d="M6.07607 2.58273V1.47554C6.07607 1.33966 5.96591 1.22949 5.83003 1.22949C5.69415 1.22949 5.58398 1.33966 5.58398 1.47554V2.58273C5.58398 2.71861 5.69415 2.82877 5.83003 2.82877C5.96591 2.82877 6.07607 2.71861 6.07607 2.58273Z" fill="white"/>
  </g>
  <defs>
    <clipPath id="clip0">
      <rect width="15" height="15" fill="white"/>
    </clipPath>
  </defs>
</svg>
