<svg width="15" height="15" viewBox="0 0 15 15" fill="none" xmlns="http://www.w3.org/2000/svg">
  <g clip-path="url(#clip0)">
    <path d="M12.3633 0C10.9093 0 9.72656 1.18274 9.72656 2.63672C9.72656 4.09069 10.9093 5.27344 12.3633 5.27344C13.8173 5.27344 15 4.09069 15 2.63672C15 1.18274 13.8173 0 12.3633 0Z" fill="#fff"/>
    <path d="M4.83398 9.72217H0.439453C0.196553 9.72217 0 9.91872 0 10.1616V14.5562C0 14.7991 0.196553 14.9956 0.439453 14.9956H4.83398C5.07688 14.9956 5.27344 14.7991 5.27344 14.5562V10.1616C5.27344 9.91872 5.07688 9.72217 4.83398 9.72217Z" fill="#fff"/>
    <path d="M5.92584 2.79785L4.68506 4.03863L10.8772 10.1709C11.3396 9.79556 11.877 9.51587 12.4715 9.36516L5.92584 2.79785Z" fill="#fff"/>
    <path d="M4.68315 1.55469L1.57617 4.6619L2.19759 5.28338L5.30471 2.17625L4.68315 1.55469Z" fill="#fff"/>
    <path d="M14.9629 14.3862L13.142 10.1382C11.5645 10.3076 10.3268 11.5822 10.2183 13.177L14.3861 14.963C14.7481 15.1189 15.1198 14.7513 14.9629 14.3862Z" fill="#fff"/>
    <path d="M4.06425 4.66016L2.81934 5.9051L9.41389 12.5216C9.55331 11.8735 9.85451 11.2917 10.2571 10.7931L4.06425 4.66016Z" fill="#fff"/>
    <path d="M3.75165 0.622019C2.92252 -0.207991 1.4737 -0.207991 0.644573 0.622019C-0.214207 1.47989 -0.214207 2.8712 0.644573 3.7291L0.955442 4.04003L4.0624 0.9328L3.75165 0.622019Z" fill="#fff"/>
  </g>
  <defs>
    <clipPath id="clip0">
      <rect width="15" height="15" fill="white"/>
    </clipPath>
  </defs>
</svg>
