<svg width="50" height="50" viewBox="0 0 50 50" fill="none" xmlns="http://www.w3.org/2000/svg">
  <path d="M44.7273 2.42969H12.3956C9.58967 2.42969 7.30681 4.6912 7.30681 7.46195L7.09845 35.9317H0.788761C0.341599 35.9317 0 36.3271 0 36.7743V40.6924C0 44.3602 2.93522 47.3599 6.47772 47.5243V47.5714H33.7044V47.5184C33.9068 47.5267 34.0294 47.5714 34.1686 47.5714H34.1879C37.9661 47.5493 41.0116 44.4697 40.9918 40.6916V15.79H49.2112C49.6583 15.79 49.9999 15.3852 49.9999 14.9384V7.74938C50.0051 4.8276 47.6491 2.45064 44.7273 2.42969V2.42969ZM6.83197 45.952H6.82644C3.94618 45.952 1.61943 43.5714 1.61943 40.6916V37.5512H27.3279V40.6781C27.3216 42.5008 28.0415 44.2507 29.3285 45.5412C29.4653 45.6788 29.6084 45.7495 29.7547 45.952H6.83197ZM39.3724 40.6908C39.3724 43.5714 37.0682 45.952 34.1868 45.952H34.1701C31.2745 45.931 28.9406 43.5742 28.9473 40.6785V36.7743C28.9497 36.3208 28.5911 35.9475 28.1376 35.9317H8.71788L8.92624 7.46749C8.92624 5.58434 10.4824 4.04912 12.3956 4.04912H40.9045C39.9817 5.06127 39.3724 6.34187 39.3724 7.77113V40.6908ZM48.3805 7.76362V14.1706H40.9918V7.76955C40.9918 5.74288 42.6777 4.04912 44.7036 4.04912H44.7261C46.7571 4.06928 48.39 5.72628 48.3805 7.75769V7.76362Z" fill="#F1D261"/>
  <path d="M19.0122 22.3596L23.1869 25.2138C23.4593 25.4016 23.8195 25.4016 24.0919 25.2138L28.2539 22.3604C29.6998 21.374 30.7677 19.3117 30.7677 17.563V11.7883C30.7764 11.483 30.608 11.1999 30.336 11.0612L23.9796 7.93459C23.7566 7.82389 23.4949 7.82389 23.2719 7.93459L16.9274 11.0525C16.6554 11.1912 16.4874 11.4743 16.4964 11.7796V17.563C16.4964 19.3117 17.5667 21.374 19.0122 22.3596ZM18.1159 12.2848L23.6321 9.56312L29.1483 12.2924V17.563C29.1483 18.7827 28.3488 20.3342 27.3402 21.0217L23.6226 23.5643L19.9196 21.0221C18.911 20.3338 18.1159 18.7827 18.1159 17.563V12.2848Z" fill="#F1D261"/>
  <path d="M22.2675 18.786C22.4185 18.9402 22.6249 19.0276 22.8408 19.0288H22.8428C23.0578 19.028 23.2638 18.9418 23.4152 18.7892L26.6363 15.5669C26.953 15.2506 26.953 14.7375 26.6367 14.4212C26.3208 14.1045 25.8076 14.1045 25.4913 14.4208L22.8455 17.0662L21.7879 15.9983C21.4728 15.6804 20.96 15.678 20.6421 15.9931C20.3243 16.3083 20.3223 16.8211 20.637 17.1389L22.2675 18.786Z" fill="#F1D261"/>
  <path d="M33.6999 27.5303H14.2667C13.8196 27.5303 13.457 27.8928 13.457 28.34C13.457 28.7872 13.8196 29.1497 14.2667 29.1497H33.6999C34.1471 29.1497 34.5097 28.7872 34.5097 28.34C34.5097 27.8928 34.1471 27.5303 33.6999 27.5303Z" fill="#F1D261"/>
  <path d="M33.6999 31.2754H14.2667C13.8196 31.2754 13.457 31.6379 13.457 32.0851C13.457 32.5323 13.8196 32.8948 14.2667 32.8948H33.6999C34.1471 32.8948 34.5097 32.5323 34.5097 32.0851C34.5097 31.6379 34.1471 31.2754 33.6999 31.2754Z" fill="#F1D261"/>
</svg>

