<svg width="15" height="15" viewBox="0 0 15 15" fill="none" xmlns="http://www.w3.org/2000/svg">
  <path d="M11.4558 7.9372V5.58671L14.9997 4.02012L7.50054 0L0.015625 4.01965L3.54563 5.58624V7.9372H11.4558ZM10.5769 7.05829H4.42454V5.44377L7.50071 3.90568L10.5769 5.44377V7.05829ZM7.50089 0.997441L12.9977 3.94415L11.1641 4.75471L7.50071 2.92301L3.83796 4.75438L2.01314 3.94456L7.50089 0.997441Z" fill="white"/>
  <path d="M13.6816 8.81592C13.4409 8.81592 11.0766 9.26 7.4707 9.25519C3.8151 9.25033 1.55153 8.81592 1.31836 8.81592C0.908467 8.81592 0.548145 9.08504 0.303838 9.57368C0.1079 9.96553 0 10.4768 0 11.0132C0 11.5496 0.1079 12.0608 0.303838 12.4527C0.548174 12.9413 0.908467 13.2104 1.31836 13.2104C1.47334 13.2104 3.32057 12.8809 6.18164 12.7937V14.995L7.5 13.6767L8.81836 14.995V12.7937C11.7772 12.8838 13.4725 13.2104 13.6816 13.2104C14.0915 13.2104 14.4519 12.9413 14.6962 12.4527C14.8921 12.0608 15 11.5496 15 11.0132C15 10.4768 14.8921 9.96553 14.6962 9.57368C14.4519 9.08504 14.0915 8.81592 13.6816 8.81592ZM1.08993 12.0596C0.955811 11.7914 0.878906 11.41 0.878906 11.0132C0.878906 10.6164 0.955811 10.235 1.08993 9.96676C1.18761 9.77144 1.27655 9.71026 1.30811 9.69761C1.40566 9.71144 1.50299 9.87922 1.54676 9.96676C1.68091 10.235 1.75781 10.6164 1.75781 11.0132C1.75781 11.41 1.68091 11.7914 1.54679 12.0596C1.5027 12.1478 1.40555 12.315 1.30808 12.3288C1.27646 12.316 1.18758 12.2548 1.08993 12.0596ZM2.44693 12.1831C2.57007 11.8388 2.63672 11.4339 2.63672 11.0132C2.63672 10.5927 2.57016 10.1881 2.44717 9.84397C3.6888 9.98706 4.93468 10.0769 6.18164 10.1142V11.9143C4.93078 11.9517 3.68033 12.0418 2.44693 12.1831ZM7.5 12.4337L7.06055 12.8732V10.1319C7.20703 10.1334 7.79297 10.1334 7.93945 10.1319V12.8732L7.5 12.4337ZM8.81836 10.1142C10.0653 10.0769 11.3112 9.98703 12.5528 9.84395C12.4298 10.1881 12.3633 10.5927 12.3633 11.0132C12.3633 11.4339 12.4299 11.8388 12.5531 12.1831C11.3197 12.0417 10.0692 11.9517 8.81836 11.9143V10.1142ZM13.9101 12.0596C13.8125 12.2548 13.7235 12.316 13.6919 12.3288C13.5945 12.315 13.4973 12.1478 13.4532 12.0596C13.3191 11.7914 13.2422 11.41 13.2422 11.0132C13.2422 10.6164 13.3191 10.235 13.4532 9.96676C13.497 9.8791 13.5943 9.71141 13.6919 9.69761C13.7234 9.71026 13.8124 9.77144 13.91 9.96676C14.0442 10.235 14.1211 10.6164 14.1211 11.0132C14.1211 11.41 14.0442 11.7914 13.9101 12.0596Z" fill="white"/>
</svg>
