<svg width="15" height="15" viewBox="0 0 15 15" fill="none" xmlns="http://www.w3.org/2000/svg">
  <path d="M8.32867 7.50003L14.8284 1.00029C15.0572 0.771452 15.0572 0.400437 14.8284 0.171628C14.5995 -0.0571802 14.2285 -0.0572095 13.9997 0.171628L7.49998 6.67137L1.00029 0.171628C0.77145 -0.0572095 0.400436 -0.0572095 0.171628 0.171628C-0.05718 0.400466 -0.0572093 0.771482 0.171628 1.00029L6.67133 7.5L0.171628 13.9997C-0.0572093 14.2286 -0.0572093 14.5996 0.171628 14.8284C0.286032 14.9428 0.436002 15 0.585972 15C0.735943 15 0.885884 14.9428 1.00032 14.8284L7.49998 8.32869L13.9997 14.8284C14.1141 14.9428 14.2641 15 14.414 15C14.564 15 14.7139 14.9428 14.8284 14.8284C15.0572 14.5996 15.0572 14.2286 14.8284 13.9997L8.32867 7.50003Z" fill="#AE2A31"/>
</svg>
