<svg width="15" height="15" viewBox="0 0 15 15" fill="none" xmlns="http://www.w3.org/2000/svg">
  <g clip-path="url(#clip0)">
    <path d="M14.3853 0.173342C13.7981 -0.165778 13.0445 0.0361998 12.7055 0.623471L11.0293 3.52672H7.41447C7.25266 3.52672 7.12149 3.65791 7.12149 3.81969C7.12149 3.98148 7.25266 4.11267 7.41447 4.11267H10.691L9.47462 6.21952H2.63684C2.47503 6.21952 2.34387 6.35072 2.34387 6.5125C2.34387 6.67431 2.47503 6.80547 2.63684 6.80547H9.13629L8.45969 7.97738H2.63684C2.47503 7.97738 2.34387 8.10857 2.34387 8.27036C2.34387 8.43214 2.47503 8.56333 2.63684 8.56333H8.33851L8.21227 9.73524H2.63684C2.47503 9.73524 2.34387 9.86643 2.34387 10.0282C2.34387 10.19 2.47503 10.3212 2.63684 10.3212H8.14913L8.13355 10.4659C8.12112 10.5812 8.1779 10.693 8.27833 10.751C8.32383 10.7773 8.37437 10.7902 8.42479 10.7902C8.4857 10.7902 8.54641 10.7713 8.59765 10.7338L10.4683 9.36726C10.5013 9.34317 10.5288 9.3125 10.5492 9.27717L12.8324 5.32272V11.0014C12.8324 11.6578 12.2983 12.1919 11.6418 12.1919H4.85207C4.74739 12.1919 4.65067 12.2478 4.59835 12.3384L3.5739 14.1128L2.54945 12.3384C2.49712 12.2478 2.40041 12.1919 2.29573 12.1919H1.77649C1.12002 12.1919 0.585952 11.6578 0.585952 11.0014V5.30321C0.585952 4.64677 1.12002 4.11267 1.77649 4.11267H4.77771C4.93952 4.11267 5.07069 3.98148 5.07069 3.81969C5.07069 3.65788 4.93952 3.52672 4.77771 3.52672H1.77649C0.796925 3.52672 0 4.32364 0 5.30321V11.0014C0 11.981 0.796925 12.7779 1.77649 12.7779H2.12657L3.32018 14.8453C3.37251 14.9359 3.46922 14.9918 3.5739 14.9918C3.67858 14.9918 3.77529 14.9359 3.82762 14.8453L5.02123 12.7779H11.6418C12.6214 12.7779 13.4183 11.981 13.4183 11.0014V5.30321C13.4183 5.05207 13.3651 4.80398 13.2632 4.57651L14.8355 1.85324C15.1745 1.266 14.9726 0.512403 14.3853 0.173342ZM14.0924 0.680777C14.3998 0.858291 14.5055 1.25281 14.328 1.56026L14.1606 1.85022L13.0455 1.20641L13.2129 0.916447C13.3904 0.609027 13.7849 0.50335 14.0924 0.680777ZM8.91609 8.67255L9.75945 9.15948L8.78712 9.8698L8.91609 8.67255ZM10.1883 8.73047L9.07318 8.08666L12.7525 1.71384L13.8676 2.35766L10.1883 8.73047Z" fill="white"/>
    <path d="M6.09541 4.11231C6.17246 4.11231 6.24805 4.08097 6.30283 4.02647C6.35732 3.97198 6.38867 3.89639 6.38867 3.81934C6.38867 3.74229 6.35732 3.6667 6.30283 3.61221C6.24805 3.55774 6.17275 3.52637 6.09541 3.52637C6.01836 3.52637 5.94277 3.55772 5.88828 3.61221C5.83379 3.6667 5.80273 3.74229 5.80273 3.81934C5.80273 3.89639 5.83376 3.97198 5.88828 4.02647C5.94307 4.08097 6.01836 4.11231 6.09541 4.11231Z" fill="white"/>
  </g>
  <defs>
    <clipPath id="clip0">
      <rect width="15" height="15" fill="white"/>
    </clipPath>
  </defs>
</svg>
