<svg width="15" height="16" viewBox="0 0 15 16" fill="none" xmlns="http://www.w3.org/2000/svg">
<path d="M7.58238 5.375H1.89594C1.77326 5.375 1.67383 5.47446 1.67383 5.59712C1.67383 5.7198 1.77326 5.81923 1.89594 5.81923H7.58241C7.70509 5.81923 7.80452 5.71977 7.80452 5.59712C7.80452 5.47446 7.70509 5.375 7.58238 5.375Z" fill="white"/>
<path d="M7.58238 6.93555H1.89594C1.77326 6.93555 1.67383 7.03501 1.67383 7.15766C1.67383 7.28032 1.77326 7.37978 1.89594 7.37978H7.58241C7.70509 7.37978 7.80452 7.28032 7.80452 7.15766C7.80452 7.03501 7.70509 6.93555 7.58238 6.93555Z" fill="white"/>
<path d="M7.58238 8.49805H1.89594C1.77326 8.49805 1.67383 8.59751 1.67383 8.72016C1.67383 8.84282 1.77326 8.94228 1.89594 8.94228H7.58241C7.70509 8.94228 7.80452 8.84282 7.80452 8.72016C7.80452 8.59751 7.70509 8.49805 7.58238 8.49805Z" fill="white"/>
<path d="M7.80452 10.2807C7.80452 10.158 7.70509 10.0586 7.58241 10.0586H1.89594C1.77326 10.0586 1.67383 10.1581 1.67383 10.2807C1.67383 10.4034 1.77326 10.5028 1.89594 10.5028H7.58241C7.70509 10.5028 7.80452 10.4034 7.80452 10.2807Z" fill="white"/>
<path d="M1.89594 12.3457C1.77326 12.3457 1.67383 12.4452 1.67383 12.5678C1.67383 12.6905 1.77326 12.7899 1.89594 12.7899H4.74645C4.86913 12.7899 4.96856 12.6905 4.96856 12.5678C4.96856 12.4452 4.86913 12.3457 4.74645 12.3457H1.89594Z" fill="white"/>
<path d="M10.1403 2.74997V2.02921C10.1403 1.75464 9.91691 1.53125 9.64231 1.53125H5.08191C4.80734 1.53125 4.58398 1.75464 4.58398 2.02921V2.74997C4.58398 3.02454 4.80734 3.2479 5.08191 3.2479H5.46702C5.58971 3.2479 5.68914 3.14843 5.68914 3.02578C5.68914 2.9031 5.58971 2.80367 5.46702 2.80367H5.08191C5.05232 2.80367 5.02824 2.77959 5.02824 2.75V2.02921C5.02824 1.99962 5.05232 1.97551 5.08191 1.97551H9.64231C9.67193 1.97551 9.69601 1.99959 9.69601 2.02921V2.74997C9.69601 2.77956 9.67193 2.80364 9.64231 2.80364H6.50548C6.38279 2.80364 6.28336 2.9031 6.28336 3.02575C6.28336 3.14843 6.38279 3.24787 6.50548 3.24787H9.64234C9.91691 3.24793 10.1403 3.02454 10.1403 2.74997Z" fill="white"/>
<path d="M11.8025 13.5448C11.6798 13.5448 11.5804 13.6443 11.5804 13.7669V14.066C11.5804 14.4271 11.2867 14.7208 10.9256 14.7208H1.09902C0.737995 14.7208 0.44423 14.4271 0.44423 14.066V3.38928C0.44423 3.34121 0.449858 3.29405 0.459899 3.24817H2.48239C2.90465 3.24817 3.24817 2.90465 3.24817 2.48239V0.459929C3.29405 0.449888 3.34118 0.44426 3.38925 0.44426H10.9256C11.2866 0.44426 11.5804 0.737995 11.5804 1.09905V4.0563C11.5804 4.17899 11.6798 4.27842 11.8025 4.27842C11.9252 4.27842 12.0246 4.17896 12.0246 4.0563V1.09902C12.0246 0.493043 11.5316 0 10.9256 0H3.38928C3.09572 0 2.8197 0.114331 2.61213 0.321903L0.321873 2.61216C0.114301 2.81973 0 3.09572 0 3.38931V14.0661C0 14.6721 0.493013 15.1651 1.09902 15.1651H10.9256C11.5316 15.1651 12.0246 14.672 12.0246 14.0661V13.7669C12.0246 13.6443 11.9252 13.5448 11.8025 13.5448ZM2.80394 0.758373V2.48239C2.80394 2.6597 2.6597 2.80394 2.48239 2.80394H0.758373L2.80394 0.758373Z" fill="white"/>
<path d="M14.8448 7.93841C15.0007 7.70954 15.0411 7.42724 14.9555 7.16386C14.8699 6.90049 14.6713 6.69582 14.4107 6.60234C14.2378 6.54032 14.1224 6.38156 14.1169 6.19792C14.1085 5.92113 13.9752 5.66901 13.7511 5.50622C13.5271 5.34346 13.2461 5.29462 12.9803 5.37216C12.8039 5.42364 12.6174 5.36298 12.5049 5.2177C12.3355 4.99866 12.0794 4.87305 11.8025 4.87305C11.5256 4.87305 11.2695 4.99866 11.1001 5.2177C10.9876 5.36301 10.801 5.42358 10.6247 5.37216C10.3589 5.29456 10.0779 5.34346 9.85382 5.50622C9.62978 5.66901 9.49652 5.9211 9.48811 6.19789C9.48257 6.38153 9.36723 6.54026 9.19429 6.60231C8.93364 6.69579 8.73504 6.90049 8.6495 7.16383C8.56393 7.42721 8.60427 7.70954 8.76019 7.93838C8.86362 8.09024 8.86362 8.28644 8.76019 8.43826C8.60427 8.66713 8.56393 8.94943 8.6495 9.21281C8.73504 9.47618 8.93364 9.68085 9.19429 9.77436C9.36723 9.83641 9.4826 9.99514 9.48811 10.1788C9.49584 10.4334 9.61251 10.6726 9.8083 10.8351C9.93746 10.9423 10.0926 11.0094 10.255 11.0318V13.0542C10.255 13.2248 10.3476 13.3825 10.4966 13.4657C10.6453 13.5489 10.8282 13.5452 10.9736 13.4556L11.7883 12.9541C11.8016 12.9459 11.8095 12.9496 11.8168 12.9541L12.6314 13.4556C12.7768 13.5451 12.9596 13.5489 13.1085 13.4657C13.2575 13.3825 13.3501 13.2247 13.3501 13.0541V11.0318C13.5124 11.0094 13.6676 10.9423 13.7967 10.8351C13.9926 10.6726 14.1093 10.4334 14.117 10.1788C14.1225 9.99511 14.2379 9.83635 14.4108 9.77433C14.6715 9.68085 14.8701 9.47615 14.9556 9.21278C15.0412 8.9494 15.0008 8.6671 14.8449 8.43823C14.7414 8.28646 14.7414 8.09027 14.8448 7.93841ZM12.8643 13.0773L12.0496 12.5758C11.8982 12.4826 11.707 12.4825 11.5554 12.5758L10.7407 13.0773C10.7222 13.0886 10.6993 13.0756 10.6993 13.0541V10.9896C10.852 10.972 11.0034 11.0341 11.1001 11.159C11.2696 11.378 11.5256 11.5036 11.8025 11.5036C12.0794 11.5036 12.3355 11.378 12.5049 11.159C12.6016 11.0341 12.753 10.972 12.9057 10.9896V13.0541C12.9057 13.0757 12.8825 13.0886 12.8643 13.0773ZM14.4777 8.68846C14.5556 8.80285 14.5758 8.94392 14.533 9.07555C14.4902 9.20718 14.391 9.30949 14.2607 9.35623C13.9147 9.48033 13.684 9.79794 13.6728 10.1654C13.6689 10.2945 13.6121 10.411 13.513 10.4933C13.4015 10.5858 13.2506 10.6206 13.1048 10.5781C12.752 10.4752 12.3785 10.5965 12.1536 10.8872C12.0689 10.9966 11.9409 11.0594 11.8025 11.0594C11.6641 11.0594 11.5361 10.9966 11.4514 10.8872C11.2796 10.6651 11.0213 10.5419 10.7517 10.5419C10.6682 10.5419 10.5836 10.5537 10.5002 10.5781C10.353 10.621 10.2025 10.585 10.0919 10.4932C9.99279 10.4109 9.93601 10.2945 9.93213 10.1654C9.921 9.79794 9.69026 9.48033 9.34422 9.3562C9.21395 9.30946 9.11473 9.20718 9.07193 9.07555C9.02916 8.94392 9.0493 8.80282 9.12726 8.68843C9.33421 8.38462 9.33421 7.99208 9.12726 7.68827C9.0493 7.57388 9.02916 7.43278 9.07193 7.30112C9.1147 7.16949 9.21395 7.06719 9.34422 7.02048C9.69026 6.89634 9.921 6.57873 9.93213 6.21131C9.93631 6.07295 10.0029 5.94695 10.1149 5.86562C10.2268 5.78426 10.3672 5.75985 10.5002 5.79859C10.8529 5.90158 11.2264 5.78023 11.4514 5.48954C11.5361 5.38007 11.664 5.31728 11.8025 5.31728C11.9409 5.31728 12.0688 5.38004 12.1536 5.48951C12.3785 5.78023 12.7518 5.90155 13.1048 5.79859C13.2376 5.75979 13.378 5.78423 13.49 5.86559C13.602 5.94692 13.6687 6.07295 13.6728 6.21128C13.684 6.5787 13.9147 6.89634 14.2607 7.02045C14.391 7.06716 14.4902 7.16946 14.533 7.30109C14.5758 7.43272 14.5556 7.57385 14.4777 7.68821C14.2707 7.99205 14.2707 8.38465 14.4777 8.68846Z" fill="white"/>
<path d="M11.8031 6.32617C10.7766 6.32617 9.94141 7.16132 9.94141 8.18786C9.94141 9.21441 10.7766 10.0496 11.8031 10.0496C12.8296 10.0496 13.6648 9.21441 13.6648 8.18786C13.6648 7.16132 12.8296 6.32617 11.8031 6.32617ZM11.8031 9.60533C11.0215 9.60533 10.3856 8.96946 10.3856 8.18789C10.3856 7.40633 11.0215 6.77043 11.8031 6.77043C12.5847 6.77043 13.2205 7.4063 13.2205 8.18789C13.2205 8.96949 12.5847 9.60533 11.8031 9.60533Z" fill="white"/>
</svg>
