<svg width="15" height="16" viewBox="0 0 15 16" fill="none" xmlns="http://www.w3.org/2000/svg">
  <path d="M7.58529 5.37695H1.89793C1.77523 5.37695 1.67578 5.47643 1.67578 5.5991C1.67578 5.72181 1.77523 5.82126 1.89793 5.82126H7.58532C7.70802 5.82126 7.80747 5.72178 7.80747 5.5991C7.80747 5.47643 7.70802 5.37695 7.58529 5.37695Z" fill="white"/>
  <path d="M7.58529 6.9375H1.89793C1.77523 6.9375 1.67578 7.03698 1.67578 7.15965C1.67578 7.28233 1.77523 7.3818 1.89793 7.3818H7.58532C7.70802 7.3818 7.80747 7.28233 7.80747 7.15965C7.80747 7.03698 7.70802 6.9375 7.58529 6.9375Z" fill="white"/>
  <path d="M7.58529 8.5H1.89793C1.77523 8.5 1.67578 8.59948 1.67578 8.72215C1.67578 8.84482 1.77523 8.9443 1.89793 8.9443H7.58532C7.70802 8.9443 7.80747 8.84482 7.80747 8.72215C7.80747 8.59948 7.70802 8.5 7.58529 8.5Z" fill="white"/>
  <path d="M7.80747 10.2827C7.80747 10.16 7.70802 10.0605 7.58532 10.0605H1.89793C1.77523 10.0605 1.67578 10.16 1.67578 10.2827C1.67578 10.4054 1.77523 10.5049 1.89793 10.5049H7.58532C7.70802 10.5049 7.80747 10.4054 7.80747 10.2827Z" fill="white"/>
  <path d="M1.89793 12.3477C1.77523 12.3477 1.67578 12.4471 1.67578 12.5698C1.67578 12.6925 1.77523 12.792 1.89793 12.792H4.7489C4.8716 12.792 4.97105 12.6925 4.97105 12.5698C4.97105 12.4471 4.8716 12.3477 4.7489 12.3477H1.89793Z" fill="white"/>
  <path d="M10.1431 2.75016V2.02929C10.1431 1.75468 9.91973 1.53125 9.64509 1.53125H5.08395C4.80933 1.53125 4.58594 1.75468 4.58594 2.02929V2.75016C4.58594 3.02478 4.80933 3.24818 5.08395 3.24818H5.46912C5.59183 3.24818 5.69127 3.1487 5.69127 3.02602C5.69127 2.90332 5.59183 2.80387 5.46912 2.80387H5.08395C5.05435 2.80387 5.03027 2.77979 5.03027 2.75019V2.02929C5.03027 1.9997 5.05435 1.97558 5.08395 1.97558H9.64509C9.67471 1.97558 9.6988 1.99967 9.6988 2.02929V2.75016C9.6988 2.77976 9.67471 2.80384 9.64509 2.80384H6.50774C6.38504 2.80384 6.28559 2.90332 6.28559 3.02599C6.28559 3.1487 6.38504 3.24815 6.50774 3.24815H9.64512C9.91973 3.24821 10.1431 3.02478 10.1431 2.75016Z" fill="white"/>
  <path d="M11.8044 13.547C11.6817 13.547 11.5823 13.6465 11.5823 13.7691V14.0683C11.5823 14.4294 11.2885 14.7232 10.9274 14.7232H1.0992C0.738115 14.7232 0.444303 14.4294 0.444303 14.0683V3.38983C0.444303 3.34175 0.449931 3.29459 0.459974 3.2487H2.4828C2.90512 3.2487 3.2487 2.90512 3.2487 2.4828V0.460003C3.29459 0.449961 3.34172 0.444332 3.3898 0.444332H10.9273C11.2885 0.444332 11.5823 0.738115 11.5823 1.09923V4.05697C11.5823 4.17967 11.6817 4.27912 11.8044 4.27912C11.9271 4.27912 12.0266 4.17964 12.0266 4.05697V1.0992C12.0266 0.493123 11.5335 0 10.9274 0H3.38983C3.09623 0 2.82016 0.114349 2.61255 0.321955L0.321925 2.61258C0.11432 2.82019 0 3.09623 0 3.38986V14.0683C0 14.6745 0.493094 15.1676 1.0992 15.1676H10.9274C11.5335 15.1676 12.0266 14.6744 12.0266 14.0683V13.7692C12.0266 13.6465 11.9271 13.547 11.8044 13.547ZM2.8044 0.758496V2.4828C2.8044 2.66013 2.66013 2.8044 2.4828 2.8044H0.758496L2.8044 0.758496Z" fill="white"/>
  <path d="M14.8458 7.93988C15.0018 7.71098 15.0421 7.42863 14.9565 7.16521C14.871 6.90179 14.6723 6.69709 14.4116 6.6036C14.2387 6.54157 14.1233 6.38278 14.1178 6.19911C14.1094 5.92227 13.9761 5.67011 13.752 5.5073C13.5279 5.34451 13.2468 5.29566 12.9811 5.37322C12.8046 5.42471 12.618 5.36404 12.5056 5.21873C12.3361 4.99966 12.08 4.87402 11.803 4.87402C11.5261 4.87402 11.27 4.99966 11.1005 5.21873C10.988 5.36407 10.8013 5.42465 10.625 5.37322C10.3592 5.2956 10.0781 5.34451 9.85402 5.5073C9.62995 5.67011 9.49667 5.92224 9.48825 6.19908C9.48271 6.38275 9.36736 6.54151 9.19438 6.60357C8.93369 6.69706 8.73506 6.9018 8.64951 7.16518C8.56392 7.4286 8.60427 7.71098 8.76021 7.93985C8.86366 8.09174 8.86366 8.28797 8.76021 8.43982C8.60427 8.66873 8.56392 8.95107 8.64951 9.21449C8.73506 9.47791 8.93369 9.68261 9.19438 9.77614C9.36736 9.8382 9.48274 9.99695 9.48825 10.1806C9.49599 10.4353 9.61268 10.6745 9.80849 10.837C9.93768 10.9443 10.0929 11.0114 10.2553 11.0338V13.0565C10.2553 13.2271 10.3479 13.3849 10.4969 13.4681C10.6457 13.5513 10.8286 13.5476 10.974 13.458L11.7888 12.9564C11.8021 12.9482 11.81 12.9519 11.8173 12.9564L12.6321 13.458C12.7775 13.5475 12.9603 13.5513 13.1093 13.4681C13.2583 13.3848 13.3508 13.2271 13.3508 13.0564V11.0337C13.5132 11.0113 13.6684 10.9442 13.7976 10.837C13.9934 10.6745 14.1102 10.4353 14.1179 10.1806C14.1234 9.99692 14.2388 9.83814 14.4117 9.77611C14.6724 9.68261 14.8711 9.47788 14.9566 9.21446C15.0422 8.95104 15.0019 8.6687 14.8459 8.43979C14.7424 8.288 14.7424 8.09177 14.8458 7.93988ZM12.865 13.0796L12.0502 12.578C11.8987 12.4848 11.7075 12.4847 11.5558 12.578L10.7411 13.0796C10.7225 13.0909 10.6996 13.0779 10.6996 13.0564V10.9916C10.8524 10.9739 11.0038 11.0361 11.1005 11.161C11.27 11.38 11.5261 11.5057 11.8031 11.5057C12.08 11.5057 12.3361 11.38 12.5056 11.161C12.6023 11.036 12.7537 10.9739 12.9064 10.9916V13.0564C12.9064 13.078 12.8832 13.0909 12.865 13.0796ZM14.4786 8.69006C14.5566 8.80446 14.5768 8.94556 14.534 9.07721C14.4912 9.20886 14.3919 9.31118 14.2616 9.35793C13.9156 9.48206 13.6848 9.79972 13.6737 10.1672C13.6697 10.2964 13.6129 10.4128 13.5138 10.4951C13.4023 10.5877 13.2513 10.6226 13.1055 10.58C12.7526 10.477 12.3792 10.5984 12.1541 10.8891C12.0694 10.9986 11.9414 11.0614 11.803 11.0614C11.6646 11.0614 11.5366 10.9986 11.4518 10.8891C11.28 10.6671 11.0217 10.5438 10.752 10.5438C10.6685 10.5438 10.5839 10.5556 10.5005 10.58C10.3533 10.6229 10.2028 10.5869 10.0922 10.4951C9.99302 10.4128 9.93623 10.2964 9.93235 10.1672C9.92121 9.79972 9.69044 9.48206 9.34434 9.3579C9.21405 9.31115 9.11481 9.20886 9.07201 9.07721C9.02923 8.94556 9.04937 8.80443 9.12734 8.69003C9.33433 8.38617 9.33433 7.99356 9.12734 7.68971C9.04937 7.5753 9.02923 7.43417 9.07201 7.30249C9.11478 7.17084 9.21405 7.06852 9.34434 7.0218C9.69044 6.89765 9.92121 6.57999 9.93235 6.2125C9.93653 6.07413 10.0031 5.94811 10.1151 5.86676C10.2271 5.78538 10.3675 5.76097 10.5005 5.79972C10.8533 5.90272 11.2269 5.78135 11.4518 5.49062C11.5366 5.38113 11.6645 5.31833 11.803 5.31833C11.9414 5.31833 12.0694 5.3811 12.1541 5.49059C12.3791 5.78135 12.7525 5.90269 13.1055 5.79972C13.2384 5.76091 13.3788 5.78535 13.4908 5.86673C13.6028 5.94808 13.6695 6.07413 13.6736 6.21247C13.6848 6.57996 13.9156 6.89765 14.2616 7.02177C14.3919 7.06849 14.4912 7.17081 14.534 7.30246C14.5768 7.43411 14.5566 7.57527 14.4786 7.68965C14.2716 7.99353 14.2716 8.3862 14.4786 8.69006Z" fill="white"/>
  <path d="M11.8034 6.32617C10.7767 6.32617 9.94141 7.16145 9.94141 8.18817C9.94141 9.21488 10.7767 10.0502 11.8034 10.0502C12.8301 10.0502 13.6654 9.21488 13.6654 8.18817C13.6654 7.16145 12.8301 6.32617 11.8034 6.32617ZM11.8034 9.60586C11.0217 9.60586 10.3857 8.96989 10.3857 8.1882C10.3857 7.4065 11.0217 6.7705 11.8034 6.7705C12.5851 6.7705 13.2211 7.40647 13.2211 8.1882C13.2211 8.96992 12.5851 9.60586 11.8034 9.60586Z" fill="white"/>
</svg>
