<svg width="15" height="15" viewBox="0 0 15 15" fill="none" xmlns="http://www.w3.org/2000/svg">
  <path d="M14.6861 3.52816L11.4718 0.313911C11.2709 0.113002 10.9984 0 10.7143 0H1.07144C0.479753 0 0 0.479753 0 1.07144V13.9286C0 14.5208 0.479753 15 1.07144 15H13.9286C14.5203 15 15 14.5208 15 13.9286V4.28573C15 4.00162 14.887 3.72907 14.6861 3.52816ZM7.50002 4.28573C8.68185 4.28573 9.64287 5.24678 9.64287 6.42858C9.64287 7.61041 8.68181 8.57142 7.50002 8.57142C6.31819 8.57142 5.35717 7.61037 5.35717 6.42858C5.35714 5.24675 6.31819 4.28573 7.50002 4.28573ZM11.25 11.7857H3.75001V10.7143C3.75001 9.9719 4.26479 9.32686 5.12749 8.98837C6.51387 8.44322 8.48565 8.44322 9.87306 8.98837C10.7352 9.32686 11.25 9.9719 11.25 10.7143V11.7857H11.25ZM11.7857 4.28573C11.194 4.28573 10.7143 3.80598 10.7143 3.21429V1.07144L13.9286 4.28573H11.7857Z" fill="gray"/>
</svg>
