<svg width="15" height="15" viewBox="0 0 15 15" fill="none" xmlns="http://www.w3.org/2000/svg">
<path d="M14.3853 0.174319C13.7981 -0.164801 13.0445 0.0371764 12.7055 0.624447L11.0293 3.52769H7.41447C7.25266 3.52769 7.12149 3.65889 7.12149 3.82067C7.12149 3.98245 7.25266 4.11365 7.41447 4.11365H10.691L9.47462 6.2205H2.63684C2.47503 6.2205 2.34387 6.35169 2.34387 6.51347C2.34387 6.67528 2.47503 6.80645 2.63684 6.80645H9.13629L8.45969 7.97836H2.63684C2.47503 7.97836 2.34387 8.10955 2.34387 8.27133C2.34387 8.43311 2.47503 8.56431 2.63684 8.56431H8.33851L8.21227 9.73621H2.63684C2.47503 9.73621 2.34387 9.86741 2.34387 10.0292C2.34387 10.191 2.47503 10.3222 2.63684 10.3222H8.14913L8.13355 10.4669C8.12112 10.5822 8.1779 10.694 8.27833 10.752C8.32383 10.7782 8.37437 10.7912 8.42479 10.7912C8.4857 10.7912 8.54641 10.7723 8.59765 10.7348L10.4683 9.36823C10.5013 9.34415 10.5288 9.31348 10.5492 9.27814L12.8324 5.3237V11.0024C12.8324 11.6588 12.2983 12.1929 11.6418 12.1929H4.85207C4.74739 12.1929 4.65067 12.2487 4.59835 12.3394L3.5739 14.1138L2.54945 12.3394C2.49712 12.2487 2.40041 12.1929 2.29573 12.1929H1.77649C1.12002 12.1929 0.585952 11.6588 0.585952 11.0024V5.30419C0.585952 4.64774 1.12002 4.11365 1.77649 4.11365H4.77771C4.93952 4.11365 5.07069 3.98245 5.07069 3.82067C5.07069 3.65886 4.93952 3.52769 4.77771 3.52769H1.77649C0.796925 3.52769 0 4.32462 0 5.30419V11.0024C0 11.9819 0.796925 12.7789 1.77649 12.7789H2.12657L3.32018 14.8462C3.37251 14.9369 3.46922 14.9927 3.5739 14.9927C3.67858 14.9927 3.77529 14.9369 3.82762 14.8462L5.02123 12.7789H11.6418C12.6214 12.7789 13.4183 11.9819 13.4183 11.0024V5.30419C13.4183 5.05305 13.3651 4.80495 13.2632 4.57749L14.8355 1.85421C15.1745 1.26697 14.9726 0.51338 14.3853 0.174319ZM14.0924 0.681753C14.3998 0.859268 14.5055 1.25379 14.328 1.56124L14.1606 1.8512L13.0455 1.20738L13.2129 0.917423C13.3904 0.610003 13.7849 0.504327 14.0924 0.681753ZM8.91609 8.67353L9.75945 9.16046L8.78712 9.87078L8.91609 8.67353ZM10.1883 8.73145L9.07318 8.08764L12.7525 1.71482L13.8676 2.35863L10.1883 8.73145Z" fill="white"/>
<path d="M6.09541 4.11329C6.17246 4.11329 6.24805 4.08194 6.30283 4.02745C6.35732 3.97296 6.38867 3.89737 6.38867 3.82032C6.38867 3.74327 6.35732 3.66768 6.30283 3.61318C6.24805 3.55872 6.17275 3.52734 6.09541 3.52734C6.01836 3.52734 5.94277 3.55869 5.88828 3.61318C5.83379 3.66768 5.80273 3.74327 5.80273 3.82032C5.80273 3.89737 5.83376 3.97296 5.88828 4.02745C5.94307 4.08194 6.01836 4.11329 6.09541 4.11329Z" fill="white"/>
</svg>
