<svg width="88" height="86" viewBox="0 0 88 86" fill="none" xmlns="http://www.w3.org/2000/svg">
<path d="M71.911 49.3003C66.4214 49.3003 59.5513 50.2578 57.3039 50.5948C48.0016 40.8806 45.355 35.3589 44.7597 33.8867C45.5665 31.8139 48.3735 23.9395 48.7723 13.8261C48.969 8.76266 47.8994 4.97917 45.5923 2.58071C43.2893 0.186222 40.5016 0 39.7022 0C36.8992 0 32.1971 1.41739 32.1971 10.909C32.1971 19.1445 36.0368 27.8834 37.0982 30.1413C31.5062 46.4238 25.5025 57.5702 24.2276 59.8625C1.75719 68.3228 0 76.5029 0 78.8213C0 82.9875 2.96706 85.4748 7.93686 85.4748C20.0115 85.4748 31.0304 65.2027 32.8523 61.6827C41.4282 58.2657 52.9064 56.1491 55.8243 55.6441C64.1941 63.617 73.874 65.7443 77.8936 65.7443C80.918 65.7443 88.001 65.7443 88.001 58.4621C88.0013 51.6996 79.3337 49.3003 71.911 49.3003ZM71.329 54.0811C77.8511 54.0811 79.5747 56.2379 79.5747 57.3783C79.5747 58.0939 79.3031 60.4288 75.8072 60.4288C72.6723 60.4288 67.26 58.6171 61.9347 54.686C64.1555 54.3942 67.4416 54.0811 71.329 54.0811ZM39.3599 4.63398C39.9546 4.63398 40.346 4.82503 40.6688 5.2727C42.5447 7.87555 41.0322 16.3804 39.1912 23.0359C37.4142 17.3292 36.0805 8.57275 37.9569 5.49213C38.3237 4.89088 38.743 4.63398 39.3599 4.63398ZM36.1924 55.5762C38.5536 50.806 41.2002 43.8539 42.6417 39.9219C45.5265 44.7504 49.4065 49.2333 51.6505 51.6639C44.6635 53.1369 39.3772 54.6085 36.1924 55.5762ZM4.69047 79.4578C4.53491 79.2733 4.51191 78.8844 4.62915 78.4174C4.87499 77.4389 6.75367 72.5883 20.3419 66.51C18.3962 69.5747 15.3545 73.9537 12.013 77.2251C9.66084 79.4268 7.82928 80.5433 6.56915 80.5433C6.11836 80.5433 5.49724 80.4204 4.69047 79.4578Z" fill="#616161"/>
</svg>
