<svg width="12" height="12" id="Слой_1" data-name="Слой 1" xmlns="http://www.w3.org/2000/svg" viewBox="0 0 8.78 10.92"><defs><style>.cls-1{fill:#ad262d;}</style></defs><title>bag</title><path class="cls-1" d="M2,3.59v6.77a.74.74,0,0,0,.74.74h6a.74.74,0,0,0,.74-.74V3.59ZM4,9.73H3.33V4.91H4V9.73Zm1.34,0H4.68V4.91h.66V9.73Zm1.36,0H6V4.91H6.7V9.73ZM8,9.73H7.37V4.91H8V9.73Zm1.3-8.19H8.15V.92A.74.74,0,0,0,7.41.18H4.17a.74.74,0,0,0-.74.74v.62H2a.74.74,0,0,0-.74.74v.61h8.78V2.28a.74.74,0,0,0-.74-.74Zm-1.87,0H4.1V.87H7.47v.68Z" transform="translate(-1.3 -0.18)"/></svg>
