<svg viewBox="0 0 612 725.33" fill="#E81C3F" xmlns="http://www.w3.org/2000/svg">
  <path d="M192.663 181.33c9.384 0 17.884-3.808 24.049-9.973l55.284-55.284v371.26c0 18.768 15.209 34 34 34s34-15.232 34-34v-371.26l55.307 55.284c6.143 6.166 14.643 9.973 24.026 9.973 18.791 0 34-15.232 34-34 0-9.384-3.808-17.884-9.95-24.049L330.049 9.951C323.883 3.808 315.383 0 305.999 0s-17.884 3.808-24.027 9.973l-113.33 113.33c-6.166 6.143-9.974 14.643-9.974 24.026 0 18.768 15.21 34 34 34zm374 45.334h-124.67c-18.791 0-34 15.232-34 34s15.209 34 34 34h102v362.67h-476v-362.67h102c18.791 0 34-15.232 34-34s-15.209-34-34-34H45.323c-25.001 0-45.333 20.354-45.333 45.333v408c0 24.979 20.332 45.334 45.333 45.334h521.33c25.001 0 45.333-20.355 45.333-45.334v-408c.001-24.979-20.331-45.333-45.332-45.333z"/>
</svg>
