<svg width="15" height="15" viewBox="0 0 15 15" fill="none" xmlns="http://www.w3.org/2000/svg">
  <g clip-path="url(#clip0)">
    <path d="M10.9375 6.875C8.69749 6.875 6.875 8.6975 6.875 10.9375C6.875 13.1775 8.69749 15 10.9375 15C13.1775 15 15 13.1775 15 10.9375C15 8.6975 13.1775 6.875 10.9375 6.875ZM12.9231 12.8256C12.8 12.98 12.6181 13.06 12.435 13.06C12.2981 13.06 12.16 13.015 12.045 12.9231L10.5475 11.725C10.3994 11.6069 10.3131 11.4269 10.3131 11.2369V9.14062C10.3131 8.79562 10.5931 8.51562 10.9381 8.51562C11.2831 8.51562 11.5631 8.79562 11.5631 9.14062V10.9369L12.8262 11.9475C13.095 12.1625 13.1387 12.5556 12.9231 12.8256Z" fill="#EE1C41"/>
    <path d="M6.69375 7.74375C6.425 8.09375 6.2 8.48751 6.03125 8.90626H3.625C3.28125 8.90626 3 8.62501 3 8.28126C3 7.9375 3.28125 7.65625 3.625 7.65625H6.38125C6.49375 7.65625 6.6 7.6875 6.69375 7.74375Z" fill="#EE1C41"/>
    <path d="M9.56875 5.78125V5.80625C9.06875 5.9375 8.6 6.1375 8.16875 6.40625H3.625C3.28125 6.40625 3 6.125 3 5.78125C3 5.4375 3.28125 5.15625 3.625 5.15625H8.94375C9.2875 5.15625 9.56875 5.4375 9.56875 5.78125Z" fill="#EE1C41"/>
    <path d="M9.53132 3.90625H3.62695C3.28195 3.90625 3.00195 3.62625 3.00195 3.28125C3.00195 2.93625 3.28195 2.65625 3.62695 2.65625H9.53132C9.87631 2.65625 10.1563 2.93625 10.1563 3.28125C10.1563 3.62625 9.87631 3.90625 9.53132 3.90625Z" fill="#EE1C41"/>
    <path d="M13.4312 0.112207C13.3375 0.055957 13.2375 0.012207 13.125 0.012207H3.125C2.09375 0.012207 1.25 0.855957 1.25 1.88721V10.6372H0.625C0.28125 10.6372 0 10.9185 0 11.2622V13.1122C0 14.1435 0.84375 14.9872 1.875 14.9872H7.5C6.35625 14.0122 5.625 12.556 5.625 10.9372C5.625 10.8372 5.625 10.7372 5.63125 10.6372H2.5V1.88721C2.5 1.54346 2.78125 1.26221 3.125 1.26221H10.8438C10.7063 1.54971 10.625 1.86221 10.625 2.19971V5.63096C10.7312 5.62471 10.8313 5.62471 10.9375 5.62471C11.2563 5.62471 11.5688 5.65596 11.875 5.71221V3.76221H14.375C14.7188 3.76221 15 3.48096 15 3.13721V2.19971C15 1.21221 14.3375 0.380957 13.4312 0.112207Z" fill="#EE1C41"/>
  </g>
  <defs>
    <clipPath id="clip0">
      <rect width="15" height="15" fill="#EE1C41"/>
    </clipPath>
  </defs>
</svg>
