<svg width="11" height="11" viewBox="0 0 11 11" fill="none" xmlns="http://www.w3.org/2000/svg">
  <path d="M9.61324 9.14555C10.475 8.17433 11 6.89757 11 5.5C11 4.04591 10.4318 2.72288 9.50703 1.73838V1.73819C9.50628 1.73705 9.50514 1.73667 9.50457 1.73572C8.54131 0.711776 7.19172 0.0563276 5.6906 0.00493103L5.69041 0.00474138L5.58326 0.00189655C5.55557 0.000948276 5.52788 0 5.5 0C5.47212 0 5.44443 0.000948276 5.41674 0.00189655L5.30997 0.00474138L5.30978 0.00493103C3.80866 0.0563276 2.45907 0.711776 1.49581 1.73572C1.49505 1.73667 1.49391 1.73705 1.49334 1.73819C1.49334 1.73819 1.49334 1.73838 1.49316 1.73857C0.568207 2.72288 0 4.04591 0 5.5C0 6.89757 0.524965 8.17433 1.38676 9.14555C1.3879 9.14726 1.3879 9.14915 1.38922 9.15086C1.39264 9.1556 1.39757 9.15788 1.40117 9.16224C2.36955 10.2448 3.75897 10.9422 5.30959 10.9953L5.30978 10.9954L5.41655 10.9983C5.44443 10.9991 5.47212 11 5.5 11C5.52788 11 5.55557 10.9991 5.58326 10.9981L5.69003 10.9953L5.69022 10.9951C7.24255 10.9418 8.63348 10.2431 9.60186 9.15826C9.60433 9.15504 9.60831 9.15409 9.61059 9.15067C9.6121 9.14916 9.6121 9.14726 9.61324 9.14555ZM0.384052 5.68966H2.66048C2.68191 6.4936 2.83895 7.27479 3.1185 8.00667C2.57912 8.20183 2.06345 8.46355 1.58021 8.79014C0.869569 7.94484 0.427293 6.86741 0.384052 5.68966ZM1.68376 2.09057C2.15562 2.39743 2.65802 2.64322 3.18203 2.82681C2.86114 3.60572 2.68362 4.44552 2.66048 5.31034H0.384052C0.429379 4.07626 0.912621 2.95255 1.68376 2.09057ZM10.6159 5.31034H8.33952C8.31638 4.44552 8.13886 3.60572 7.81797 2.82681C8.34198 2.64322 8.84438 2.39743 9.31624 2.09057C10.0874 2.95255 10.5706 4.07626 10.6159 5.31034ZM5.31034 2.83781C4.76205 2.82226 4.22381 2.74052 3.70378 2.59448C4.08821 1.8059 4.631 1.09412 5.31034 0.501448V2.83781ZM5.31034 3.21712V5.31034H3.03979C3.06312 4.48572 3.23609 3.68595 3.54541 2.9444C4.11552 3.10959 4.70743 3.201 5.31034 3.21712ZM5.68966 3.21712C6.29257 3.201 6.88448 3.10978 7.45478 2.9444C7.7641 3.68595 7.93707 4.48572 7.9604 5.31034H5.68966V3.21712ZM5.68966 2.83781V0.501448C6.369 1.09412 6.91179 1.8059 7.29622 2.59448C6.77619 2.74052 6.23795 2.82226 5.68966 2.83781ZM7.66378 2.47917C7.29945 1.71581 6.79383 1.02034 6.16778 0.424259C7.2784 0.569534 8.27769 1.07174 9.04731 1.81216C8.61034 2.08943 8.14683 2.31247 7.66378 2.47917ZM3.33622 2.47917C2.85317 2.31247 2.38966 2.08943 1.95288 1.81216C2.72231 1.07174 3.72179 0.569534 4.83241 0.424259C4.20617 1.02034 3.70055 1.71581 3.33622 2.47917ZM3.03979 5.68966H5.31034V7.59341C4.68316 7.6101 4.06867 7.70797 3.47809 7.88567C3.21124 7.19248 3.06122 6.45188 3.03979 5.68966ZM5.31034 7.97272V10.4986C4.58321 9.86415 4.0131 9.0934 3.62545 8.23843C4.16919 8.07817 4.73398 7.98903 5.31034 7.97272ZM5.68966 10.4986V7.97272C6.26602 7.98884 6.83081 8.07817 7.37455 8.23824C6.9869 9.0934 6.41679 9.86415 5.68966 10.4986ZM5.68966 7.59341V5.68966H7.96021C7.93878 6.45188 7.78876 7.19248 7.52172 7.88586C6.93133 7.70797 6.31684 7.6101 5.68966 7.59341ZM8.33952 5.68966H10.6159C10.5727 6.86741 10.1306 7.94484 9.41979 8.79014C8.93655 8.46355 8.42088 8.20183 7.8815 8.00667C8.16124 7.27479 8.31809 6.4936 8.33952 5.68966ZM1.83795 9.07424C2.28667 8.7761 2.76441 8.53638 3.26359 8.35715C3.63247 9.18405 4.16198 9.93755 4.83222 10.5757C3.66566 10.4231 2.6216 9.87686 1.83795 9.07424ZM6.16778 10.5757C6.83802 9.93774 7.36753 9.18424 7.73641 8.35715C8.23559 8.53638 8.71314 8.7761 9.16205 9.07424C8.3784 9.87686 7.33434 10.4231 6.16778 10.5757Z" fill="#F1D261"/>
</svg>
