<svg width="36" height="50" viewBox="0 0 36 50" fill="none" xmlns="http://www.w3.org/2000/svg">
  <path d="M34.8858 31.4302C34.809 31.3533 34.7263 31.2861 34.6379 31.2342C33.3927 30.4501 31.9726 30.0543 30.5525 30.0543C28.5866 30.0543 26.6226 30.8037 25.1237 32.3026L23.7632 33.6613V15.3765C23.7632 13.2627 22.0337 11.5332 19.9199 11.5332C17.806 11.5332 16.0765 13.2627 16.0765 15.3765V23.8319C15.3751 22.971 14.3182 22.4099 13.121 22.4099C12.2889 22.4099 11.5221 22.6827 10.8938 23.1343L2.61711 27.9251C1.47372 28.5938 0.703125 29.8218 0.703125 31.238V37.5584C0.703125 44.4303 6.27213 49.9993 13.144 49.9993C16.4724 49.9993 19.4875 48.6849 21.7185 46.5557L21.7205 46.573L21.9338 46.3597C21.9376 46.3558 21.9415 46.352 21.9434 46.3501L34.8839 33.4076C35.4316 32.8599 35.4316 31.9779 34.8858 31.4302ZM20.3926 45.1625C18.4229 47.0399 15.8478 48.0738 13.144 48.0738C7.34443 48.0776 2.6248 43.3561 2.6248 37.5565V31.2361C2.6248 30.5597 2.98415 29.9467 3.58756 29.595L12.0122 24.6967C12.2428 24.5314 12.6233 24.3315 13.1191 24.3315C13.8877 24.3315 14.3681 24.7793 14.5872 25.0464L17.9982 29.2241V15.3765C17.9982 14.3177 18.861 13.4549 19.9199 13.4549C20.9787 13.4549 21.8415 14.3177 21.8415 15.3765V34.5875C21.8415 35.4081 22.3604 36.096 23.0848 36.367C23.3904 36.4823 23.7344 36.4073 23.965 36.1767L26.4804 33.6613C27.5681 32.5736 29.0132 31.976 30.5506 31.976C31.4172 31.976 32.2647 32.1681 33.0372 32.5371L20.3926 45.1625Z" fill="#F1D261"/>
  <path d="M20.8826 0H18.9609V7.68669H20.8826V0Z" fill="#F1D261"/>
  <path d="M9.726 3.82185L8.36719 5.18066L13.8024 10.6158L15.1612 9.25702L9.726 3.82185Z" fill="#F1D261"/>
  <path d="M12.2336 14.4121H4.54688V16.3338H12.2336V14.4121Z" fill="#F1D261"/>
  <path d="M30.1109 3.82459L24.6758 9.25977L26.0346 10.6186L31.4698 5.1834L30.1109 3.82459Z" fill="#F1D261"/>
  <path d="M35.2961 14.4121H27.6094V16.3338H35.2961V14.4121Z" fill="#F1D261"/>
</svg>
