<svg width="15" height="10" viewBox="0 0 15 10" fill="none" xmlns="http://www.w3.org/2000/svg">
  <path d="M14.8686 3.27373L7.59058 0.0193976C7.5329 -0.00646586 7.4671 -0.00646586 7.40942 0.0193976L4.4587 1.33878C4.34689 1.38879 4.29677 1.51994 4.34678 1.63186C4.39679 1.74378 4.52805 1.7939 4.63997 1.74389L7.49994 0.465027L10.1182 1.63575V3.27018C8.72869 2.76207 7.55876 2.7235 7.50612 2.72201C7.502 2.7219 7.49788 2.7219 7.49376 2.72201C7.43734 2.7235 6.09542 2.76779 4.57589 3.3884C3.9697 3.63582 3.41592 3.94389 2.93001 4.30392C2.89362 4.33093 2.86707 4.368 2.85265 4.40966L0.765489 3.47629L3.69149 2.16789C3.80342 2.11788 3.85354 1.98674 3.80342 1.87481C3.7534 1.76289 3.62214 1.71277 3.51033 1.76278L0.131263 3.27373C0.0513836 3.30943 0 3.38886 0 3.47629C0 3.56383 0.0513836 3.64314 0.131263 3.67885L2.84017 4.89031V5.95288C2.84017 6.07545 2.93962 6.17478 3.06207 6.17478C3.18464 6.17478 3.28397 6.07545 3.28397 5.95288V4.75115C3.28397 4.75103 3.28397 4.75081 3.28397 4.75069V4.59517C3.71839 4.28504 4.20888 4.01747 4.74365 3.79924C6.13433 3.23127 7.40107 3.16982 7.50006 3.16581C7.59699 3.16959 8.78007 3.22612 10.1182 3.74431V5.94934C9.79378 6.04524 9.5562 6.34599 9.5562 6.70121C9.5562 7.02759 9.7567 7.30797 10.0411 7.42573L9.8859 7.83416C8.87334 8.00846 8.07157 8.24832 7.49994 8.54884C6.18331 7.85717 3.97851 7.6617 3.28409 7.61581V6.99337C3.28409 6.87081 3.18464 6.77147 3.06219 6.77147C2.93962 6.77147 2.84029 6.87081 2.84029 6.99337V7.82547C2.84029 7.94414 2.93379 8.04187 3.05246 8.04714C3.08141 8.0484 5.9653 8.18309 7.39019 8.99459C7.42418 9.01393 7.46206 9.02365 7.50006 9.02365C7.53794 9.02365 7.57582 9.01393 7.60992 8.99447C8.08897 8.72142 8.80731 8.48979 9.70188 8.31836L9.57073 8.66374C9.54476 8.73195 9.55403 8.80851 9.59545 8.86859C9.63688 8.92855 9.7052 8.96449 9.7781 8.96449H10.9024C10.9754 8.96449 11.0436 8.92855 11.085 8.86859C11.1264 8.80851 11.1357 8.73195 11.1098 8.66374L10.9092 8.13583C11.513 8.06671 11.9426 8.04725 11.9475 8.04702C12.0662 8.04187 12.1598 7.94414 12.1598 7.82535V6.99326C12.1598 6.87081 12.0604 6.77136 11.9379 6.77136C11.8154 6.77136 11.716 6.87081 11.716 6.99326V7.61604C11.5089 7.63 11.1647 7.65758 10.7466 7.70805L10.6394 7.42573C10.9236 7.30797 11.1243 7.02759 11.1243 6.70121C11.1243 6.34587 10.8867 6.04524 10.5621 5.94934V3.93233C10.9789 4.12356 11.366 4.34523 11.716 4.59517V4.75069V4.75115V5.95288C11.716 6.07545 11.8154 6.17478 11.9379 6.17478C12.0605 6.17478 12.1598 6.07545 12.1598 5.95288V4.89031L14.8687 3.67885C14.9486 3.64314 15 3.56383 15 3.47629C15 3.38886 14.9485 3.30943 14.8686 3.27373ZM10.0997 8.52069L10.3401 7.88795L10.5806 8.52069H10.0997ZM10.6803 6.70121C10.6803 6.88878 10.5278 7.04132 10.3401 7.04132C10.1525 7.04132 10 6.88878 10 6.70121C10 6.51353 10.1525 6.36098 10.3401 6.36098C10.5278 6.36098 10.6803 6.51353 10.6803 6.70121ZM12.1472 4.40966C12.1328 4.368 12.1063 4.33093 12.0699 4.30392C11.6213 3.97147 11.1142 3.684 10.562 3.44699V1.83419L14.2344 3.47629L12.1472 4.40966Z" fill="#fff"/>
</svg>
