<svg width="15" height="15" viewBox="0 0 15 15" fill="none" xmlns="http://www.w3.org/2000/svg">
  <g clip-path="url(#clip0)">
    <path d="M6.875 13.75V14.375H5.62499V13.75H5V14.6875C5 14.8601 5.13992 15 5.31251 15H7.18751C7.3601 15 7.50002 14.8601 7.50002 14.6875V13.75H6.875Z" fill="white"/>
    <path d="M7.81247 12.5V13.4375H4.68749V12.5H4.0625V13.75C4.0625 13.9226 4.20242 14.0625 4.37501 14.0625H8.12501C8.2976 14.0625 8.43752 13.9226 8.43752 13.75V12.5H7.81247Z" fill="white"/>
    <path d="M6.25042 0.62499V0C4.16647 0.001875 2.27609 1.222 1.41614 3.1202C0.205386 5.79275 1.39039 8.94079 4.06294 10.1515V11.5625H4.68793V9.94591C4.68793 9.81858 4.61067 9.70397 4.4926 9.65622C2.7255 8.93944 1.56875 7.22355 1.56705 5.31662C1.56476 2.7278 3.66157 0.627275 6.25042 0.62499Z" fill="white"/>
    <path d="M9.90781 8.24219C9.40499 8.86741 8.75105 9.35409 8.00782 9.65626C7.88978 9.70401 7.8125 9.81862 7.8125 9.94595V11.5628H8.43749V10.1519C9.19985 9.80608 9.87028 9.28595 10.3947 8.63345L9.90781 8.24219Z" fill="white"/>
    <path d="M9.0625 12.1875H3.4375V12.8125H9.0625V12.1875Z" fill="white"/>
    <path d="M4.68749 3.75C4.68749 3.57741 4.82741 3.43749 5 3.43749C5.17259 3.43749 5.31251 3.57741 5.31251 3.75H5.9375C5.9375 3.23224 5.51776 2.8125 5 2.8125C4.48224 2.8125 4.0625 3.23224 4.0625 3.75C4.0625 4.26776 4.48224 4.6875 5 4.6875H5.9375V4.06251H5C4.82738 4.06251 4.68749 3.92259 4.68749 3.75Z" fill="white"/>
    <path d="M6.56249 5.3125H5.9375V11.5624H6.56249V5.3125Z" fill="white"/>
    <path d="M13.75 2.8125H12.9619C12.9289 2.71969 12.8911 2.62863 12.8488 2.53969L13.4063 1.9822C13.5283 1.86018 13.5283 1.66236 13.4063 1.54031L12.5222 0.65625C12.4002 0.534258 12.2024 0.534258 12.0803 0.65625L11.5228 1.21374C11.4339 1.17141 11.3428 1.13367 11.25 1.10063V0.31251C11.25 0.139922 11.1101 0 10.9375 0H9.68751C9.51492 0 9.375 0.139922 9.375 0.31251V1.10063C9.28222 1.13355 9.19113 1.17123 9.10219 1.21345L8.5447 0.65625C8.42268 0.534258 8.22486 0.534258 8.10281 0.65625L7.21875 1.54031C7.09676 1.66233 7.09676 1.86015 7.21875 1.9822L7.77624 2.53969C7.73391 2.62863 7.69617 2.71969 7.66312 2.8125H6.87501C6.70242 2.8125 6.5625 2.95242 6.5625 3.12501V4.37502C6.5625 4.54761 6.70242 4.68753 6.87501 4.68753H7.66312C7.69605 4.78031 7.73373 4.8714 7.77595 4.96034L7.21875 5.51783C7.09676 5.63985 7.09676 5.83767 7.21875 5.95972L8.10281 6.84378C8.22483 6.96577 8.42265 6.96577 8.5447 6.84378L9.10219 6.28629C9.19113 6.32862 9.28219 6.36636 9.375 6.3994V7.18752C9.375 7.36011 9.51492 7.50003 9.68751 7.50003H10.9375C11.1101 7.50003 11.25 7.36011 11.25 7.18752V6.3997C11.3428 6.36665 11.4339 6.32889 11.5228 6.28658L12.0803 6.84378C12.2024 6.96577 12.4002 6.96577 12.5222 6.84378L13.4063 5.95972C13.5283 5.8377 13.5283 5.63988 13.4063 5.51783L12.8488 4.96034C12.8911 4.8714 12.9289 4.78034 12.9619 4.68753H13.75C13.9226 4.68753 14.0625 4.54761 14.0625 4.37502V3.12501C14.0625 2.95242 13.9226 2.8125 13.75 2.8125ZM13.4375 4.06219H12.731C12.5885 4.06222 12.4641 4.1586 12.4285 4.29656C12.3775 4.49399 12.2991 4.68334 12.1956 4.85906C12.1231 4.98187 12.1429 5.13823 12.2438 5.23907L12.7438 5.73908L12.3019 6.18097L11.8019 5.68096C11.7011 5.58006 11.5447 5.56025 11.4219 5.63282C11.2462 5.73627 11.0568 5.81464 10.8594 5.86564C10.7214 5.90127 10.625 6.02566 10.625 6.16813V6.87501H10L10.0003 6.16907C10.0003 6.0266 9.90393 5.90218 9.76597 5.86658C9.56854 5.81558 9.37919 5.73721 9.20347 5.63376C9.08065 5.56119 8.9243 5.581 8.82346 5.68189L8.32345 6.1819L7.88156 5.74002L8.38157 5.24001C8.48247 5.13917 8.50228 4.98281 8.42971 4.86C8.32626 4.68428 8.24789 4.49493 8.19688 4.2975C8.16126 4.15954 8.03687 4.06315 7.89439 4.06313H7.18752V3.43813H7.89472C8.03719 3.43811 8.16161 3.34172 8.19721 3.20376C8.24821 3.00633 8.32658 2.81698 8.43003 2.64126C8.5026 2.51845 8.48279 2.36209 8.38189 2.26125L7.88188 1.76124L8.32313 1.31906L8.82313 1.81907C8.92397 1.91997 9.08033 1.93978 9.20314 1.86721C9.37887 1.76376 9.56821 1.68539 9.76564 1.63438C9.9036 1.59876 9.99999 1.47437 10 1.33189V0.62499H10.625V1.33187C10.6248 1.47428 10.721 1.59879 10.8588 1.63468C11.0562 1.68568 11.2455 1.76405 11.4213 1.8675C11.5441 1.94007 11.7004 1.92026 11.8013 1.81937L12.3013 1.31936L12.7435 1.7606L12.2435 2.26063C12.1426 2.36147 12.1228 2.51783 12.1953 2.64064C12.2988 2.81637 12.3771 3.00571 12.4281 3.20314C12.4638 3.3411 12.5882 3.43749 12.7306 3.43752H13.4375V4.06219Z" fill="white"/>
    <path d="M10.3125 2.5C9.62216 2.5 9.0625 3.05966 9.0625 3.75001C9.0625 4.44036 9.62216 5.00001 10.3125 5.00001C11.0029 5.00001 11.5625 4.44036 11.5625 3.75001C11.5625 3.05966 11.0029 2.5 10.3125 2.5ZM10.3125 4.37499C9.96733 4.37499 9.68752 4.09518 9.68752 3.75001C9.68752 3.40483 9.96733 3.12502 10.3125 3.12502C10.6577 3.12502 10.9375 3.40483 10.9375 3.75001C10.9375 4.09518 10.6577 4.37499 10.3125 4.37499Z" fill="white"/>
  </g>
  <defs>
    <clipPath id="clip0">
      <rect width="15" height="15" fill="white"/>
    </clipPath>
  </defs>
</svg>
