<svg width="44" height="44" viewBox="0 0 44 44" fill="none" xmlns="http://www.w3.org/2000/svg">
  <path d="M43.9911 16.8206C43.9866 16.7701 43.9765 16.7201 43.9611 16.6717C43.951 16.6285 43.937 16.5863 43.9193 16.5456C43.8988 16.5058 43.8742 16.4682 43.846 16.4333C43.8177 16.392 43.785 16.3539 43.7484 16.3196C43.7367 16.3094 43.7316 16.2954 43.7191 16.2852L36.6663 10.8077V5.13069C36.6663 3.91564 35.6813 2.93058 34.4662 2.93058H26.5187L23.3365 0.459832C22.5504 -0.153277 21.448 -0.153277 20.6619 0.459832L17.479 2.93058H9.53147C8.31642 2.93058 7.33136 3.91556 7.33136 5.13069V10.8078L0.280772 16.2853C0.268311 16.2956 0.263154 16.3095 0.251466 16.3197C0.214941 16.3539 0.182197 16.3921 0.153922 16.4334C0.125733 16.4682 0.101154 16.5058 0.0806135 16.5457C0.0628235 16.5863 0.0489009 16.6286 0.0388457 16.6718C0.0235481 16.7195 0.0134929 16.7687 0.00876607 16.8185C0.00876607 16.8339 0 16.8472 0 16.8625V41.7992C0.0010313 42.2657 0.151945 42.7195 0.430483 43.0936C0.434866 43.1002 0.435639 43.1083 0.44071 43.1141C0.445866 43.12 0.456867 43.1266 0.464172 43.1346C0.876177 43.6768 1.51696 43.9964 2.19788 43.9993H41.7999C42.4835 43.9972 43.1269 43.6761 43.5394 43.131C43.5453 43.1237 43.5541 43.1215 43.5592 43.1142C43.5644 43.1069 43.565 43.1003 43.5695 43.0937C43.8481 42.7195 43.999 42.2657 44 41.7993V16.8646C43.9999 16.8492 43.9919 16.836 43.9911 16.8206ZM21.5588 1.61704C21.8149 1.41353 22.1776 1.41353 22.4337 1.61704L24.1255 2.93049H19.872L21.5588 1.61704ZM2.38265 42.5326L21.5589 27.6371C21.8151 27.4339 22.1776 27.4339 22.4337 27.6371L41.615 42.5326H2.38265ZM42.5332 41.3893L23.3365 26.4798C22.5502 25.8672 21.4482 25.8672 20.6619 26.4798L1.46445 41.3893V17.9815L13.4822 27.3137C13.8024 27.562 14.2633 27.5037 14.5115 27.1835C14.7598 26.8633 14.7016 26.4024 14.3813 26.1542L2.17218 16.6739L7.33144 12.6645V18.3313C7.33144 18.7363 7.65983 19.0646 8.06479 19.0646C8.46983 19.0646 8.79813 18.7362 8.79813 18.3313V5.1306C8.79813 4.72556 9.12642 4.39726 9.53147 4.39726H34.466C34.8711 4.39726 35.1994 4.72556 35.1994 5.1306V18.3313C35.1994 18.7363 35.5277 19.0646 35.9327 19.0646C36.3378 19.0646 36.6661 18.7362 36.6661 18.3313V12.6645L41.8253 16.6739L29.5949 26.1711C29.3846 26.3305 29.276 26.5907 29.3109 26.8524C29.3458 27.1141 29.5186 27.3369 29.7635 27.4356C30.0083 27.5344 30.2874 27.494 30.4941 27.3298L42.5331 17.9815V41.3893H42.5332Z" fill="#F1D261"/>
  <path d="M30.7991 17.5982V14.6647C30.7991 9.80435 26.859 5.86426 21.9987 5.86426C17.1383 5.86426 13.1982 9.80435 13.1982 14.6647C13.1982 19.5251 17.1383 23.4652 21.9987 23.4652C22.4037 23.4652 22.732 23.1369 22.732 22.7318C22.732 22.3268 22.4037 21.9985 21.9987 21.9985C17.9484 21.9985 14.665 18.7151 14.665 14.6648C14.665 10.6145 17.9484 7.33111 21.9987 7.33111C26.0489 7.33111 29.3323 10.6145 29.3323 14.6648V17.5982C29.3323 18.4083 28.6756 19.065 27.8656 19.065C27.0555 19.065 26.3988 18.4083 26.3988 17.5982V14.6648C26.3988 14.2597 26.0705 13.9314 25.6655 13.9314C25.2604 13.9314 24.9321 14.2597 24.9321 14.6648C24.9321 16.2849 23.6188 17.5982 21.9987 17.5982C20.3786 17.5982 19.0652 16.2849 19.0652 14.6648C19.0652 13.0447 20.3786 11.7313 21.9987 11.7313C22.4037 11.7313 22.732 11.403 22.732 10.998C22.732 10.593 22.4037 10.2647 21.9987 10.2647C20.0293 10.2603 18.2968 11.565 17.7571 13.4589C17.2174 15.3529 18.0018 17.3749 19.6776 18.4093C21.3535 19.4437 23.5125 19.2386 24.9637 17.9071C25.1233 19.458 26.4713 20.6112 28.0282 20.5288C29.5853 20.4463 30.804 19.1573 30.7991 17.5982Z" fill="#F1D261"/>
</svg>
