<svg width="15" height="15" fill="none" xmlns="http://www.w3.org/2000/svg"><path d="M.314 2.788c2.058 1.743 5.67 4.81 6.732 5.767.143.13.296.195.455.195a.672.672 0 00.453-.194c1.062-.957 4.675-4.025 6.734-5.768a.312.312 0 00.043-.431 1.241 1.241 0 00-.98-.482H1.25a1.24 1.24 0 00-.981.482.312.312 0 00.044.43zM14.819 3.733a.311.311 0 00-.334.045 897.101 897.101 0 00-4.464 3.805.312.312 0 00.008.48c1.245.998 3.121 2.37 4.476 3.344a.31.31 0 00.325.024.312.312 0 00.17-.278V4.016a.313.313 0 00-.181-.283zM.495 11.407c1.355-.975 3.231-2.346 4.476-3.343a.312.312 0 00.008-.481A902.26 902.26 0 00.515 3.778.313.313 0 000 4.016v7.137a.312.312 0 00.495.254z" fill="#F1D261"/><path d="M14.617 12.257C13.31 11.321 10.9 9.577 9.46 8.41a.313.313 0 00-.402.007c-.282.246-.518.453-.686.604-.514.465-1.228.465-1.744 0a54.28 54.28 0 00-.686-.604.311.311 0 00-.402-.008C4.107 9.572 1.694 11.32.384 12.258a.314.314 0 00-.047.466c.236.255.57.401.913.401h12.5c.344 0 .677-.146.914-.401a.313.313 0 00-.047-.467z" fill="#F1D261"/></svg>
