<svg width="15" height="15" viewBox="0 0 15 15" fill="none" xmlns="http://www.w3.org/2000/svg">
  <path d="M0.313701 2.78777C2.37239 4.53126 5.98476 7.59858 7.04647 8.55498C7.189 8.68406 7.34188 8.74969 7.50058 8.74969C7.65896 8.74969 7.81156 8.68468 7.95377 8.55621C9.0164 7.59888 12.6288 4.53126 14.6875 2.78777C14.8157 2.67943 14.8352 2.489 14.7314 2.35655C14.4915 2.05049 14.1339 1.875 13.7506 1.875H1.25059C0.867295 1.875 0.509609 2.05049 0.269756 2.35658C0.165986 2.489 0.185527 2.67943 0.313701 2.78777Z" fill="#F1D261"/>
  <path d="M14.8185 3.73275C14.7077 3.68118 14.5774 3.69917 14.4852 3.77792C13.1369 4.92079 11.3605 6.43081 10.0208 7.58315C9.9503 7.64359 9.91063 7.73239 9.91215 7.82546C9.91368 7.91825 9.95671 8.00581 10.0293 8.06379C11.2742 9.06079 13.1501 10.4323 14.5048 11.407C14.5588 11.4461 14.6228 11.4659 14.6872 11.4659C14.7361 11.4659 14.7849 11.4546 14.8298 11.4314C14.9342 11.378 14.9998 11.2706 14.9998 11.1534V4.01625C14.9997 3.8945 14.9289 3.78372 14.8185 3.73275Z" fill="#F1D261"/>
  <path d="M0.495 11.4067C1.84998 10.432 3.72621 9.06056 4.97071 8.06352C5.04334 8.00555 5.08638 7.91795 5.0879 7.82519C5.08942 7.73212 5.04976 7.64332 4.97927 7.58288C3.63952 6.43054 1.86278 4.92052 0.514541 3.77765C0.421758 3.6989 0.291152 3.68153 0.181289 3.73248C0.0708106 3.78345 0 3.89423 0 4.01598V11.1531C0 11.2703 0.065625 11.3778 0.16998 11.4312C0.214834 11.4544 0.263672 11.4657 0.31251 11.4657C0.376904 11.4657 0.440977 11.4458 0.495 11.4067Z" fill="#F1D261"/>
  <path d="M14.6173 12.2571C13.309 11.3212 10.899 9.57616 9.46042 8.40853C9.34324 8.31302 9.17355 8.31607 9.05821 8.41556C8.77593 8.66183 8.53971 8.86937 8.37216 9.0201C7.85762 9.48458 7.14351 9.48458 6.62777 9.01949C6.46083 8.86905 6.22464 8.66089 5.94234 8.41553C5.82791 8.31542 5.65792 8.31238 5.54041 8.4085C4.10668 9.57215 1.69397 11.3193 0.383549 12.2571C0.3106 12.3096 0.263608 12.3905 0.254467 12.4799C0.24562 12.5693 0.27521 12.6581 0.336557 12.724C0.5731 12.9789 0.906352 13.1251 1.2503 13.1251H13.7503C14.0943 13.1251 14.4272 12.9789 14.6643 12.724C14.7253 12.6584 14.7552 12.5696 14.7464 12.4802C14.7372 12.3908 14.6902 12.3096 14.6173 12.2571Z" fill="#F1D261"/>
</svg>
