<svg width="16" height="16" fill="none" xmlns="http://www.w3.org/2000/svg"><path d="M.021 5.842a.681.681 0 01.042-.12l.022-.042a.667.667 0 01.166-.198c.009-.006.015-.015.023-.021L7.608.127c.233-.17.55-.17.784 0l7.334 5.334c.008.006.014.015.023.021a.655.655 0 01.166.198l.022.041a.678.678 0 01.042.12c.002.007.005.013.006.02.01.045.015.091.015.139v9.333a.667.667 0 01-.667.667h-2a.667.667 0 010-1.334h1.334V7.215L8.37 11.22l-.024.015-5.39 3.43h7.71a.667.667 0 010 1.334H.664c-.05-.001-.1-.008-.147-.02-.014-.003-.027-.008-.04-.012a.643.643 0 01-.235-.126l-.034-.028a.658.658 0 01-.098-.117l-.005-.006c-.008-.013-.013-.028-.02-.042-.013-.022-.025-.044-.035-.068-.008-.021-.014-.043-.02-.064-.006-.02-.012-.04-.016-.061-.005-.026-.007-.053-.008-.08-.002-.014-.005-.028-.005-.043V6c0-.048.005-.094.015-.139.001-.007.004-.013.006-.02zm14.128.121L8 1.491 1.85 5.963 8 9.876l6.15-3.913zM1.333 7.215v6.903l5.425-3.452-5.425-3.451z" fill="#F1D261"/></svg>