<svg width="15" height="18" viewBox="0 0 15 18" fill="none" xmlns="http://www.w3.org/2000/svg">
<path d="M10.8005 6.4209H5.39787C5.24931 6.4209 5.12891 6.54133 5.12891 6.68989C5.12891 6.83845 5.24934 6.95885 5.39787 6.95885H10.8005C10.949 6.95885 11.0695 6.83842 11.0695 6.68989C11.0695 6.54136 10.9491 6.4209 10.8005 6.4209Z" fill="#F31D42"/>
<path d="M11.0695 7.74748C11.0695 7.59895 10.9491 7.47852 10.8005 7.47852H5.39787C5.24931 7.47852 5.12891 7.59895 5.12891 7.74748C5.12891 7.896 5.24934 8.01647 5.39787 8.01647H10.8005C10.9491 8.01644 11.0695 7.896 11.0695 7.74748Z" fill="#F31D42"/>
<path d="M10.6291 9.68205C10.6291 9.53352 10.5087 9.41309 10.3602 9.41309H5.39787C5.24931 9.41309 5.12891 9.53352 5.12891 9.68205C5.12891 9.83057 5.24934 9.95101 5.39787 9.95101H10.3602C10.5087 9.95101 10.6291 9.83057 10.6291 9.68205Z" fill="#F31D42"/>
<path d="M10.123 10.7397C10.123 10.5911 10.0026 10.4707 9.85403 10.4707H5.39787C5.24931 10.4707 5.12891 10.5911 5.12891 10.7397C5.12891 10.8882 5.24934 11.0087 5.39787 11.0087H9.854C10.0026 11.0087 10.123 10.8882 10.123 10.7397Z" fill="#F31D42"/>
<path d="M5.39787 12.4062C5.24931 12.4062 5.12891 12.5267 5.12891 12.6752C5.12891 12.8237 5.24934 12.9442 5.39787 12.9442H8.92726C9.07579 12.9442 9.19622 12.8238 9.19622 12.6752C9.19622 12.5267 9.07579 12.4062 8.92726 12.4062H5.39787Z" fill="#F31D42"/>
<path d="M8.42111 13.4629H5.39787C5.24931 13.4629 5.12891 13.5833 5.12891 13.7318C5.12891 13.8804 5.24934 14.0008 5.39787 14.0008H8.42111C8.56964 14.0008 8.69007 13.8804 8.69007 13.7318C8.6901 13.5833 8.56967 13.4629 8.42111 13.4629Z" fill="#F31D42"/>
<path d="M14.3898 5.92921C13.8568 5.67406 13.2154 5.9 12.9601 6.43304L8.90727 14.8967C8.85152 15.0133 8.81982 15.1377 8.81322 15.2665L8.73499 16.7729C8.72549 16.9556 8.82598 17.1247 8.99102 17.2037C9.15535 17.2824 9.35009 17.2557 9.48723 17.1331L10.4193 16.2999H11.7279C12.3939 16.2999 12.9358 15.758 12.9358 15.092V11.4477C13.1566 10.9865 14.6474 7.87328 14.8937 7.35894C15.1489 6.8259 14.9229 6.18449 14.3898 5.92921ZM13.9277 6.36209C14.0049 6.36209 14.0833 6.3789 14.1575 6.41444C14.2862 6.47603 14.3831 6.58403 14.4305 6.71854C14.4779 6.85302 14.47 6.99794 14.4085 7.1266L14.194 7.5744L13.2308 7.11319L13.4453 6.66538C13.537 6.47404 13.7285 6.36209 13.9277 6.36209ZM13.7992 8.39904L12.836 7.93782L12.9985 7.59842L13.9617 8.05964L13.7992 8.39904ZM10.4718 15.3476L9.50869 14.8864L12.6037 8.42302L13.5668 8.8842C13.4689 9.08868 10.5426 15.1997 10.4718 15.3476ZM9.28295 16.5941L9.3447 15.4043L10.1711 15.8001L9.28295 16.5941ZM12.3978 15.0919C12.3978 15.4614 12.0973 15.7619 11.7279 15.7619H10.8699L12.3978 12.5711V15.0919Z" fill="#F31D42"/>
<path d="M7.88153 15.7616H1.20789C0.838479 15.7616 0.537954 15.461 0.537954 15.0916V3.66007C0.537954 3.61941 0.541558 3.57932 0.548599 3.54014H2.68903C3.15829 3.54014 3.54011 3.15836 3.54011 2.6891V0.548599C3.57928 0.541558 3.61937 0.537954 3.66003 0.537954H11.7291C12.0985 0.537954 12.399 0.838479 12.399 1.20789V6.15495C12.399 6.30348 12.5195 6.42395 12.668 6.42395C12.8165 6.42395 12.937 6.30352 12.937 6.15495V1.20789C12.937 0.541862 12.3952 0 11.7291 0H3.66007C3.33741 0 3.03409 0.125654 2.80596 0.353785L0.353785 2.80596C0.125654 3.03409 0 3.33741 0 3.66003V15.0916C0 15.7576 0.541862 16.2995 1.20789 16.2995H7.88153C8.03006 16.2995 8.15049 16.1791 8.15049 16.0305C8.15053 15.882 8.03006 15.7616 7.88153 15.7616ZM3.00219 0.918352V2.68906C3.00219 2.86171 2.86171 3.00215 2.68906 3.00215H0.918385L3.00219 0.918352Z" fill="#F31D42"/>
<path d="M4.23527 6.63908C4.23527 6.28614 3.94816 5.99902 3.59518 5.99902H2.51119C2.15824 5.99902 1.87109 6.28614 1.87109 6.63908V7.72311C1.87109 8.07605 2.15821 8.36317 2.51119 8.36317H3.59518C3.94812 8.36317 4.23527 8.07605 4.23527 7.72311V6.63908ZM3.69732 7.72311C3.69732 7.77944 3.65151 7.82522 3.59518 7.82522H2.51119C2.45486 7.82522 2.40905 7.7794 2.40905 7.72311V6.63908C2.40905 6.58276 2.45486 6.53698 2.51119 6.53698H3.59518C3.65151 6.53698 3.69732 6.58279 3.69732 6.63908V7.72311Z" fill="#F31D42"/>
<path d="M4.23527 9.66939C4.23527 9.31641 3.94816 9.0293 3.59518 9.0293H2.51119C2.15824 9.0293 1.87109 9.31641 1.87109 9.66939V10.7534C1.87109 11.1064 2.15821 11.3935 2.51119 11.3935H3.59518C3.94812 11.3935 4.23527 11.1064 4.23527 10.7534V9.66939ZM3.69732 10.7534C3.69732 10.8097 3.65151 10.8555 3.59518 10.8555H2.51119C2.45486 10.8555 2.40905 10.8097 2.40905 10.7534V9.66939C2.40905 9.61306 2.45486 9.56725 2.51119 9.56725H3.59518C3.65151 9.56725 3.69732 9.6131 3.69732 9.66939V10.7534Z" fill="#F31D42"/>
<path d="M3.59518 12.0586H2.51119C2.15824 12.0586 1.87109 12.3457 1.87109 12.6987V13.7827C1.87109 14.1356 2.15821 14.4227 2.51119 14.4227H3.59518C3.94812 14.4227 4.23527 14.1356 4.23527 13.7827V12.6987C4.23527 12.3457 3.94816 12.0586 3.59518 12.0586ZM3.69732 13.7827C3.69732 13.839 3.65151 13.8848 3.59518 13.8848H2.51119C2.45486 13.8848 2.40905 13.839 2.40905 13.7827V12.6987C2.40905 12.6423 2.45486 12.5965 2.51119 12.5965H3.59518C3.65151 12.5965 3.69732 12.6424 3.69732 12.6987V13.7827Z" fill="#F31D42"/>
<path d="M7.09494 5.06472C7.4874 5.41486 8.00467 5.62793 8.57079 5.62793C9.13697 5.62793 9.65431 5.41479 10.0468 5.06458C10.0601 5.05454 10.0723 5.04336 10.0834 5.0312C10.518 4.6258 10.7901 4.04843 10.7901 3.40868C10.7901 2.18498 9.79451 1.18945 8.57082 1.18945C7.34713 1.18945 6.35156 2.18498 6.35156 3.40868C6.35156 4.04837 6.62362 4.62567 7.05809 5.03106C7.06921 5.04332 7.08153 5.05461 7.09494 5.06472ZM7.57741 4.76436C7.69582 4.51851 7.90465 4.32103 8.15795 4.21788C8.28616 4.27916 8.4266 4.31109 8.57079 4.31109C8.715 4.31109 8.85545 4.27916 8.98366 4.21788C9.23695 4.32103 9.44578 4.51847 9.56416 4.76432C9.28567 4.96898 8.94209 5.08998 8.57075 5.08998C8.19948 5.08998 7.85591 4.96898 7.57741 4.76436ZM8.80673 3.70088C8.80636 3.70115 8.80596 3.70139 8.80559 3.70166C8.73619 3.74845 8.65504 3.77314 8.57079 3.77314C8.4863 3.77314 8.40484 3.74825 8.33531 3.70118C8.21909 3.62256 8.14969 3.49202 8.14969 3.35198C8.14969 3.11977 8.33858 2.93089 8.57079 2.93089C8.80299 2.93089 8.99191 3.11977 8.99191 3.35198C8.99191 3.49182 8.92272 3.62222 8.80673 3.70088ZM8.57079 1.72741C9.49786 1.72741 10.2521 2.4816 10.2521 3.40868C10.2521 3.76189 10.1426 4.08997 9.95581 4.36082C9.81725 4.14134 9.6285 3.95832 9.40435 3.82654C9.48547 3.68407 9.52987 3.52109 9.52987 3.35202C9.52987 2.82319 9.09961 2.39297 8.57079 2.39297C8.04196 2.39297 7.61174 2.82319 7.61174 3.35202C7.61174 3.52109 7.65614 3.68407 7.73723 3.82654C7.51307 3.95835 7.32432 4.14134 7.18576 4.36082C6.99897 4.08994 6.88948 3.76186 6.88948 3.40868C6.88952 2.4816 7.64371 1.72741 8.57079 1.72741Z" fill="#F31D42"/>
</svg>
