<svg width="15" height="18" viewBox="0 0 15 18" fill="none" xmlns="http://www.w3.org/2000/svg">
<path d="M10.7986 6.42188H5.39591C5.24735 6.42188 5.12695 6.54231 5.12695 6.69087C5.12695 6.83943 5.24739 6.95983 5.39591 6.95983H10.7986C10.9471 6.95983 11.0676 6.8394 11.0676 6.69087C11.0676 6.54234 10.9471 6.42188 10.7986 6.42188Z" fill="white"/>
<path d="M11.0676 7.74748C11.0676 7.59895 10.9471 7.47852 10.7986 7.47852H5.39591C5.24735 7.47852 5.12695 7.59895 5.12695 7.74748C5.12695 7.896 5.24739 8.01647 5.39591 8.01647H10.7986C10.9471 8.01644 11.0676 7.896 11.0676 7.74748Z" fill="white"/>
<path d="M10.6272 9.68302C10.6272 9.53449 10.5068 9.41406 10.3582 9.41406H5.39591C5.24735 9.41406 5.12695 9.53449 5.12695 9.68302C5.12695 9.83155 5.24739 9.95198 5.39591 9.95198H10.3582C10.5068 9.95198 10.6272 9.83155 10.6272 9.68302Z" fill="white"/>
<path d="M10.121 10.7397C10.121 10.5911 10.0006 10.4707 9.85208 10.4707H5.39591C5.24735 10.4707 5.12695 10.5911 5.12695 10.7397C5.12695 10.8882 5.24739 11.0087 5.39591 11.0087H9.85205C10.0006 11.0087 10.121 10.8882 10.121 10.7397Z" fill="white"/>
<path d="M5.39591 12.4062C5.24735 12.4062 5.12695 12.5267 5.12695 12.6752C5.12695 12.8237 5.24739 12.9442 5.39591 12.9442H8.92531C9.07383 12.9442 9.19427 12.8238 9.19427 12.6752C9.19427 12.5267 9.07383 12.4062 8.92531 12.4062H5.39591Z" fill="white"/>
<path d="M8.41915 13.4629H5.39591C5.24735 13.4629 5.12695 13.5833 5.12695 13.7318C5.12695 13.8804 5.24739 14.0008 5.39591 14.0008H8.41915C8.56768 14.0008 8.68811 13.8804 8.68811 13.7318C8.68815 13.5833 8.56772 13.4629 8.41915 13.4629Z" fill="white"/>
<path d="M14.3918 5.92921C13.8587 5.67406 13.2174 5.9 12.9621 6.43304L8.90922 14.8967C8.85347 15.0133 8.82177 15.1377 8.81517 15.2665L8.73695 16.7729C8.72745 16.9556 8.82794 17.1247 8.99297 17.2037C9.1573 17.2824 9.35205 17.2557 9.48919 17.1331L10.4212 16.2999H11.7299C12.3959 16.2999 12.9378 15.758 12.9378 15.092V11.4477C13.1586 10.9865 14.6494 7.87328 14.8957 7.35894C15.1509 6.8259 14.9249 6.18449 14.3918 5.92921ZM13.9297 6.36209C14.0069 6.36209 14.0853 6.3789 14.1595 6.41444C14.2881 6.47603 14.385 6.58403 14.4324 6.71854C14.4798 6.85302 14.472 6.99794 14.4104 7.1266L14.196 7.5744L13.2328 7.11319L13.4473 6.66538C13.5389 6.47404 13.7304 6.36209 13.9297 6.36209ZM13.8011 8.39904L12.8379 7.93782L13.0005 7.59842L13.9636 8.05964L13.8011 8.39904ZM10.4738 15.3476L9.51065 14.8864L12.6056 8.42302L13.5688 8.8842C13.4709 9.08868 10.5445 15.1997 10.4738 15.3476ZM9.28491 16.5941L9.34666 15.4043L10.1731 15.8001L9.28491 16.5941ZM12.3998 15.0919C12.3998 15.4614 12.0993 15.7619 11.7298 15.7619H10.8719L12.3998 12.5711V15.0919Z" fill="white"/>
<path d="M7.88153 15.7616H1.20789C0.838479 15.7616 0.537954 15.461 0.537954 15.0916V3.66007C0.537954 3.61941 0.541558 3.57932 0.548599 3.54014H2.68903C3.15829 3.54014 3.54011 3.15836 3.54011 2.6891V0.548599C3.57928 0.541558 3.61937 0.537954 3.66003 0.537954H11.7291C12.0985 0.537954 12.399 0.838479 12.399 1.20789V6.15495C12.399 6.30348 12.5195 6.42395 12.668 6.42395C12.8165 6.42395 12.937 6.30352 12.937 6.15495V1.20789C12.937 0.541862 12.3952 0 11.7291 0H3.66007C3.33741 0 3.03409 0.125654 2.80596 0.353785L0.353785 2.80596C0.125654 3.03409 0 3.33741 0 3.66003V15.0916C0 15.7576 0.541862 16.2995 1.20789 16.2995H7.88153C8.03006 16.2995 8.15049 16.1791 8.15049 16.0305C8.15053 15.882 8.03006 15.7616 7.88153 15.7616ZM3.00219 0.918352V2.68906C3.00219 2.86171 2.86171 3.00215 2.68906 3.00215H0.918385L3.00219 0.918352Z" fill="white"/>
<path d="M4.23332 6.64006C4.23332 6.28712 3.9462 6 3.59323 6H2.50923C2.15629 6 1.86914 6.28712 1.86914 6.64006V7.72409C1.86914 8.07703 2.15626 8.36415 2.50923 8.36415H3.59323C3.94617 8.36415 4.23332 8.07703 4.23332 7.72409V6.64006ZM3.69537 7.72409C3.69537 7.78041 3.64955 7.82619 3.59323 7.82619H2.50923C2.45291 7.82619 2.40709 7.78038 2.40709 7.72409V6.64006C2.40709 6.58374 2.45291 6.53795 2.50923 6.53795H3.59323C3.64955 6.53795 3.69537 6.58377 3.69537 6.64006V7.72409Z" fill="white"/>
<path d="M4.23332 9.66939C4.23332 9.31641 3.9462 9.0293 3.59323 9.0293H2.50923C2.15629 9.0293 1.86914 9.31641 1.86914 9.66939V10.7534C1.86914 11.1064 2.15626 11.3935 2.50923 11.3935H3.59323C3.94617 11.3935 4.23332 11.1064 4.23332 10.7534V9.66939ZM3.69537 10.7534C3.69537 10.8097 3.64955 10.8555 3.59323 10.8555H2.50923C2.45291 10.8555 2.40709 10.8097 2.40709 10.7534V9.66939C2.40709 9.61306 2.45291 9.56725 2.50923 9.56725H3.59323C3.64955 9.56725 3.69537 9.6131 3.69537 9.66939V10.7534Z" fill="white"/>
<path d="M3.59323 12.0586H2.50923C2.15629 12.0586 1.86914 12.3457 1.86914 12.6987V13.7827C1.86914 14.1356 2.15626 14.4227 2.50923 14.4227H3.59323C3.94617 14.4227 4.23332 14.1356 4.23332 13.7827V12.6987C4.23332 12.3457 3.9462 12.0586 3.59323 12.0586ZM3.69537 13.7827C3.69537 13.839 3.64955 13.8848 3.59323 13.8848H2.50923C2.45291 13.8848 2.40709 13.839 2.40709 13.7827V12.6987C2.40709 12.6423 2.45291 12.5965 2.50923 12.5965H3.59323C3.64955 12.5965 3.69537 12.6424 3.69537 12.6987V13.7827Z" fill="white"/>
<path d="M7.0969 5.06472C7.48935 5.41486 8.00662 5.62793 8.57274 5.62793C9.13892 5.62793 9.65626 5.41479 10.0488 5.06458C10.062 5.05454 10.0743 5.04336 10.0853 5.0312C10.5199 4.6258 10.792 4.04843 10.792 3.40868C10.792 2.18498 9.79647 1.18945 8.57277 1.18945C7.34908 1.18945 6.35352 2.18498 6.35352 3.40868C6.35352 4.04837 6.62558 4.62567 7.06004 5.03106C7.07116 5.04332 7.08349 5.05461 7.0969 5.06472ZM7.57937 4.76436C7.69778 4.51851 7.90661 4.32103 8.1599 4.21788C8.28811 4.27916 8.42856 4.31109 8.57274 4.31109C8.71696 4.31109 8.8574 4.27916 8.98561 4.21788C9.23891 4.32103 9.44774 4.51847 9.56611 4.76432C9.28762 4.96898 8.94404 5.08998 8.57271 5.08998C8.20144 5.08998 7.85786 4.96898 7.57937 4.76436ZM8.80869 3.70088C8.80832 3.70115 8.80791 3.70139 8.80754 3.70166C8.73814 3.74845 8.65699 3.77314 8.57274 3.77314C8.48825 3.77314 8.4068 3.74825 8.33727 3.70118C8.22104 3.62256 8.15165 3.49202 8.15165 3.35198C8.15165 3.11977 8.34053 2.93089 8.57274 2.93089C8.80495 2.93089 8.99387 3.11977 8.99387 3.35198C8.99387 3.49182 8.92467 3.62222 8.80869 3.70088ZM8.57274 1.72741C9.49982 1.72741 10.254 2.4816 10.254 3.40868C10.254 3.76189 10.1446 4.08997 9.95776 4.36082C9.81921 4.14134 9.63046 3.95832 9.4063 3.82654C9.48742 3.68407 9.53182 3.52109 9.53182 3.35202C9.53182 2.82319 9.10156 2.39297 8.57274 2.39297C8.04391 2.39297 7.61369 2.82319 7.61369 3.35202C7.61369 3.52109 7.65809 3.68407 7.73918 3.82654C7.51502 3.95835 7.32627 4.14134 7.18772 4.36082C7.00092 4.08994 6.89144 3.76186 6.89144 3.40868C6.89147 2.4816 7.64566 1.72741 8.57274 1.72741Z" fill="white"/>
</svg>
