<svg width="14" height="15" viewBox="0 0 14 15" fill="none" xmlns="http://www.w3.org/2000/svg">
  <path d="M9.35878 5.56543H4.67646C4.54771 5.56543 4.44336 5.6698 4.44336 5.79856C4.44336 5.92731 4.54773 6.03166 4.67646 6.03166H9.35875C9.48748 6.03166 9.59188 5.92728 9.59188 5.79856C9.59188 5.66983 9.48751 5.56543 9.35878 5.56543Z" fill="#F3EFEF"/>
  <path d="M9.59188 6.71454C9.59188 6.58582 9.48751 6.48145 9.35875 6.48145H4.67646C4.54771 6.48145 4.44336 6.58582 4.44336 6.71454C4.44336 6.84327 4.54773 6.94767 4.67646 6.94767H9.35875C9.48751 6.94764 9.59188 6.84327 9.59188 6.71454Z" fill="#F3EFEF"/>
  <path d="M9.21023 8.39228C9.21023 8.26355 9.10586 8.15918 8.97714 8.15918H4.67646C4.54771 8.15918 4.44336 8.26355 4.44336 8.39228C4.44336 8.521 4.54773 8.62538 4.67646 8.62538H8.97711C9.10586 8.62538 9.21023 8.521 9.21023 8.39228Z" fill="#F3EFEF"/>
  <path d="M8.77157 9.30732C8.77157 9.17859 8.66719 9.07422 8.53847 9.07422H4.67646C4.54771 9.07422 4.44336 9.17859 4.44336 9.30732C4.44336 9.43604 4.54773 9.54045 4.67646 9.54045H8.53844C8.66719 9.54045 8.77157 9.43607 8.77157 9.30732Z" fill="#F3EFEF"/>
  <path d="M4.67646 10.752C4.54771 10.752 4.44336 10.8563 4.44336 10.9851C4.44336 11.1138 4.54773 11.2182 4.67646 11.2182H7.73527C7.86399 11.2182 7.96837 11.1138 7.96837 10.9851C7.96837 10.8563 7.86399 10.752 7.73527 10.752H4.67646Z" fill="#F3EFEF"/>
  <path d="M7.2966 11.668H4.67646C4.54771 11.668 4.44336 11.7723 4.44336 11.9011C4.44336 12.0298 4.54773 12.1342 4.67646 12.1342H7.2966C7.42532 12.1342 7.5297 12.0298 7.5297 11.9011C7.52973 11.7723 7.42535 11.668 7.2966 11.668Z" fill="#F3EFEF"/>
  <path d="M12.4737 5.13885C12.0117 4.91772 11.4559 5.11353 11.2346 5.5755L7.72211 12.9107C7.67379 13.0117 7.64632 13.1196 7.64059 13.2312L7.5728 14.5367C7.56457 14.695 7.65166 14.8416 7.79469 14.9101C7.93711 14.9783 8.10589 14.9551 8.22474 14.8489L9.0325 14.1268H10.1667C10.7439 14.1268 11.2135 13.6571 11.2135 13.0799V9.92152C11.4049 9.52185 12.6969 6.8237 12.9104 6.37794C13.1316 5.91598 12.9357 5.36009 12.4737 5.13885ZM12.0732 5.51401C12.1401 5.51401 12.208 5.52858 12.2723 5.55938C12.3838 5.61275 12.4678 5.70635 12.5089 5.82293C12.55 5.93948 12.5432 6.06508 12.4898 6.17658L12.3039 6.56468L11.4692 6.16496L11.6551 5.77686C11.7345 5.61103 11.9005 5.51401 12.0732 5.51401ZM11.9617 7.27936L11.127 6.87964L11.2679 6.58549L12.1026 6.98521L11.9617 7.27936ZM9.07805 13.3014L8.24334 12.9017L10.9256 7.30015L11.7604 7.69984C11.6755 7.87705 9.13939 13.1733 9.07805 13.3014ZM8.0477 14.3817L8.10122 13.3506L8.81745 13.6936L8.0477 14.3817ZM10.7473 13.0799C10.7473 13.4 10.4868 13.6605 10.1666 13.6605H9.42305L10.7473 10.8951V13.0799Z" fill="#F3EFEF"/>
  <path d="M6.83066 13.66H1.04684C0.726682 13.66 0.466227 13.3996 0.466227 13.0794V3.17206C0.466227 3.13682 0.469351 3.10208 0.475453 3.06812H2.33049C2.73719 3.06812 3.06809 2.73725 3.06809 2.33055V0.475453C3.10205 0.469351 3.13679 0.466227 3.17203 0.466227H10.1652C10.4854 0.466227 10.7458 0.726682 10.7458 1.04684V5.33429C10.7458 5.46302 10.8502 5.56742 10.9789 5.56742C11.1077 5.56742 11.212 5.46305 11.212 5.33429V1.04684C11.2121 0.469613 10.7425 0 10.1653 0H3.17206C2.89242 0 2.62954 0.1089 2.43183 0.306614L0.306614 2.43183C0.1089 2.62954 0 2.89242 0 3.17203V13.0794C0 13.6566 0.469613 14.1262 1.04684 14.1262H6.83066C6.95939 14.1262 7.06376 14.0219 7.06376 13.8931C7.06379 13.7644 6.95939 13.66 6.83066 13.66ZM2.60189 0.795905V2.33052C2.60189 2.48015 2.48015 2.60187 2.33052 2.60187H0.795934L2.60189 0.795905Z" fill="#F3EFEF"/>
  <path d="M3.6681 5.75491C3.6681 5.44903 3.41926 5.2002 3.11335 5.2002H2.17389C1.86801 5.2002 1.61914 5.44903 1.61914 5.75491V6.6944C1.61914 7.00029 1.86798 7.24912 2.17389 7.24912H3.11335C3.41923 7.24912 3.6681 7.00029 3.6681 6.6944V5.75491ZM3.20187 6.6944C3.20187 6.74322 3.16216 6.7829 3.11335 6.7829H2.17389C2.12507 6.7829 2.08537 6.74319 2.08537 6.6944V5.75491C2.08537 5.7061 2.12507 5.66642 2.17389 5.66642H3.11335C3.16216 5.66642 3.20187 5.70613 3.20187 5.75491V6.6944Z" fill="#F3EFEF"/>
  <path d="M3.6681 8.37994C3.6681 8.07403 3.41926 7.8252 3.11335 7.8252H2.17389C1.86801 7.8252 1.61914 8.07403 1.61914 8.37994V9.3194C1.61914 9.62532 1.86798 9.87415 2.17389 9.87415H3.11335C3.41923 9.87415 3.6681 9.62532 3.6681 9.3194V8.37994ZM3.20187 9.3194C3.20187 9.36822 3.16216 9.40793 3.11335 9.40793H2.17389C2.12507 9.40793 2.08537 9.36819 2.08537 9.3194V8.37994C2.08537 8.33113 2.12507 8.29142 2.17389 8.29142H3.11335C3.16216 8.29142 3.20187 8.33116 3.20187 8.37994V9.3194Z" fill="#F3EFEF"/>
  <path d="M3.11335 10.4512H2.17389C1.86801 10.4512 1.61914 10.7 1.61914 11.0059V11.9454C1.61914 12.2513 1.86798 12.5001 2.17389 12.5001H3.11335C3.41923 12.5001 3.6681 12.2513 3.6681 11.9454V11.0059C3.6681 10.7 3.41926 10.4512 3.11335 10.4512ZM3.20187 11.9454C3.20187 11.9942 3.16216 12.0339 3.11335 12.0339H2.17389C2.12507 12.0339 2.08537 11.9942 2.08537 11.9454V11.0059C2.08537 10.9571 2.12507 10.9174 2.17389 10.9174H3.11335C3.16216 10.9174 3.20187 10.9571 3.20187 11.0059V11.9454Z" fill="#F3EFEF"/>
  <path d="M6.15012 4.38981C6.49025 4.69327 6.93855 4.87793 7.42919 4.87793C7.91988 4.87793 8.36824 4.69321 8.7084 4.38969C8.7199 4.38099 8.7305 4.3713 8.7401 4.36076C9.11673 4.00942 9.35257 3.50903 9.35257 2.95458C9.35257 1.89404 8.48975 1.03125 7.42922 1.03125C6.36868 1.03125 5.50586 1.89404 5.50586 2.95458C5.50586 3.50898 5.74164 4.0093 6.11818 4.36064C6.12782 4.37127 6.1385 4.38105 6.15012 4.38981ZM6.56826 4.1295C6.67089 3.91643 6.85187 3.74529 7.07139 3.65589C7.18251 3.709 7.30423 3.73667 7.42919 3.73667C7.55417 3.73667 7.67589 3.709 7.78701 3.65589C8.00653 3.74529 8.18752 3.9164 8.29011 4.12947C8.04875 4.30684 7.75098 4.41171 7.42916 4.41171C7.10739 4.41171 6.80962 4.30684 6.56826 4.1295ZM7.63367 3.20782C7.63335 3.20805 7.633 3.20826 7.63268 3.20849C7.57254 3.24905 7.50221 3.27045 7.42919 3.27045C7.35596 3.27045 7.28537 3.24887 7.22511 3.20808C7.12438 3.13994 7.06424 3.02681 7.06424 2.90544C7.06424 2.70419 7.22794 2.54049 7.42919 2.54049C7.63043 2.54049 7.79416 2.70419 7.79416 2.90544C7.79416 3.02663 7.73419 3.13965 7.63367 3.20782ZM7.42919 1.49748C8.23265 1.49748 8.88632 2.15111 8.88632 2.95458C8.88632 3.26069 8.79143 3.54503 8.62954 3.77977C8.50946 3.58956 8.34587 3.43093 8.15161 3.31672C8.22191 3.19325 8.26039 3.052 8.26039 2.90547C8.26039 2.44716 7.8875 2.0743 7.42919 2.0743C6.97087 2.0743 6.59801 2.44716 6.59801 2.90547C6.59801 3.052 6.63649 3.19325 6.70677 3.31672C6.5125 3.43096 6.34892 3.58956 6.22883 3.77977C6.06694 3.545 5.97206 3.26067 5.97206 2.95458C5.97209 2.15111 6.62572 1.49748 7.42919 1.49748Z" fill="#F3EFEF"/>
</svg>
