<svg width="15" height="15" viewBox="0 0 15 15" fill="none" xmlns="http://www.w3.org/2000/svg">
<path d="M5.89286 9.10742H9.10714C9.25507 9.10742 9.375 9.22736 9.375 9.37528V14.7324C9.375 14.8803 9.25507 15.0003 9.10714 15.0003H5.89286C5.74493 15.0003 5.625 14.8803 5.625 14.7324V9.37528C5.625 9.22736 5.74493 9.10742 5.89286 9.10742Z" fill="white"/>
<path d="M11.5179 6.42773H14.7321C14.8801 6.42773 15 6.54767 15 6.69559V14.7313C15 14.8792 14.8801 14.9992 14.7321 14.9992H11.5179C11.3699 14.9992 11.25 14.8792 11.25 14.7313V6.69559C11.25 6.54767 11.3699 6.42773 11.5179 6.42773Z" fill="white"/>
<path d="M0.267857 7.76758H3.48214C3.63007 7.76758 3.75 7.88751 3.75 8.03544V14.7319C3.75 14.8798 3.63007 14.9997 3.48214 14.9997H0.267857C0.119934 14.9997 0 14.8798 0 14.7319V8.03544C0 7.88751 0.119934 7.76758 0.267857 7.76758Z" fill="white"/>
<path d="M6.15988 1.07115C6.15988 1.51492 5.80008 1.87472 5.35631 1.87472C4.91254 1.87472 4.55273 1.51492 4.55273 1.07115C4.55273 0.62738 4.91254 0.267578 5.35631 0.267578C5.80008 0.267578 6.15988 0.62738 6.15988 1.07115Z" fill="white"/>
<path d="M1.39844 4.42814L4.39391 1.61133L4.76091 2.0016L1.76543 4.81829L1.39844 4.42814Z" fill="white"/>
<path d="M11.0156 3.60693L13.2494 1.37305L13.6283 1.75194L11.3944 3.9857L11.0156 3.60693Z" fill="white"/>
<path d="M6.08984 1.89728L6.39236 1.45508L9.71363 3.72702L9.41125 4.16922L6.08984 1.89728Z" fill="white"/>
<path d="M11.2497 4.55357C11.2497 4.99734 10.8899 5.35714 10.4461 5.35714C10.0024 5.35714 9.64258 4.99734 9.64258 4.55357C9.64258 4.1098 10.0024 3.75 10.4461 3.75C10.8899 3.75 11.2497 4.1098 11.2497 4.55357Z" fill="white"/>
<path d="M14.9997 0.803571C14.9997 1.24734 14.6399 1.60714 14.1961 1.60714C13.7524 1.60714 13.3926 1.24734 13.3926 0.803571C13.3926 0.359802 13.7524 0 14.1961 0C14.6399 0 14.9997 0.359802 14.9997 0.803571Z" fill="white"/>
<path d="M1.60714 5.35631C1.60714 5.80008 1.24734 6.15988 0.803571 6.15988C0.359802 6.15988 0 5.80008 0 5.35631C0 4.91254 0.359802 4.55273 0.803571 4.55273C1.24734 4.55273 1.60714 4.91254 1.60714 5.35631Z" fill="white"/>
</svg>
