<svg width="15" height="15" viewBox="0 0 15 15" fill="none" xmlns="http://www.w3.org/2000/svg">
<g clip-path="url(#clip0)">
<path d="M5.89286 9.10693H9.10714C9.25507 9.10693 9.375 9.22687 9.375 9.37479V14.7319C9.375 14.8799 9.25507 14.9998 9.10714 14.9998H5.89286C5.74493 14.9998 5.625 14.8799 5.625 14.7319V9.37479C5.625 9.22687 5.74493 9.10693 5.89286 9.10693Z" fill="#F31D42"/>
<path d="M11.5179 6.42871H14.7321C14.8801 6.42871 15 6.54864 15 6.69657V14.7323C15 14.8802 14.8801 15.0001 14.7321 15.0001H11.5179C11.3699 15.0001 11.25 14.8802 11.25 14.7323V6.69657C11.25 6.54864 11.3699 6.42871 11.5179 6.42871Z" fill="#F31D42"/>
<path d="M0.267857 7.76807H3.48214C3.63007 7.76807 3.75 7.888 3.75 8.03592V14.7324C3.75 14.8803 3.63007 15.0002 3.48214 15.0002H0.267857C0.119934 15.0002 0 14.8803 0 14.7324V8.03592C0 7.888 0.119934 7.76807 0.267857 7.76807Z" fill="#F31D42"/>
<path d="M6.16183 1.07115C6.16183 1.51492 5.80203 1.87472 5.35826 1.87472C4.91449 1.87472 4.55469 1.51492 4.55469 1.07115C4.55469 0.62738 4.91449 0.267578 5.35826 0.267578C5.80203 0.267578 6.16183 0.62738 6.16183 1.07115Z" fill="#F31D42"/>
<path d="M1.39844 4.42766L4.39391 1.61084L4.76091 2.00112L1.76543 4.8178L1.39844 4.42766Z" fill="#F31D42"/>
<path d="M11.0156 3.60596L13.2494 1.37207L13.6283 1.75097L11.3944 3.98472L11.0156 3.60596Z" fill="#F31D42"/>
<path d="M6.08984 1.89777L6.39236 1.45557L9.71363 3.72751L9.41125 4.16971L6.08984 1.89777Z" fill="#F31D42"/>
<path d="M11.2517 4.55357C11.2517 4.99734 10.8919 5.35714 10.4481 5.35714C10.0043 5.35714 9.64453 4.99734 9.64453 4.55357C9.64453 4.1098 10.0043 3.75 10.4481 3.75C10.8919 3.75 11.2517 4.1098 11.2517 4.55357Z" fill="#F31D42"/>
<path d="M15.0017 0.803571C15.0017 1.24734 14.6419 1.60714 14.1981 1.60714C13.7543 1.60714 13.3945 1.24734 13.3945 0.803571C13.3945 0.359802 13.7543 0 14.1981 0C14.6419 0 15.0017 0.359802 15.0017 0.803571Z" fill="#F31D42"/>
<path d="M1.60714 5.35728C1.60714 5.80105 1.24734 6.16085 0.803571 6.16085C0.359802 6.16085 0 5.80105 0 5.35728C0 4.91351 0.359802 4.55371 0.803571 4.55371C1.24734 4.55371 1.60714 4.91351 1.60714 5.35728Z" fill="#F31D42"/>
</g>
<defs>
<clipPath id="clip0">
<rect width="15" height="15" fill="white"/>
</clipPath>
</defs>
</svg>
