<svg width="16" height="10" viewBox="0 0 16 10" fill="none" xmlns="http://www.w3.org/2000/svg">
    <path d="M14.773 4.34076C13.9873 3.33334 12.9695 2.50004 11.8298 1.93101C10.6664 1.35015 9.41479 1.04877 8.10823 1.03296C8.07224 1.03198 7.92776 1.03198 7.89177 1.03296C6.58524 1.0488 5.33361 1.35015 4.17019 1.93101C3.03047 2.50004 2.01277 3.33331 1.22702 4.34076C0.924326 4.72885 0.924326 5.27094 1.22702 5.65903C2.01274 6.66645 3.03047 7.49975 4.17019 8.06877C5.33361 8.64963 6.58521 8.95102 7.89177 8.96682C7.92776 8.9678 8.07224 8.9678 8.10823 8.96682C9.41476 8.95099 10.6664 8.64963 11.8298 8.06877C12.9695 7.49975 13.9873 6.66648 14.773 5.65903C15.0757 5.27088 15.0757 4.72885 14.773 4.34076ZM4.42462 7.55922C3.3604 7.02788 2.40999 6.24968 1.67611 5.30875C1.53428 5.12689 1.53428 4.8729 1.67611 4.69103C2.40996 3.75011 3.36038 2.97191 4.42462 2.44056C4.72688 2.28968 5.03553 2.1592 5.3499 2.04873C4.54113 2.77574 4.03158 3.82935 4.03158 4.99988C4.03158 6.17046 4.54116 7.22415 5.35001 7.95114C5.03564 7.84067 4.72691 7.71013 4.42462 7.55922ZM8.00003 8.39878C6.12584 8.39878 4.6011 6.87404 4.6011 4.99985C4.6011 3.12566 6.12584 1.60095 8.00003 1.60095C9.87422 1.60095 11.399 3.12569 11.399 4.99988C11.399 6.87407 9.87422 8.39878 8.00003 8.39878ZM14.3239 5.30873C13.5901 6.24965 12.6397 7.02785 11.5754 7.55919C11.2735 7.70991 10.9651 7.83982 10.6511 7.95018C11.4593 7.2232 11.9685 6.16992 11.9685 4.99985C11.9685 3.82916 11.4588 2.77541 10.6499 2.0484C10.9643 2.1589 11.2731 2.28954 11.5755 2.44051C12.6397 2.97185 13.5901 3.75005 14.324 4.69098C14.4658 4.87287 14.4658 5.12686 14.3239 5.30873Z" fill="#EE1C41" stroke="#EE1C41" stroke-width="0.5"/>
    <path d="M8.00045 3.54492C7.1984 3.54492 6.5459 4.19742 6.5459 4.99947C6.5459 5.80151 7.1984 6.45402 8.00045 6.45402C8.80249 6.45402 9.45499 5.80151 9.45499 4.99947C9.45502 4.19742 8.80252 3.54492 8.00045 3.54492ZM8.00045 5.88453C7.51244 5.88453 7.11539 5.48753 7.11539 4.99947C7.11539 4.51144 7.51239 4.11444 8.00045 4.11444C8.48845 4.11444 8.88548 4.51144 8.88548 4.99947C8.88551 5.48753 8.48845 5.88453 8.00045 5.88453Z" fill="#EE1C41" stroke="#EE1C41" stroke-width="0.5"/>
</svg>
