<svg width="50" height="50" viewBox="0 0 50 50" fill="none" xmlns="http://www.w3.org/2000/svg">
  <g clip-path="url(#clip0)">
    <path d="M49.165 45H46.665V29.1667C46.6647 28.7065 46.2913 28.3337 45.8311 28.334C45.5595 28.3342 45.305 28.4667 45.1492 28.6892L33.4825 45.3558C33.2188 45.733 33.3107 46.2526 33.6879 46.5163C33.8278 46.6141 33.9943 46.6666 34.165 46.6667H44.9984V49.1667C44.9984 49.6269 45.3715 50 45.8317 50C46.2919 50 46.665 49.6269 46.665 49.1667V46.6667H49.165C49.6252 46.6667 49.9984 46.2935 49.9984 45.8333C49.9984 45.3731 49.6252 45 49.165 45ZM44.9984 45H35.765L44.9984 31.81V45Z" fill="#F1D261"/>
    <path d="M34.168 48.3335H24.3021L33.4746 37.5326C33.4955 37.5079 33.5149 37.482 33.533 37.4551C35.2586 34.9012 34.6838 31.4434 32.2246 29.5851C29.2345 27.4367 25.0689 28.1191 22.9206 31.1092C22.1059 32.2431 21.6678 33.604 21.668 35.0001C21.668 35.4604 22.0411 35.8335 22.5013 35.8335C22.9615 35.8335 23.3346 35.4604 23.3346 35.0001C23.3343 32.2387 25.5728 29.9999 28.3341 29.9996C29.3808 29.9995 30.4011 30.3278 31.2513 30.9385C32.9739 32.2584 33.3751 34.6892 32.168 36.4926L21.8663 48.6277C21.5685 48.9786 21.6116 49.5044 21.9626 49.8022C22.1131 49.9299 22.3039 50 22.5013 50.0002H34.168C34.6282 50.0002 35.0013 49.627 35.0013 49.1668C35.0013 48.7066 34.6282 48.3335 34.168 48.3335Z" fill="#F1D261"/>
    <path d="M22.5183 44.1825C22.5357 43.7226 22.1769 43.3357 21.717 43.3183C21.7169 43.3183 21.7168 43.3183 21.7167 43.3183C10.8448 42.9148 2.11885 34.2045 1.69583 23.3333H5C5.46021 23.3333 5.83333 22.9602 5.83333 22.5C5.83333 22.0398 5.46021 21.6667 5 21.6667H1.69583C2.11281 10.8147 10.8146 2.11323 21.6667 1.69667V4.16667C21.6667 4.62687 22.0398 5 22.5 5C22.9602 5 23.3333 4.62687 23.3333 4.16667V1.69667C34.0369 2.11063 42.6756 10.5862 43.2933 21.28L40.0433 18.03C39.7123 17.7102 39.1848 17.7194 38.865 18.0504C38.5531 18.3733 38.5531 18.8853 38.865 19.2083L43.5167 23.86C43.6043 23.966 43.7172 24.0482 43.845 24.0992C43.8776 24.109 43.9107 24.1171 43.9442 24.1233C44.0014 24.144 44.0605 24.1582 44.1208 24.1658C44.1292 24.1658 44.1367 24.1658 44.145 24.1658C44.1533 24.1658 44.1608 24.1658 44.1683 24.1658C44.2318 24.161 44.2945 24.1488 44.355 24.1292C44.3893 24.125 44.4232 24.1186 44.4567 24.11C44.5695 24.0699 44.6722 24.0056 44.7575 23.9217L49.4725 19.2083C49.7922 18.8773 49.7831 18.3498 49.4521 18.03C49.1292 17.7181 48.6172 17.7181 48.2942 18.03L44.9633 21.3583C44.368 9.41354 34.5187 0.0292708 22.5592 0.0116667C22.5383 0.0108333 22.5208 0 22.5 0C22.4792 0 22.4617 0.0108333 22.4408 0.0116667C10.0606 0.0286458 0.0286458 10.0606 0.0116667 22.4408C0.0116667 22.4617 0 22.4792 0 22.5C0 22.5208 0.0108333 22.5383 0.0116667 22.5592C0.0323958 34.6339 9.58865 44.5352 21.655 44.9842H21.6858C22.1336 44.9841 22.5014 44.63 22.5183 44.1825Z" fill="#F1D261"/>
    <path d="M33.6966 11.3045C33.3711 10.9792 32.8436 10.9792 32.5182 11.3045L23.5632 20.2587C22.8867 19.957 22.1139 19.957 21.4374 20.2587L17.1974 16.0187C16.8664 15.699 16.3387 15.7082 16.0191 16.0392C15.7072 16.3621 15.7072 16.8741 16.0191 17.197L20.2507 21.4287C19.6566 22.6724 20.1832 24.1624 21.4271 24.7565C22.3818 25.2126 23.5203 25.017 24.2682 24.2687C25.0202 23.5231 25.2138 22.3814 24.7499 21.4295L33.6966 12.4829C34.0219 12.1574 34.0219 11.6299 33.6966 11.3045ZM23.0901 23.0893C23.09 23.0894 23.09 23.0894 23.0899 23.0895C22.7603 23.4046 22.2411 23.4046 21.9116 23.0895C21.586 22.7641 21.586 22.2365 21.9113 21.911C22.2368 21.5855 22.7644 21.5855 23.0899 21.9108C23.4154 22.2362 23.4154 22.7639 23.0901 23.0893Z" fill="#F1D261"/>
  </g>
  <defs>
    <clipPath id="clip0">
      <rect width="50" height="50" fill="white"/>
    </clipPath>
  </defs>
</svg>
