<svg width="30" height="30" fill="none" xmlns="http://www.w3.org/2000/svg"><path d="M29.557 11.758l-1.653.946c-1.782 1.02-1.784 3.571 0 4.592l1.653.946c.424.243.569.78.324 1.2l-3.56 6.115a.891.891 0 01-1.211.322l-1.653-.946c-1.782-1.02-4.01.253-4.01 2.296v1.892a.883.883 0 01-.887.879h-7.12a.883.883 0 01-.887-.879V27.23c0-2.04-2.226-3.317-4.01-2.296l-1.653.946a.891.891 0 01-1.21-.322L.118 19.443a.875.875 0 01.324-1.2l1.653-.947c1.782-1.02 1.784-3.571 0-4.592l-1.653-.946a.875.875 0 01-.324-1.2l3.56-6.115A.89.89 0 014.89 4.12l1.653.946c1.782 1.02 4.01-.253 4.01-2.296V.879c0-.486.397-.879.887-.879h7.12c.49 0 .887.393.887.879V2.77c0 2.04 2.226 3.317 4.01 2.296l1.653-.946a.89.89 0 011.21.322l3.561 6.114c.245.42.1.958-.324 1.2zm-4.328-5.675l-.885.506c-2.965 1.697-6.67-.421-6.67-3.818V1.758h-5.348V2.77c0 3.394-3.703 5.517-6.67 3.818l-.885-.506-2.673 4.592.884.507c2.964 1.696 2.967 5.938 0 7.636l-.884.507 2.673 4.592.885-.506c2.964-1.697 6.67.421 6.67 3.818v1.013h5.348V27.23c0-3.394 3.703-5.517 6.67-3.818l.884.506 2.674-4.592-.884-.507c-2.964-1.696-2.967-5.938 0-7.636l.884-.507-2.674-4.592z" fill="#fff"/><path d="M14.941 21.059c-3.308 0-6-2.692-6-6 0-3.309 2.692-6 6-6 3.309 0 6 2.691 6 6 0 3.308-2.691 6-6 6zm0-10.286a4.29 4.29 0 00-4.285 4.286 4.29 4.29 0 004.285 4.285 4.29 4.29 0 004.286-4.285 4.29 4.29 0 00-4.286-4.286z" fill="#fff"/></svg>