<svg width="14" height="15" viewBox="0 0 14 15" fill="none" xmlns="http://www.w3.org/2000/svg">
<path d="M10.5242 4.31948C10.5432 4.27948 10.5505 4.23491 10.5453 4.19092C10.54 4.14693 10.5224 4.10534 10.4944 4.07096L7.44755 0.320958C7.42557 0.29391 7.39784 0.272103 7.36637 0.257125C7.3349 0.242147 7.30049 0.234375 7.26564 0.234375C7.23079 0.234375 7.19638 0.242147 7.16491 0.257125C7.13344 0.272103 7.10571 0.29391 7.08374 0.320958L4.03685 4.07096C4.00892 4.10534 3.9913 4.14693 3.98603 4.19092C3.98077 4.23491 3.98808 4.27949 4.00712 4.31949C4.02616 4.35949 4.05615 4.39327 4.09361 4.41693C4.13106 4.44058 4.17446 4.45314 4.21876 4.45314H5.62501V14.5313C5.62501 14.5934 5.64971 14.653 5.69366 14.697C5.73761 14.7409 5.79723 14.7656 5.85939 14.7656H8.6719C8.73406 14.7656 8.79367 14.7409 8.83762 14.697C8.88158 14.653 8.90627 14.5934 8.90627 14.5313V4.45314H10.3125C10.3568 4.45314 10.4002 4.44058 10.4377 4.41693C10.4751 4.39327 10.5051 4.35949 10.5242 4.31948ZM8.6719 3.98439C8.60973 3.98439 8.55012 4.00908 8.50617 4.05303C8.46221 4.09699 8.43752 4.1566 8.43752 4.21876V14.2969H6.09376V4.21876C6.09376 4.1566 6.06907 4.09699 6.02512 4.05303C5.98116 4.00908 5.92155 3.98439 5.85939 3.98439H4.71118L7.26564 0.84045L9.8201 3.98439H8.6719Z" fill="white"/>
<path d="M2.53125 4.54687C2.50942 4.51777 2.48111 4.49414 2.44857 4.47787C2.41602 4.4616 2.38014 4.45312 2.34375 4.45312C2.30736 4.45312 2.27148 4.4616 2.23893 4.47787C2.20639 4.49414 2.17808 4.51777 2.15625 4.54687L0.0468751 7.35938C0.0207594 7.3942 0.00485605 7.4356 0.000947147 7.47895C-0.00296175 7.5223 0.00527821 7.56588 0.0247437 7.60482C0.0442093 7.64375 0.0741313 7.67649 0.111157 7.69937C0.148183 7.72225 0.190849 7.73438 0.234375 7.73438H1.17188V12.8906C1.17188 12.9528 1.19657 13.0124 1.24052 13.0564C1.28448 13.1003 1.34409 13.125 1.40625 13.125H3.28125C3.34341 13.125 3.40302 13.1003 3.44698 13.0564C3.49093 13.0124 3.51562 12.9528 3.51562 12.8906V7.73438H4.45312C4.49665 7.73438 4.53932 7.72225 4.57634 7.69937C4.61337 7.67649 4.64329 7.64375 4.66276 7.60482C4.68222 7.56588 4.69046 7.5223 4.68655 7.47895C4.68264 7.4356 4.66674 7.3942 4.64062 7.35938L2.53125 4.54687ZM3.28125 7.26562C3.21909 7.26562 3.15948 7.29032 3.11552 7.33427C3.07157 7.37823 3.04688 7.43784 3.04688 7.5V12.6562H1.64063V7.5C1.64063 7.43784 1.61593 7.37823 1.57198 7.33427C1.52802 7.29032 1.46841 7.26562 1.40625 7.26562H0.703125L2.34375 5.07811L3.98438 7.26562H3.28125Z" fill="white"/>
<path d="M3.28125 13.3594H1.40625C1.34409 13.3594 1.28448 13.3841 1.24052 13.428C1.19657 13.472 1.17188 13.5316 1.17188 13.5938V14.5312C1.17188 14.5934 1.19657 14.653 1.24052 14.697C1.28448 14.7409 1.34409 14.7656 1.40625 14.7656H3.28125C3.34341 14.7656 3.40302 14.7409 3.44698 14.697C3.49093 14.653 3.51562 14.5934 3.51562 14.5312V13.5938C3.51562 13.5316 3.49093 13.472 3.44698 13.428C3.40302 13.3841 3.34341 13.3594 3.28125 13.3594ZM3.04688 14.2969H1.64062V13.8281H3.04688V14.2969Z" fill="white"/>
<path d="M14.4844 7.35938L12.375 4.54687C12.3532 4.51777 12.3249 4.49414 12.2923 4.47787C12.2598 4.4616 12.2239 4.45312 12.1875 4.45312C12.1511 4.45312 12.1152 4.4616 12.0827 4.47787C12.0501 4.49414 12.0218 4.51777 12 4.54687L9.89063 7.35938C9.86451 7.3942 9.84861 7.4356 9.8447 7.47895C9.84079 7.5223 9.84903 7.56588 9.86849 7.60482C9.88796 7.64375 9.91788 7.67649 9.95491 7.69937C9.99193 7.72225 10.0346 7.73438 10.0781 7.73438H11.0156V10.5469C11.0156 10.609 11.0403 10.6686 11.0843 10.7126C11.1282 10.7566 11.1878 10.7812 11.25 10.7812H13.125C13.1872 10.7812 13.2468 10.7566 13.2907 10.7126C13.3347 10.6686 13.3594 10.609 13.3594 10.5469V7.73438H14.2969C14.3404 7.73438 14.3831 7.72225 14.4201 7.69937C14.4571 7.67649 14.4871 7.64375 14.5065 7.60482C14.526 7.56588 14.5342 7.5223 14.5303 7.47895C14.5264 7.4356 14.5105 7.3942 14.4844 7.35938ZM13.125 7.26562C13.0629 7.26562 13.0032 7.29032 12.9593 7.33427C12.9153 7.37823 12.8906 7.43784 12.8906 7.5V10.3125H11.4844V7.5C11.4844 7.43784 11.4597 7.37823 11.4157 7.33427C11.3718 7.29032 11.3122 7.26562 11.25 7.26562H10.5469L12.1875 5.07811L13.8281 7.26562H13.125Z" fill="white"/>
<path d="M13.125 11.0156H11.25C11.1878 11.0156 11.1282 11.0403 11.0843 11.0843C11.0403 11.1282 11.0156 11.1878 11.0156 11.25V12.1875C11.0156 12.2497 11.0403 12.3093 11.0843 12.3532C11.1282 12.3972 11.1878 12.4219 11.25 12.4219H13.125C13.1872 12.4219 13.2468 12.3972 13.2907 12.3532C13.3347 12.3093 13.3594 12.2497 13.3594 12.1875V11.25C13.3594 11.1878 13.3347 11.1282 13.2907 11.0843C13.2468 11.0403 13.1872 11.0156 13.125 11.0156ZM12.8906 11.9531H11.4844V11.4844H12.8906V11.9531Z" fill="white"/>
<path d="M6.51396 8.25168C6.53573 8.27344 6.56157 8.29071 6.59 8.30249C6.61844 8.31426 6.64892 8.32033 6.6797 8.32033C6.71048 8.32033 6.74096 8.31426 6.76939 8.30249C6.79783 8.29071 6.82367 8.27344 6.84543 8.25168L8.01732 7.0798C8.06127 7.03585 8.08597 6.97623 8.08597 6.91407C8.08597 6.85191 8.06127 6.79229 8.01732 6.74834C7.97336 6.70438 7.91375 6.67969 7.85158 6.67969C7.78942 6.67969 7.72981 6.70438 7.68585 6.74834L6.51396 7.92021C6.4922 7.94197 6.47493 7.96781 6.46315 7.99625C6.45138 8.02469 6.44531 8.05516 6.44531 8.08594C6.44531 8.11672 6.45138 8.1472 6.46315 8.17564C6.47493 8.20407 6.4922 8.22991 6.51396 8.25168Z" fill="white"/>
<path d="M6.79688 7.26562C6.92632 7.26562 7.03125 7.16069 7.03125 7.03125C7.03125 6.90181 6.92632 6.79688 6.79688 6.79688C6.66743 6.79688 6.5625 6.90181 6.5625 7.03125C6.5625 7.16069 6.66743 7.26562 6.79688 7.26562Z" fill="white"/>
<path d="M7.73437 8.20312C7.86382 8.20312 7.96875 8.09819 7.96875 7.96875C7.96875 7.83931 7.86382 7.73438 7.73437 7.73438C7.60493 7.73438 7.5 7.83931 7.5 7.96875C7.5 8.09819 7.60493 8.20312 7.73437 8.20312Z" fill="white"/>
</svg>
