<svg width="15" height="15" viewBox="0 0 15 15" fill="none" xmlns="http://www.w3.org/2000/svg">
  <path d="M10.7585 4.31948C10.7776 4.27948 10.7849 4.23491 10.7796 4.19092C10.7744 4.14693 10.7567 4.10534 10.7288 4.07096L7.68192 0.320958C7.65995 0.29391 7.63221 0.272103 7.60075 0.257125C7.56928 0.242147 7.53487 0.234375 7.50002 0.234375C7.46517 0.234375 7.43075 0.242147 7.39929 0.257125C7.36782 0.272103 7.34009 0.29391 7.31811 0.320958L4.27123 4.07096C4.24329 4.10534 4.22567 4.14693 4.22041 4.19092C4.21515 4.23491 4.22246 4.27949 4.2415 4.31949C4.26054 4.35949 4.29052 4.39327 4.32798 4.41693C4.36544 4.44058 4.40883 4.45314 4.45313 4.45314H5.85939V14.5313C5.85939 14.5934 5.88408 14.653 5.92803 14.697C5.97199 14.7409 6.0316 14.7656 6.09376 14.7656H8.90627C8.96843 14.7656 9.02804 14.7409 9.072 14.697C9.11595 14.653 9.14065 14.5934 9.14065 14.5313V4.45314H10.5469C10.5912 4.45314 10.6346 4.44058 10.6721 4.41693C10.7095 4.39327 10.7395 4.35949 10.7585 4.31948ZM8.90627 3.98439C8.84411 3.98439 8.7845 4.00908 8.74054 4.05303C8.69659 4.09699 8.67189 4.1566 8.67189 4.21876V14.2969H6.32814V4.21876C6.32814 4.1566 6.30345 4.09699 6.25949 4.05303C6.21554 4.00908 6.15592 3.98439 6.09376 3.98439H4.94556L7.50002 0.84045L10.0545 3.98439H8.90627Z" fill="white"/>
  <path d="M2.76562 4.54687C2.74379 4.51777 2.71548 4.49414 2.68294 4.47787C2.6504 4.4616 2.61451 4.45312 2.57812 4.45312C2.54174 4.45312 2.50585 4.4616 2.47331 4.47787C2.44077 4.49414 2.41246 4.51777 2.39062 4.54687L0.28125 7.35938C0.255134 7.3942 0.239231 7.4356 0.235322 7.47895C0.231413 7.5223 0.239653 7.56588 0.259119 7.60482C0.278584 7.64375 0.308506 7.67649 0.345532 7.69937C0.382558 7.72225 0.425224 7.73438 0.46875 7.73438H1.40625V12.8906C1.40625 12.9528 1.43094 13.0124 1.4749 13.0564C1.51885 13.1003 1.57846 13.125 1.64063 13.125H3.51562C3.57779 13.125 3.6374 13.1003 3.68135 13.0564C3.72531 13.0124 3.75 12.9528 3.75 12.8906V7.73438H4.6875C4.73103 7.73438 4.77369 7.72225 4.81072 7.69937C4.84774 7.67649 4.87767 7.64375 4.89713 7.60482C4.9166 7.56588 4.92484 7.5223 4.92093 7.47895C4.91702 7.4356 4.90112 7.3942 4.875 7.35938L2.76562 4.54687ZM3.51562 7.26562C3.45346 7.26562 3.39385 7.29032 3.3499 7.33427C3.30594 7.37823 3.28125 7.43784 3.28125 7.5V12.6562H1.875V7.5C1.875 7.43784 1.85031 7.37823 1.80635 7.33427C1.7624 7.29032 1.70279 7.26562 1.64063 7.26562H0.9375L2.57812 5.07811L4.21875 7.26562H3.51562Z" fill="white"/>
  <path d="M3.51562 13.3594H1.64062C1.57846 13.3594 1.51885 13.3841 1.4749 13.428C1.43094 13.472 1.40625 13.5316 1.40625 13.5938V14.5312C1.40625 14.5934 1.43094 14.653 1.4749 14.697C1.51885 14.7409 1.57846 14.7656 1.64062 14.7656H3.51562C3.57779 14.7656 3.6374 14.7409 3.68135 14.697C3.72531 14.653 3.75 14.5934 3.75 14.5312V13.5938C3.75 13.5316 3.72531 13.472 3.68135 13.428C3.6374 13.3841 3.57779 13.3594 3.51562 13.3594ZM3.28125 14.2969H1.875V13.8281H3.28125V14.2969Z" fill="white"/>
  <path d="M14.7188 7.35938L12.6094 4.54687C12.5876 4.51777 12.5592 4.49414 12.5267 4.47787C12.4942 4.4616 12.4583 4.45312 12.4219 4.45312C12.3855 4.45312 12.3496 4.4616 12.3171 4.47787C12.2845 4.49414 12.2562 4.51777 12.2344 4.54687L10.125 7.35938C10.0989 7.3942 10.083 7.4356 10.0791 7.47895C10.0752 7.5223 10.0834 7.56588 10.1029 7.60482C10.1223 7.64375 10.1523 7.67649 10.1893 7.69937C10.2263 7.72225 10.269 7.73438 10.3125 7.73438H11.25V10.5469C11.25 10.609 11.2747 10.6686 11.3187 10.7126C11.3626 10.7566 11.4222 10.7812 11.4844 10.7812H13.3594C13.4215 10.7812 13.4812 10.7566 13.5251 10.7126C13.5691 10.6686 13.5938 10.609 13.5938 10.5469V7.73438H14.5313C14.5748 7.73438 14.6175 7.72225 14.6545 7.69937C14.6915 7.67649 14.7214 7.64375 14.7409 7.60482C14.7604 7.56588 14.7686 7.5223 14.7647 7.47895C14.7608 7.4356 14.7449 7.3942 14.7188 7.35938ZM13.3594 7.26562C13.2972 7.26562 13.2376 7.29032 13.1937 7.33427C13.1497 7.37823 13.125 7.43784 13.125 7.5V10.3125H11.7188V7.5C11.7188 7.43784 11.6941 7.37823 11.6501 7.33427C11.6062 7.29032 11.5465 7.26562 11.4844 7.26562H10.7813L12.4219 5.07811L14.0625 7.26562H13.3594Z" fill="white"/>
  <path d="M13.3594 11.0156H11.4844C11.4222 11.0156 11.3626 11.0403 11.3186 11.0843C11.2747 11.1282 11.25 11.1878 11.25 11.25V12.1875C11.25 12.2497 11.2747 12.3093 11.3186 12.3532C11.3626 12.3972 11.4222 12.4219 11.4844 12.4219H13.3594C13.4215 12.4219 13.4811 12.3972 13.5251 12.3532C13.5691 12.3093 13.5938 12.2497 13.5938 12.1875V11.25C13.5938 11.1878 13.5691 11.1282 13.5251 11.0843C13.4811 11.0403 13.4215 11.0156 13.3594 11.0156ZM13.125 11.9531H11.7188V11.4844H13.125V11.9531Z" fill="white"/>
  <path d="M6.74834 8.25168C6.7701 8.27344 6.79594 8.29071 6.82438 8.30249C6.85281 8.31426 6.88329 8.32033 6.91407 8.32033C6.94485 8.32033 6.97533 8.31426 7.00377 8.30249C7.03221 8.29071 7.05804 8.27344 7.07981 8.25168L8.25169 7.0798C8.29565 7.03585 8.32034 6.97623 8.32034 6.91407C8.32034 6.85191 8.29565 6.79229 8.25169 6.74834C8.20774 6.70438 8.14812 6.67969 8.08596 6.67969C8.0238 6.67969 7.96418 6.70438 7.92022 6.74834L6.74834 7.92021C6.72657 7.94197 6.70931 7.96781 6.69753 7.99625C6.68575 8.02469 6.67969 8.05516 6.67969 8.08594C6.67969 8.11672 6.68575 8.1472 6.69753 8.17564C6.70931 8.20407 6.72657 8.22991 6.74834 8.25168Z" fill="white"/>
  <path d="M7.03125 7.26562C7.16069 7.26562 7.26562 7.16069 7.26562 7.03125C7.26562 6.90181 7.16069 6.79688 7.03125 6.79688C6.90181 6.79688 6.79688 6.90181 6.79688 7.03125C6.79688 7.16069 6.90181 7.26562 7.03125 7.26562Z" fill="white"/>
  <path d="M7.96875 8.20312C8.09819 8.20312 8.20312 8.09819 8.20312 7.96875C8.20312 7.83931 8.09819 7.73438 7.96875 7.73438C7.83931 7.73438 7.73438 7.83931 7.73438 7.96875C7.73438 8.09819 7.83931 8.20312 7.96875 8.20312Z" fill="white"/>
</svg>
