<svg width="15" height="15" viewBox="0 0 15 15" fill="none" xmlns="http://www.w3.org/2000/svg">
  <path d="M6.87305 13.75V14.375H5.62304V13.75H4.99805V14.6875C4.99805 14.8601 5.13797 15 5.31056 15H7.18556C7.35814 15 7.49807 14.8601 7.49807 14.6875V13.75H6.87305Z" fill="white"/>
  <path d="M7.81052 12.5V13.4375H4.68554V12.5H4.06055V13.75C4.06055 13.9226 4.20047 14.0625 4.37306 14.0625H8.12306C8.29564 14.0625 8.43557 13.9226 8.43557 13.75V12.5H7.81052Z" fill="white"/>
  <path d="M6.24846 0.62499V0C4.16452 0.001875 2.27414 1.222 1.41419 3.1202C0.203433 5.79275 1.38843 8.94079 4.06098 10.1515V11.5625H4.68597V9.94591C4.68597 9.81858 4.60872 9.70397 4.49065 9.65622C2.72355 8.93944 1.56679 7.22355 1.56509 5.31662C1.56281 2.7278 3.65962 0.627275 6.24846 0.62499Z" fill="white"/>
  <path d="M9.90586 8.2417C9.40304 8.86692 8.7491 9.3536 8.00587 9.65577C7.88783 9.70353 7.81055 9.81813 7.81055 9.94546V11.5623H8.43554V10.1514C9.1979 9.8056 9.86833 9.28546 10.3927 8.63296L9.90586 8.2417Z" fill="white"/>
  <path d="M9.06055 12.1875H3.43555V12.8125H9.06055V12.1875Z" fill="white"/>
  <path d="M4.68554 3.75C4.68554 3.57741 4.82546 3.43749 4.99805 3.43749C5.17063 3.43749 5.31056 3.57741 5.31056 3.75H5.93555C5.93555 3.23224 5.51581 2.8125 4.99805 2.8125C4.48028 2.8125 4.06055 3.23224 4.06055 3.75C4.06055 4.26776 4.48028 4.6875 4.99805 4.6875H5.93555V4.06251H4.99805C4.82543 4.06251 4.68554 3.92259 4.68554 3.75Z" fill="white"/>
  <path d="M6.56054 5.3125H5.93555V11.5624H6.56054V5.3125Z" fill="white"/>
  <path d="M13.7481 2.8125H12.96C12.9269 2.71969 12.8891 2.62863 12.8468 2.53969L13.4043 1.9822C13.5263 1.86018 13.5263 1.66236 13.4043 1.54031L12.5203 0.65625C12.3982 0.534258 12.2004 0.534258 12.0784 0.65625L11.5209 1.21374C11.4319 1.17141 11.3409 1.13367 11.2481 1.10063V0.31251C11.2481 0.139922 11.1082 0 10.9356 0H9.68556C9.51297 0 9.37305 0.139922 9.37305 0.31251V1.10063C9.28026 1.13355 9.18918 1.17123 9.10023 1.21345L8.54274 0.65625C8.42072 0.534258 8.22291 0.534258 8.10086 0.65625L7.2168 1.54031C7.0948 1.66233 7.0948 1.86015 7.2168 1.9822L7.77429 2.53969C7.73195 2.62863 7.69422 2.71969 7.66117 2.8125H6.87306C6.70047 2.8125 6.56055 2.95242 6.56055 3.12501V4.37502C6.56055 4.54761 6.70047 4.68753 6.87306 4.68753H7.66117C7.6941 4.78031 7.73178 4.8714 7.77399 4.96034L7.2168 5.51783C7.0948 5.63985 7.0948 5.83767 7.2168 5.95972L8.10086 6.84378C8.22288 6.96577 8.42069 6.96577 8.54274 6.84378L9.10023 6.28629C9.18918 6.32862 9.28023 6.36636 9.37305 6.3994V7.18752C9.37305 7.36011 9.51297 7.50003 9.68556 7.50003H10.9356C11.1082 7.50003 11.2481 7.36011 11.2481 7.18752V6.3997C11.3409 6.36665 11.4319 6.32889 11.5209 6.28658L12.0784 6.84378C12.2004 6.96577 12.3982 6.96577 12.5203 6.84378L13.4043 5.95972C13.5263 5.8377 13.5263 5.63988 13.4043 5.51783L12.8468 4.96034C12.8892 4.8714 12.9269 4.78034 12.96 4.68753H13.7481C13.9207 4.68753 14.0606 4.54761 14.0606 4.37502V3.12501C14.0606 2.95242 13.9207 2.8125 13.7481 2.8125ZM13.4356 4.06219H12.729C12.5865 4.06222 12.4621 4.1586 12.4265 4.29656C12.3755 4.49399 12.2971 4.68334 12.1937 4.85906C12.1211 4.98187 12.1409 5.13823 12.2418 5.23907L12.7418 5.73908L12.3 6.18097L11.7999 5.68096C11.6991 5.58006 11.5427 5.56025 11.4199 5.63282C11.2442 5.73627 11.0549 5.81464 10.8574 5.86564C10.7195 5.90127 10.6231 6.02566 10.6231 6.16813V6.87501H9.99807L9.99839 6.16907C9.99836 6.0266 9.90197 5.90218 9.76401 5.86658C9.56658 5.81558 9.37724 5.73721 9.20151 5.63376C9.0787 5.56119 8.92234 5.581 8.8215 5.68189L8.32149 6.1819L7.87961 5.74002L8.37962 5.24001C8.48052 5.13917 8.50032 4.98281 8.42775 4.86C8.32431 4.68428 8.24594 4.49493 8.19493 4.2975C8.15931 4.15954 8.03491 4.06315 7.89244 4.06313H7.18557V3.43813H7.89276C8.03523 3.43811 8.15966 3.34172 8.19525 3.20376C8.24626 3.00633 8.32463 2.81698 8.42808 2.64126C8.50064 2.51845 8.48084 2.36209 8.37994 2.26125L7.87993 1.76124L8.32117 1.31906L8.82118 1.81907C8.92202 1.91997 9.07838 1.93978 9.20119 1.86721C9.37691 1.76376 9.56626 1.68539 9.76369 1.63438C9.90165 1.59876 9.99804 1.47437 9.99807 1.33189V0.62499H10.6231V1.33187C10.6229 1.47428 10.719 1.59879 10.8568 1.63468C11.0542 1.68568 11.2436 1.76405 11.4193 1.8675C11.5421 1.94007 11.6985 1.92026 11.7993 1.81937L12.2993 1.31936L12.7415 1.7606L12.2415 2.26063C12.1406 2.36147 12.1208 2.51783 12.1934 2.64064C12.2968 2.81637 12.3752 3.00571 12.4262 3.20314C12.4618 3.3411 12.5862 3.43749 12.7287 3.43752H13.4356V4.06219Z" fill="white"/>
  <path d="M10.3106 2.5C9.62021 2.5 9.06055 3.05966 9.06055 3.75001C9.06055 4.44036 9.62021 5.00001 10.3106 5.00001C11.0009 5.00001 11.5606 4.44036 11.5606 3.75001C11.5606 3.05966 11.0009 2.5 10.3106 2.5ZM10.3106 4.37499C9.96538 4.37499 9.68557 4.09518 9.68557 3.75001C9.68557 3.40483 9.96538 3.12502 10.3106 3.12502C10.6557 3.12502 10.9355 3.40483 10.9355 3.75001C10.9355 4.09518 10.6557 4.37499 10.3106 4.37499Z" fill="white"/>
</svg>
