<svg width="15" height="15" viewBox="0 0 15 15" fill="none" xmlns="http://www.w3.org/2000/svg">
<path d="M7.5 0C3.35791 0 0 3.35791 0 7.5C0 11.6421 3.35791 15 7.5 15C11.6421 15 15 11.6421 15 7.5C14.9954 3.35986 11.6401 0.00463869 7.5 0ZM13.9865 10.1274L11.8535 10.4955C12.0977 9.6001 12.2295 8.67786 12.246 7.75H14.4938C14.4656 8.56616 14.2938 9.37097 13.9865 10.1274ZM0.506226 7.75H2.75403C2.77051 8.67786 2.90234 9.6001 3.14648 10.4955L1.01355 10.1274C0.706177 9.37097 0.534424 8.56616 0.506226 7.75ZM1.01355 4.87256L3.14648 4.50452C2.90234 5.3999 2.77051 6.32214 2.75403 7.25H0.506226C0.534424 6.43384 0.706177 5.62903 1.01355 4.87256ZM7.75 4.01404C8.64832 4.02551 9.54443 4.1073 10.4301 4.25879L11.3125 4.41101C11.5836 5.33362 11.7295 6.28845 11.7462 7.25H7.75V4.01404ZM10.5153 3.76599C9.60156 3.60986 8.67688 3.52551 7.75 3.51404V0.514038C9.18323 0.651733 10.4282 1.96399 11.1338 3.87378L10.5153 3.76599ZM7.25 3.51404C6.32312 3.52551 5.39868 3.60986 4.48499 3.76599L3.86621 3.87305C4.57178 1.96277 5.81677 0.650024 7.25 0.512939V3.51404ZM4.57019 4.25879C5.45569 4.1073 6.35168 4.02551 7.25 4.01404V7.25H3.25378C3.27051 6.28845 3.41638 5.33362 3.6875 4.41101L4.57019 4.25879ZM3.25378 7.75H7.25V10.986C6.35168 10.9745 5.45557 10.8927 4.56995 10.7412L3.6875 10.589C3.41638 9.66638 3.27051 8.71155 3.25378 7.75ZM4.48474 11.234C5.39844 11.3904 6.323 11.4751 7.25 11.4873V14.4873C5.81677 14.3495 4.57178 13.0372 3.86621 11.1274L4.48474 11.234ZM7.75 11.4873C8.67688 11.4751 9.60132 11.3904 10.515 11.234L11.1338 11.127C10.4282 13.0372 9.18323 14.35 7.75 14.4871V11.4873ZM10.4298 10.7412C9.54431 10.8927 8.64832 10.9745 7.75 10.986V7.75H11.7462C11.7295 8.71155 11.5836 9.66638 11.3125 10.589L10.4298 10.7412ZM12.246 7.25C12.2295 6.32214 12.0977 5.3999 11.8535 4.50452L13.9865 4.87256C14.2938 5.62903 14.4656 6.43384 14.4938 7.25H12.246ZM13.7335 4.32153L11.689 3.96875C11.3214 2.76965 10.6338 1.69348 9.69995 0.856201C11.4462 1.43896 12.8943 2.68298 13.7335 4.32153ZM5.30005 0.856201C4.36621 1.69348 3.67859 2.76965 3.31104 3.96875L1.26648 4.32153C2.10571 2.68298 3.55383 1.43896 5.30005 0.856201ZM1.26648 10.6785L3.31104 11.0312C3.67859 12.2303 4.36621 13.3065 5.30005 14.1438C3.55383 13.561 2.10571 12.317 1.26648 10.6785ZM9.69995 14.1438C10.6338 13.3065 11.3214 12.2303 11.689 11.0312L13.7335 10.6785C12.8943 12.317 11.4462 13.561 9.69995 14.1438Z" fill="white"/>
</svg>
