<svg width="15" height="15" viewBox="0 0 15 15" fill="none" xmlns="http://www.w3.org/2000/svg">
<path d="M10.0022 9.91069C11.5984 7.40602 11.3978 7.7185 11.4437 7.65319C12.0249 6.83353 12.332 5.86881 12.332 4.86328C12.332 2.19668 10.1681 0 7.49805 0C4.83666 0 2.66406 2.19234 2.66406 4.86328C2.66406 5.86816 2.97766 6.85814 3.57783 7.68885L4.99381 9.91072C3.47989 10.1434 0.90625 10.8367 0.90625 12.3633C0.90625 12.9198 1.26947 13.7128 2.99986 14.3308C4.20812 14.7623 5.8056 15 7.49805 15C10.6628 15 14.0898 14.1073 14.0898 12.3633C14.0898 10.8364 11.5192 10.1438 10.0022 9.91069ZM4.31198 7.20542C4.30715 7.19786 4.30211 7.19048 4.29684 7.18321C3.79741 6.49614 3.54297 5.68187 3.54297 4.86328C3.54297 2.66549 5.31268 0.878906 7.49805 0.878906C9.67888 0.878906 11.4531 2.66628 11.4531 4.86328C11.4531 5.68318 11.2035 6.46983 10.7311 7.1388C10.6887 7.19464 10.9096 6.85151 7.49805 12.2048L4.31198 7.20542ZM7.49805 14.1211C4.04119 14.1211 1.78516 13.105 1.78516 12.3633C1.78516 11.8648 2.94438 11.0451 5.51312 10.7256L7.12744 13.2587C7.20813 13.3853 7.34787 13.4619 7.49802 13.4619C7.64816 13.4619 7.78794 13.3852 7.86859 13.2587L9.48288 10.7256C12.0517 11.0451 13.2109 11.8648 13.2109 12.3633C13.2109 13.0987 10.9752 14.1211 7.49805 14.1211Z" fill="#F31D42"/>
<path d="M7.50195 2.66602C6.29038 2.66602 5.30469 3.65171 5.30469 4.86328C5.30469 6.07485 6.29038 7.06055 7.50195 7.06055C8.71353 7.06055 9.69922 6.07485 9.69922 4.86328C9.69922 3.65171 8.71353 2.66602 7.50195 2.66602ZM7.50195 6.18164C6.77501 6.18164 6.18359 5.59022 6.18359 4.86328C6.18359 4.13634 6.77501 3.54492 7.50195 3.54492C8.2289 3.54492 8.82031 4.13634 8.82031 4.86328C8.82031 5.59022 8.2289 6.18164 7.50195 6.18164Z" fill="#F31D42"/>
</svg>
