<svg width="15" height="15" viewBox="0 0 15 15" fill="none" xmlns="http://www.w3.org/2000/svg">
<path d="M10.0042 9.91069C11.6004 7.40602 11.3997 7.7185 11.4457 7.65319C12.0268 6.83353 12.334 5.86881 12.334 4.86328C12.334 2.19668 10.1701 0 7.5 0C4.83861 0 2.66602 2.19234 2.66602 4.86328C2.66602 5.86816 2.97961 6.85814 3.57979 7.68885L4.99576 9.91072C3.48185 10.1434 0.908203 10.8367 0.908203 12.3633C0.908203 12.9198 1.27143 13.7128 3.00182 14.3308C4.21008 14.7623 5.80755 15 7.5 15C10.6648 15 14.0918 14.1073 14.0918 12.3633C14.0918 10.8364 11.5212 10.1438 10.0042 9.91069ZM4.31394 7.20542C4.3091 7.19786 4.30406 7.19048 4.29879 7.18321C3.79937 6.49614 3.54492 5.68187 3.54492 4.86328C3.54492 2.66549 5.31463 0.878906 7.5 0.878906C9.68083 0.878906 11.4551 2.66628 11.4551 4.86328C11.4551 5.68318 11.2054 6.46983 10.733 7.1388C10.6907 7.19464 10.9116 6.85151 7.5 12.2048L4.31394 7.20542ZM7.5 14.1211C4.04314 14.1211 1.78711 13.105 1.78711 12.3633C1.78711 11.8648 2.94633 11.0451 5.51508 10.7256L7.12939 13.2587C7.21008 13.3853 7.34982 13.4619 7.49997 13.4619C7.65012 13.4619 7.78989 13.3852 7.87055 13.2587L9.48483 10.7256C12.0536 11.0451 13.2129 11.8648 13.2129 12.3633C13.2129 13.0987 10.9772 14.1211 7.5 14.1211Z" fill="white"/>
</svg>
