<svg width="240" height="106" viewBox="0 0 240 106" fill="none" xmlns="http://www.w3.org/2000/svg">
  <path d="M54.5269 25.1317C56.9764 25.1317 58.962 23.1461 58.962 20.6967C58.962 18.2473 56.9764 16.2617 54.5269 16.2617C52.0775 16.2617 50.0918 18.2473 50.0918 20.6967C50.0918 23.1461 52.0775 25.1317 54.5269 25.1317Z" fill="white"/>
  <path d="M51.8854 25.8237V29.4724L54.2917 36.0777H46.7111V30.5104C46.7111 30.5104 46.6482 28.3086 48.85 27.3492L51.8854 25.8237Z" fill="white"/>
  <path d="M57.1055 25.8237V29.4724L54.6992 36.0777H62.2641V30.5104C62.2641 30.5104 62.327 28.3086 60.1252 27.3492L57.1055 25.8237Z" fill="white"/>
  <path d="M53.6621 27.3491H55.5966L54.9046 28.5129L55.5966 29.8183L54.6372 35.3227L53.6621 29.8183L54.2912 28.5758L53.6621 27.3491Z" fill="white"/>
  <path d="M54.3531 42.6673C45.6244 42.6673 38.5156 35.5587 38.5156 26.8303C38.5156 18.1018 45.6244 10.9932 54.3531 10.9932C63.0818 10.9932 70.1906 18.1018 70.1906 26.8303C70.1906 35.5587 63.0818 42.6673 54.3531 42.6673ZM54.3531 12.5659C46.4894 12.5659 40.0884 18.9668 40.0884 26.8303C40.0884 34.6938 46.4894 41.0946 54.3531 41.0946C62.2168 41.0946 68.6179 34.6938 68.6179 26.8303C68.6179 18.9668 62.2168 12.5659 54.3531 12.5659Z" fill="white"/>
  <path d="M55.8629 94.7709C47.1342 94.7709 40.0254 87.6623 40.0254 78.9338C40.0254 70.2053 47.1342 63.0967 55.8629 63.0967C64.5916 63.0967 71.7004 70.2053 71.7004 78.9338C71.7004 87.6623 64.6073 94.7709 55.8629 94.7709ZM55.8629 64.6694C47.9992 64.6694 41.5981 71.0703 41.5981 78.9338C41.5981 86.7973 47.9992 93.1982 55.8629 93.1982C63.7266 93.1982 70.1276 86.7973 70.1276 78.9338C70.1276 71.0703 63.7266 64.6694 55.8629 64.6694Z" fill="#F31D42"/>
  <path d="M52.2773 70.5984C52.2773 70.4411 52.4189 69.7648 52.4818 69.6233C52.6705 69.2144 52.9064 68.8369 53.221 68.5067C53.5984 68.082 53.9287 67.7518 54.4634 67.5788C55.297 67.3114 56.1305 67.2957 56.9326 67.5316C58.0336 67.8461 59.0873 69.4188 59.1659 70.3782C59.1974 70.8814 59.2131 71.4948 59.1817 71.9823C59.0873 73.0046 58.8042 74.074 58.1437 74.8761C57.6718 75.458 57.2629 75.8512 56.5552 76.0871C55.6587 76.3859 54.432 76.0556 53.7714 75.4423C53.4884 75.1749 53.3154 75.0019 53.0952 74.7031C52.875 74.3886 52.4189 73.1304 52.2931 72.2497C52.2773 72.2654 52.2773 70.5984 52.2773 70.5984Z" fill="white"/>
  <path d="M52.7188 71.9823C52.7188 71.9823 52.9389 75.5366 55.6912 75.8984C55.6912 75.8984 58.2548 75.8826 58.8053 71.9823C58.8053 71.9823 58.0503 72.0924 58.1132 70.4254C58.129 70.0322 58.0032 69.985 57.5628 69.812C57.5628 69.812 55.3924 71.2589 53.8668 69.812C53.8668 69.812 53.2849 69.8906 53.1434 70.3939C53.1434 70.3782 53.5051 71.6049 52.7188 71.9823Z" fill="white"/>
  <path d="M61.8081 77.88C61.8081 77.88 60.6915 75.5682 58.6627 75.7412C58.6627 75.7412 57.4359 77.3925 56.7754 77.88H61.8081Z" fill="white"/>
  <path d="M54.0862 78.0217H48.9434C48.9434 78.0217 49.9656 75.7098 52.1046 75.8828" fill="white"/>
  <path d="M55.314 78.2104C55.314 78.2104 54.9837 76.9836 54.4805 76.7949H56.4307C56.4307 76.7949 55.7858 77.5184 55.7387 78.2104H55.314Z" fill="white"/>
  <path d="M47.0573 78.4932C47.2775 78.4932 64.1687 78.4932 64.1687 78.4932C64.1687 78.4932 65.0337 78.4932 64.609 79.9086L62.3915 88.3854H48.7244L46.5068 79.5783C46.5068 79.5783 46.0036 78.4932 47.0573 78.4932Z" fill="white"/>
  <path d="M62.0757 89.2193H49.2107C49.0534 89.2193 48.9434 89.0935 48.9434 88.9519C48.9434 88.7947 49.0692 88.6846 49.2107 88.6846H62.0757C62.233 88.6846 62.3431 88.8104 62.3431 88.9519C62.3431 89.1092 62.233 89.2193 62.0757 89.2193Z" fill="white"/>
  <path d="M55.737 83.7148C55.9629 83.7148 56.146 83.5317 56.146 83.3059C56.146 83.0801 55.9629 82.897 55.737 82.897C55.5112 82.897 55.3281 83.0801 55.3281 83.3059C55.3281 83.5317 55.5112 83.7148 55.737 83.7148Z" fill="#070707"/>
  <path d="M117.719 44.5386V65.7386H114.982V44.5386H117.719Z" fill="#F31D42"/>
  <path d="M126.526 46.8662H120.078V44.5386H135.774V46.8662H129.294V65.7386H126.526V46.8662Z" fill="#F31D42"/>
  <path d="M155.402 54.9187C155.402 62.216 150.966 66.0849 145.556 66.0849C139.957 66.0849 136.025 61.7442 136.025 55.3276C136.025 48.5964 140.209 44.1929 145.871 44.1929C151.658 44.1929 155.402 48.6279 155.402 54.9187ZM138.951 55.2647C138.951 59.7941 141.404 63.8516 145.713 63.8516C150.054 63.8516 152.508 59.857 152.508 55.0445C152.508 50.8297 150.306 46.4261 145.745 46.4261C141.215 46.4261 138.951 50.6095 138.951 55.2647Z" fill="#F31D42"/>
  <path d="M158.957 44.7902C160.278 44.5701 162.008 44.3813 164.21 44.3813C166.915 44.3813 168.897 45.0104 170.155 46.1428C171.319 47.1493 172.011 48.6905 172.011 50.5778C172.011 52.4965 171.445 54.0063 170.375 55.1071C168.928 56.6484 166.569 57.4347 163.895 57.4347C163.078 57.4347 162.323 57.4033 161.694 57.246V65.7386H158.957V44.7902ZM161.694 55.0128C162.291 55.1701 163.046 55.233 163.958 55.233C167.261 55.233 169.274 53.6288 169.274 50.7036C169.274 47.9042 167.293 46.5517 164.273 46.5517C163.078 46.5517 162.165 46.646 161.694 46.7718V55.0128Z" fill="#F31D42"/>
  <path d="M180.722 47.8732H180.659L177.105 49.7919L176.57 47.6845L181.037 45.2939H183.396V65.739H180.722V47.8732Z" fill="#F8F8F8"/>
  <path d="M204.44 55.2961C204.44 62.2475 201.861 66.0849 197.331 66.0849C193.336 66.0849 190.631 62.3418 190.568 55.5792C190.568 48.7222 193.525 44.9478 197.677 44.9478C201.986 44.9478 204.44 48.7851 204.44 55.2961ZM193.336 55.6107C193.336 60.9264 194.972 63.946 197.488 63.946C200.319 63.946 201.672 60.6433 201.672 55.4219C201.672 50.3893 200.382 47.0866 197.52 47.0866C195.098 47.0866 193.336 50.0433 193.336 55.6107Z" fill="#F8F8F8"/>
  <path d="M220.577 55.2961C220.577 62.2475 217.997 66.0849 213.468 66.0849C209.473 66.0849 206.768 62.3418 206.705 55.5792C206.705 48.7222 209.662 44.9478 213.814 44.9478C218.123 44.9478 220.577 48.7851 220.577 55.2961ZM209.473 55.6107C209.473 60.9264 211.109 63.946 213.625 63.946C216.456 63.946 217.809 60.6433 217.809 55.4219C217.809 50.3893 216.519 47.0866 213.657 47.0866C211.235 47.0866 209.473 50.0433 209.473 55.6107Z" fill="#F8F8F8"/>
  <path d="M236.713 55.2961C236.713 62.2475 234.134 66.0849 229.605 66.0849C225.61 66.0849 222.905 62.3418 222.842 55.5792C222.842 48.7222 225.799 44.9478 229.951 44.9478C234.26 44.9478 236.713 48.7851 236.713 55.2961ZM225.61 55.6107C225.61 60.9264 227.245 63.946 229.762 63.946C232.593 63.946 233.945 60.6433 233.945 55.4219C233.945 50.3893 232.656 47.0866 229.793 47.0866C227.371 47.0866 225.61 50.0433 225.61 55.6107Z" fill="#F8F8F8"/>
  <path d="M64.6705 102.587C51.0191 105.497 36.2039 102.493 24.7543 94.5194C13.3048 86.5458 5.37817 73.6811 3.3808 59.8571C1.38342 46.0331 5.34672 31.4699 14.0754 20.5711C22.348 10.2227 34.9142 3.27135 48.1252 2.34346C56.2091 1.77728 64.6705 3.53871 71.0715 8.50844C77.4726 13.4782 81.4044 21.9393 79.753 29.8657C78.1646 37.4461 71.9994 43.2966 65.2996 47.1969C58.5997 51.0972 51.1449 53.5506 44.4293 57.4194C37.7137 61.2883 31.4857 67.0443 29.7714 74.609C28.8906 78.4936 29.2995 82.677 30.9195 86.3257C33.5774 92.3176 39.255 96.5325 45.3729 98.8443C51.4909 101.156 58.1121 101.754 64.639 102.257C63.4752 102.163 61.7452 103.012 60.5499 103.201C59.1187 103.421 57.656 103.547 56.2091 103.562C53.2995 103.594 50.3743 103.216 47.559 102.477C41.9286 100.999 36.6442 98.0423 32.5708 93.8589C27.6639 88.8262 25.6036 79.8461 26.9719 73.0206C28.0414 67.7206 31.4385 63.317 35.4647 59.8728C39.8841 56.0984 45.0741 53.2832 50.3271 50.8613C56.5551 47.9989 63.0505 45.4984 68.4765 41.2206C69.7976 40.1826 71.0401 39.0346 72.1567 37.7921C77.5355 31.7687 77.7557 23.5906 73.4306 16.9381C68.8382 9.89242 60.8802 6.05503 52.4817 5.70903C45.4201 5.41022 38.3585 7.21883 32.2091 10.5687C32.2091 10.5687 25.6665 13.9972 21.6875 17.9446C21.6875 17.9446 16.2143 22.8357 13.0846 28.2301C13.0846 28.2301 10.7727 31.5642 8.61802 37.9651C4.02562 51.5218 5.78709 67.1544 13.2891 79.3271C20.1619 90.4776 31.8631 98.1052 44.445 101.298C51.0348 102.996 57.9391 103.437 64.6705 102.587Z" fill="white"/>
  <path d="M50.6429 2.20204C51.2248 2.24922 51.9325 2.0605 52.5301 2.01332C54.4017 1.8875 56.2733 1.87177 58.1448 1.95041C71.23 2.43795 83.8434 7.50204 92.7451 17.2685C101.725 27.1293 106.853 40.4187 106.632 53.7709C106.491 62.6095 104.132 71.5109 99.3506 78.9655C92.4463 89.7228 81.5786 98.4985 69.0596 101.691C58.5852 104.365 46.0819 103.075 37.6048 95.8878C32.0531 91.1854 28.4515 83.6207 29.1435 76.1976C30.6062 60.6593 48.3309 55.8783 59.8906 49.9964C59.8906 49.9964 68.8866 45.4356 71.9849 42.3216C75.8696 38.4056 79.0151 34.348 79.8958 28.7492C81.2012 15.9317 71.3087 3.77474 50.6429 2.20204C56.8552 2.67385 62.8473 2.95694 68.635 5.69344C74.2969 8.36703 78.8735 12.9593 81.0439 18.8727C82.4436 22.7101 82.8211 26.8934 82.1606 30.9353C79.2824 48.3608 58.0033 53.3305 44.981 61.2727C39.1776 64.8112 33.2641 70.0326 32.808 77.2828C31.4869 98.4513 58.884 101.958 73.6049 95.7305C81.6415 92.3335 88.9548 87.0492 94.019 79.8777C98.9889 72.832 99.2877 70.7875 99.2877 70.7875C99.2877 70.7875 101.663 65.8492 102.748 58.7249C103.723 52.2611 103.503 45.2311 101.663 38.9089C96.8657 22.3641 84.8657 9.02756 67.7071 4.37237C63.9482 3.35011 50.6429 2.20204 50.6429 2.20204Z" fill="#F31D42"/>
</svg>
