<svg width="35" height="35" viewBox="0 0 35 35" fill="none" xmlns="http://www.w3.org/2000/svg">
<path d="M35 17.5C35 23.2778 30.3333 28 24.5 28C18.7222 28 14 23.2778 14 17.5C14 11.7222 18.6667 7 24.4444 7C30.3333 7 35 11.7222 35 17.5Z" fill="#FFB600"/>
<path d="M24.5 7C30.2778 7 35 11.7222 35 17.5C35 23.2778 30.3333 28 24.5 28C18.7222 28 14 23.2778 14 17.5" fill="#F7981D"/>
<path d="M24.5 7C30.2778 7 35 11.7222 35 17.5C35 23.2778 30.3333 28 24.5 28" fill="#FF8500"/>
<path d="M10.3889 7C4.66667 7.05556 0 11.7222 0 17.5C0 23.2778 4.66667 28 10.5 28C13.2222 28 15.6667 26.9444 17.5556 25.2778C17.9444 24.9444 18.2778 24.5556 18.6111 24.1667H16.4444C16.1667 23.8333 15.8889 23.4444 15.6667 23.1111H19.3889C19.6111 22.7778 19.8333 22.3889 20 22H15.0556C14.8889 21.6667 14.7222 21.2778 14.6111 20.8889H20.3889C20.7222 19.8333 20.9444 18.7222 20.9444 17.5556C20.9444 16.7778 20.8333 16.0556 20.7222 15.3333H14.2778C14.3333 14.9444 14.4444 14.6111 14.5556 14.2222H20.3333C20.2222 13.8333 20.0556 13.4444 19.8889 13.1111H15C15.1667 12.7222 15.3889 12.3889 15.6111 12H19.3333C19.1111 11.6111 18.8333 11.2222 18.5 10.8889H16.4444C16.7778 10.5 17.1111 10.1667 17.5 9.83333C15.6667 8.11111 13.1667 7.11111 10.4444 7.11111C10.4444 7 10.4444 7 10.3889 7Z" fill="#FF5050"/>
<path d="M0 17.5C0 23.2778 4.66667 28 10.5 28C13.2222 28 15.6667 26.9444 17.5556 25.2778C17.9444 24.9444 18.2778 24.5555 18.6111 24.1666H16.4444C16.1667 23.8333 15.8889 23.4444 15.6667 23.1111H19.3889C19.6111 22.7778 19.8333 22.3889 20 22H15.0556C14.8889 21.6666 14.7222 21.2778 14.6111 20.8889H20.3889C20.7222 19.8333 20.9444 18.7222 20.9444 17.5555C20.9444 16.7778 20.8333 16.0555 20.7222 15.3333H14.2778C14.3333 14.9444 14.4444 14.6111 14.5556 14.2222H20.3333C20.2222 13.8333 20.0556 13.4444 19.8889 13.1111H15C15.1667 12.7222 15.3889 12.3889 15.6111 12H19.3333C19.1111 11.6111 18.8333 11.2222 18.5 10.8889H16.4444C16.7778 10.5 17.1111 10.1666 17.5 9.83331C15.6667 8.11108 13.1667 7.11108 10.4444 7.11108H10.3889" fill="#E52836"/>
<path d="M10.4998 28C13.222 28 15.6665 26.9444 17.5554 25.2778C17.9442 24.9444 18.2776 24.5555 18.6109 24.1666H16.4442C16.1665 23.8333 15.8887 23.4444 15.6665 23.1111H19.3887C19.6109 22.7778 19.8331 22.3889 19.9998 22H15.0554C14.8887 21.6666 14.722 21.2778 14.6109 20.8889H20.3887C20.722 19.8333 20.9443 18.7222 20.9443 17.5555C20.9443 16.7778 20.8331 16.0555 20.722 15.3333H14.2776C14.3331 14.9444 14.4442 14.6111 14.5553 14.2222H20.3331C20.222 13.8333 20.0554 13.4444 19.8887 13.1111H14.9998C15.1665 12.7222 15.3887 12.3889 15.6109 12H19.3331C19.1109 11.6111 18.8331 11.2222 18.4998 10.8889H16.4442C16.7776 10.5 17.1109 10.1666 17.4998 9.83331C15.6665 8.11108 13.1665 7.11108 10.4442 7.11108H10.3887" fill="#CB2026"/>
<path d="M14.2215 20.1667L14.3881 19.2223C14.3326 19.2223 14.2215 19.2778 14.1104 19.2778C13.7215 19.2778 13.6659 19.0556 13.7215 18.9445L14.0548 17.0001H14.6659L14.8326 15.9445H14.277L14.3881 15.2778H13.277C13.277 15.2778 12.6104 18.9445 12.6104 19.3889C12.6104 20.0556 12.9992 20.3334 13.4992 20.3334C13.8326 20.3334 14.1104 20.2223 14.2215 20.1667Z" fill="white"/>
<path d="M14.6104 18.3891C14.6104 19.9446 15.6659 20.3335 16.5548 20.3335C17.3881 20.3335 17.7215 20.1669 17.7215 20.1669L17.9437 19.1113C17.9437 19.1113 17.3326 19.3891 16.777 19.3891C15.5548 19.3891 15.777 18.5002 15.777 18.5002H18.0548C18.0548 18.5002 18.2215 17.778 18.2215 17.5002C18.2215 16.778 17.8326 15.8891 16.6104 15.8891C15.4437 15.778 14.6104 17.0002 14.6104 18.3891ZM16.5548 16.778C17.1659 16.778 17.0548 17.5002 17.0548 17.5558H15.8326C15.8326 17.5002 15.9437 16.778 16.5548 16.778Z" fill="white"/>
<path d="M23.6102 20.1667L23.8325 18.9445C23.8325 18.9445 23.2769 19.2223 22.888 19.2223C22.1102 19.2223 21.7769 18.6111 21.7769 17.9445C21.7769 16.6112 22.4436 15.8889 23.2214 15.8889C23.7769 15.8889 24.2214 16.2223 24.2214 16.2223L24.388 15.0556C24.388 15.0556 23.7214 14.7778 23.1102 14.7778C21.8325 14.7778 20.5547 15.8889 20.5547 18C20.5547 19.3889 21.2214 20.3334 22.5547 20.3334C22.9991 20.3334 23.6102 20.1667 23.6102 20.1667Z" fill="white"/>
<path d="M8.10917 15.7778C7.33139 15.7778 6.77583 16.0001 6.77583 16.0001L6.60916 16.9445C6.60916 16.9445 7.10916 16.7223 7.83139 16.7223C8.22028 16.7223 8.55361 16.7778 8.55361 17.1112C8.55361 17.3334 8.49806 17.3889 8.49806 17.3889C8.49806 17.3889 8.16472 17.3889 7.99805 17.3889C7.05361 17.3889 5.99805 17.7778 5.99805 19.0556C5.99805 20.0556 6.66472 20.2778 7.05361 20.2778C7.83139 20.2778 8.16472 19.7778 8.22028 19.7778L8.16472 20.2223H9.16473L9.60917 17.1667C9.60917 15.8334 8.49806 15.7778 8.10917 15.7778ZM8.33139 18.2778C8.33139 18.4445 8.22028 19.3334 7.55361 19.3334C7.22027 19.3334 7.10916 19.0556 7.10916 18.8889C7.10916 18.6111 7.27583 18.2223 8.10917 18.2223C8.27583 18.2778 8.33139 18.2778 8.33139 18.2778Z" fill="white"/>
<path d="M10.6645 20.278C10.9423 20.278 12.3312 20.3335 12.3312 18.8335C12.3312 17.4446 10.9978 17.7224 10.9978 17.1669C10.9978 16.8891 11.2201 16.778 11.6089 16.778C11.7756 16.778 12.3867 16.8335 12.3867 16.8335L12.5534 15.8335C12.5534 15.8335 12.1645 15.7224 11.4978 15.7224C10.6645 15.7224 9.83116 16.0557 9.83116 17.1669C9.83116 18.4446 11.2201 18.3335 11.2201 18.8335C11.2201 19.1669 10.8312 19.2224 10.5534 19.2224C10.0534 19.2224 9.55339 19.0557 9.55339 19.0557L9.38672 20.0557C9.44227 20.1669 9.72005 20.278 10.6645 20.278Z" fill="white"/>
<path d="M32.8317 14.8889L32.6095 16.3889C32.6095 16.3889 32.165 15.8334 31.5539 15.8334C30.5539 15.8334 29.665 17.0556 29.665 18.5C29.665 19.3889 30.1095 20.3334 31.0539 20.3334C31.7206 20.3334 32.1095 19.8889 32.1095 19.8889L32.0539 20.2778H33.165L33.9984 14.9445L32.8317 14.8889ZM32.3317 17.8334C32.3317 18.4445 32.0539 19.2222 31.4428 19.2222C31.0539 19.2222 30.8317 18.8889 30.8317 18.3334C30.8317 17.4445 31.2206 16.8889 31.7206 16.8889C32.1095 16.8889 32.3317 17.1667 32.3317 17.8334Z" fill="white"/>
<path d="M2.05458 20.2223L2.72125 16.2223L2.83236 20.2223H3.61013L5.05458 16.2223L4.44347 20.2223H5.61013L6.49902 14.8889H4.66569L3.55458 18.1667L3.49902 14.8889H1.88791L0.999023 20.2223H2.05458Z" fill="white"/>
<path d="M19.2769 20.2222C19.6102 18.3889 19.6658 16.8889 20.4436 17.1667C20.5547 16.4445 20.7214 16.1667 20.8325 15.8889C20.8325 15.8889 20.7769 15.8889 20.6102 15.8889C20.1102 15.8889 19.7214 16.5556 19.7214 16.5556L19.8325 15.9445H18.7769L18.0547 20.2778H19.2769V20.2222Z" fill="white"/>
<path d="M26.1648 15.7778C25.387 15.7778 24.8315 16.0001 24.8315 16.0001L24.6648 16.9445C24.6648 16.9445 25.1648 16.7223 25.887 16.7223C26.2759 16.7223 26.6093 16.7778 26.6093 17.1112C26.6093 17.3334 26.5537 17.3889 26.5537 17.3889C26.5537 17.3889 26.2204 17.3889 26.0537 17.3889C25.1093 17.3889 24.0537 17.7778 24.0537 19.0556C24.0537 20.0556 24.7204 20.2778 25.1093 20.2778C25.887 20.2778 26.2204 19.7778 26.2759 19.7778L26.2204 20.2223H27.2204L27.6648 17.1667C27.7204 15.8334 26.5537 15.7778 26.1648 15.7778ZM26.4426 18.2778C26.4426 18.4445 26.3315 19.3334 25.6648 19.3334C25.3315 19.3334 25.2204 19.0556 25.2204 18.8889C25.2204 18.6111 25.387 18.2223 26.2204 18.2223C26.387 18.2778 26.387 18.2778 26.4426 18.2778Z" fill="white"/>
<path d="M28.6089 20.2222C28.9423 18.3889 28.9978 16.8889 29.7756 17.1667C29.8867 16.4445 30.0534 16.1667 30.1645 15.8889C30.1645 15.8889 30.1089 15.8889 29.9423 15.8889C29.4423 15.8889 29.0534 16.5556 29.0534 16.5556L29.1645 15.9445H28.1089L27.3867 20.2778H28.6089V20.2222Z" fill="white"/>
<path d="M12.499 19.3889C12.499 20.0556 12.8879 20.3334 13.3879 20.3334C13.7768 20.3334 14.1101 20.2223 14.2212 20.1667L14.3879 19.2223C14.3324 19.2223 14.2212 19.2778 14.1101 19.2778C13.7212 19.2778 13.6657 19.0556 13.7212 18.9445L14.0546 17.0001H14.6657L14.8324 15.9445H14.2768L14.3879 15.2778" fill="#DCE5E5"/>
<path d="M15.166 18.3891C15.166 19.9446 15.666 20.3335 16.5549 20.3335C17.3882 20.3335 17.7216 20.1669 17.7216 20.1669L17.9438 19.1113C17.9438 19.1113 17.3327 19.3891 16.7771 19.3891C15.5549 19.3891 15.7771 18.5002 15.7771 18.5002H18.0549C18.0549 18.5002 18.2216 17.778 18.2216 17.5002C18.2216 16.778 17.8327 15.8891 16.6105 15.8891C15.4438 15.778 15.166 17.0002 15.166 18.3891ZM16.5549 16.778C17.166 16.778 17.2771 17.5002 17.2771 17.5558H15.8327C15.8327 17.5002 15.9438 16.778 16.5549 16.778Z" fill="#DCE5E5"/>
<path d="M23.6104 20.1667L23.8326 18.9445C23.8326 18.9445 23.277 19.2223 22.8881 19.2223C22.1104 19.2223 21.777 18.6111 21.777 17.9445C21.777 16.6112 22.4437 15.8889 23.2215 15.8889C23.777 15.8889 24.2215 16.2223 24.2215 16.2223L24.3881 15.0556C24.3881 15.0556 23.7215 14.7778 23.1104 14.7778C21.8326 14.7778 21.1104 15.8889 21.1104 18C21.1104 19.3889 21.2215 20.3334 22.5548 20.3334C22.9992 20.3334 23.6104 20.1667 23.6104 20.1667Z" fill="#DCE5E5"/>
<path d="M6.60916 17C6.60916 17 7.10916 16.7778 7.83139 16.7778C8.22028 16.7778 8.55361 16.8334 8.55361 17.1667C8.55361 17.3889 8.49806 17.4445 8.49806 17.4445C8.49806 17.4445 8.16472 17.4445 7.99805 17.4445C7.05361 17.4445 5.99805 17.8333 5.99805 19.1111C5.99805 20.1111 6.66472 20.3333 7.05361 20.3333C7.83139 20.3333 8.16472 19.8333 8.22028 19.8333L8.16472 20.2778H9.16473L9.60917 17.2222C9.60917 15.9445 8.49806 15.8889 8.05361 15.8889L6.60916 17ZM8.88695 18.2778C8.88695 18.4445 8.22028 19.3333 7.55361 19.3333C7.22027 19.3333 7.10916 19.0556 7.10916 18.8889C7.10916 18.6111 7.27583 18.2222 8.10917 18.2222C8.27583 18.2778 8.88695 18.2778 8.88695 18.2778Z" fill="#DCE5E5"/>
<path d="M9.44336 20.1669C9.44336 20.1669 9.77669 20.278 10.7211 20.278C10.9989 20.278 12.3878 20.3335 12.3878 18.8335C12.3878 17.4446 11.0545 17.7224 11.0545 17.1669C11.0545 16.8891 11.2767 16.778 11.6656 16.778C11.8322 16.778 12.4434 16.8335 12.4434 16.8335L12.61 15.8335C12.61 15.8335 12.2211 15.7224 11.5545 15.7224C10.7211 15.7224 10.4434 16.0557 10.4434 17.1669C10.4434 18.4446 11.2767 18.3335 11.2767 18.8335C11.2767 19.1669 10.8878 19.2224 10.61 19.2224" fill="#DCE5E5"/>
<path d="M32.6107 16.3888C32.6107 16.3888 32.1662 15.8332 31.5551 15.8332C30.5551 15.8332 30.2218 17.0554 30.2218 18.4999C30.2218 19.3888 30.1107 20.3332 31.0551 20.3332C31.7218 20.3332 32.1107 19.8888 32.1107 19.8888L32.0551 20.2776H33.1662L33.9996 14.9443L32.6107 16.3888ZM32.5551 17.8332C32.5551 18.4443 32.0551 19.2221 31.444 19.2221C31.0551 19.2221 30.8329 18.8888 30.8329 18.3332C30.8329 17.4443 31.2218 16.8888 31.7218 16.8888C32.1107 16.8888 32.5551 17.1665 32.5551 17.8332Z" fill="#DCE5E5"/>
<path d="M2.05458 20.2223L2.72125 16.2223L2.83236 20.2223H3.61013L5.05458 16.2223L4.44347 20.2223H5.61013L6.49902 14.8889H5.11013L3.55458 18.1667L3.49902 14.8889H2.88791L0.999023 20.2223H2.05458Z" fill="#DCE5E5"/>
<path d="M18.1094 20.2222H19.276C19.6094 18.3889 19.6649 16.8889 20.4427 17.1667C20.5538 16.4445 20.7205 16.1667 20.8316 15.8889C20.8316 15.8889 20.776 15.8889 20.6094 15.8889C20.1094 15.8889 19.7205 16.5556 19.7205 16.5556L19.8316 15.9445" fill="#DCE5E5"/>
<path d="M24.6648 17C24.6648 17 25.1648 16.7778 25.887 16.7778C26.2759 16.7778 26.6093 16.8334 26.6093 17.1667C26.6093 17.3889 26.5537 17.4445 26.5537 17.4445C26.5537 17.4445 26.2204 17.4445 26.0537 17.4445C25.1093 17.4445 24.0537 17.8333 24.0537 19.1111C24.0537 20.1111 24.7204 20.3333 25.1093 20.3333C25.887 20.3333 26.2204 19.8333 26.2759 19.8333L26.2204 20.2778H27.2204L27.6648 17.2222C27.6648 15.9445 26.5537 15.8889 26.1093 15.8889L24.6648 17ZM26.9426 18.2778C26.9426 18.4445 26.2759 19.3333 25.6093 19.3333C25.2759 19.3333 25.1648 19.0556 25.1648 18.8889C25.1648 18.6111 25.3315 18.2222 26.1648 18.2222C26.387 18.2778 26.9426 18.2778 26.9426 18.2778Z" fill="#DCE5E5"/>
<path d="M27.4434 20.2222H28.61C28.9434 18.3889 28.9989 16.8889 29.7767 17.1667C29.8878 16.4445 30.0545 16.1667 30.1656 15.8889C30.1656 15.8889 30.11 15.8889 29.9434 15.8889C29.4434 15.8889 29.0545 16.5556 29.0545 16.5556L29.1656 15.9445" fill="#DCE5E5"/>
</svg>
