<svg width="10" height="15" viewBox="0 0 10 15" fill="none" xmlns="http://www.w3.org/2000/svg">
<path d="M8.88158 6.71053H2.36842V3.75C2.36842 2.33522 3.51943 1.18421 4.93421 1.18421C6.34899 1.18421 7.5 2.33522 7.5 3.75V4.93421C7.5 5.26121 7.76511 5.52632 8.09211 5.52632C8.41911 5.52632 8.68421 5.26121 8.68421 4.93421V3.75C8.68421 1.68225 7.00196 0 4.93421 0C2.86646 0 1.18421 1.68225 1.18421 3.75V6.71053H0.986842C0.441829 6.71053 0 7.15236 0 7.69737V14.0132C0 14.5582 0.441829 15 0.986842 15H8.88158C9.42659 15 9.86842 14.5582 9.86842 14.0132V7.69737C9.86842 7.15236 9.42659 6.71053 8.88158 6.71053ZM3.75 10.0658C3.75 9.41175 4.28017 8.88158 4.93421 8.88158C5.58821 8.88158 6.11842 9.41175 6.11842 10.0658C6.11842 10.5041 5.8802 10.8864 5.52632 11.0912V12.8289H4.34211V11.0912C3.98822 10.8864 3.75 10.5041 3.75 10.0658Z" fill="#F31D42"/>
</svg>
