<svg width="27" height="27" viewBox="0 0 27 27" fill="none" xmlns="http://www.w3.org/2000/svg">
  <path d="M1.35008 12.15H12.1499V1.34992C12.1499 0.60488 12.7548 0 13.5001 0C14.2451 0 14.85 0.60488 14.85 1.34992V12.15H25.6501C26.3951 12.15 27 12.7549 27 13.4999C27 14.2452 26.3951 14.8501 25.6501 14.8501H14.85V25.6499C14.85 26.3952 14.2451 27.0001 13.5001 27.0001C12.7548 27.0001 12.1499 26.3952 12.1499 25.6499V14.8501H1.35008C0.604795 14.8501 -8.39233e-05 14.2452 -8.39233e-05 13.4999C-8.39233e-05 12.7549 0.604795 12.15 1.35008 12.15Z" fill="#000"/>
</svg>
