<svg width="15" height="15" viewBox="0 0 15 15" fill="none" xmlns="http://www.w3.org/2000/svg">
  <path d="M4.86328 3.51562H9.28711C9.52984 3.51562 9.72656 3.3189 9.72656 3.07617C9.72656 2.83344 9.52984 2.63672 9.28711 2.63672H4.86328C4.62055 2.63672 4.42383 2.83344 4.42383 3.07617C4.42383 3.3189 4.62055 3.51562 4.86328 3.51562Z" fill="#FFFFFF"/>
  <path d="M12.7494 1.26503L11.4844 2.53006V0.439453C11.4844 0.196724 11.2877 0 11.0449 0H3.07617C2.9599 0 2.84729 0.0468063 2.76535 0.128746L0.128746 2.76535C0.045433 2.84866 0 2.96196 0 3.07617V12.8027C0 14.0143 0.98568 15 2.19727 15H11.0449C12.2565 15 13.2422 14.0143 13.2422 12.8027V11.9238C13.2422 11.6811 13.0455 11.4844 12.8027 11.4844H11.4844V6.259L14.6139 3.1295C15.1278 2.61543 15.1278 1.7791 14.6139 1.26503C14.0987 0.749817 13.2647 0.749817 12.7494 1.26503ZM2.63672 1.50043V2.63672H1.50043L2.63672 1.50043ZM3.51562 11.9238V12.8027C3.51562 13.5297 2.92419 14.1211 2.19727 14.1211C1.47034 14.1211 0.878906 13.5297 0.878906 12.8027C0.878906 12.6415 0.878906 3.87005 0.878906 3.51562H3.07617C3.3189 3.51562 3.51562 3.3189 3.51562 3.07617V0.878906H10.6055V3.40897L9.6199 4.39453H2.19727C1.95454 4.39453 1.75781 4.59126 1.75781 4.83398C1.75781 5.07671 1.95454 5.27344 2.19727 5.27344H8.741L7.86209 6.15234H2.19727C1.95454 6.15234 1.75781 6.34907 1.75781 6.5918C1.75781 6.83453 1.95454 7.03125 2.19727 7.03125H6.98318L6.51249 7.50195C6.46431 7.55024 6.42792 7.60895 6.4064 7.67372L6.32755 7.91016H2.19727C1.95454 7.91016 1.75781 8.10688 1.75781 8.34961C1.75781 8.59234 1.95454 8.78906 2.19727 8.78906H6.03458L5.81772 9.43977L5.58941 9.66797H2.19727C1.95454 9.66797 1.75781 9.86469 1.75781 10.1074C1.75781 10.3502 1.95454 10.5469 2.19727 10.5469H5.71049C5.85182 10.5469 5.96684 10.5336 6.08219 10.4181L6.43913 10.0612L8.20518 9.4725C8.26984 9.45099 8.32867 9.4146 8.37696 9.36642L10.6055 7.13791V11.4844H3.95508C3.71235 11.4844 3.51562 11.6811 3.51562 11.9238ZM8.27946 8.22086L7.82879 8.67153L6.89655 8.98235L7.20737 8.05012L7.65793 7.59945L8.27946 8.22086ZM12.3633 12.3633V12.8027C12.3633 13.5297 11.7719 14.1211 11.0449 14.1211H3.95405C4.23042 13.7536 4.39453 13.2969 4.39453 12.8027V12.3633H12.3633ZM13.06 3.44032L8.90099 7.59945L8.27946 6.97792L12.4385 2.81891L13.06 3.44032ZM13.9923 2.50797L13.6814 2.81891L13.06 2.19749L13.3708 1.88656C13.5423 1.71524 13.821 1.71524 13.9923 1.88656C14.1637 2.05788 14.1637 2.33665 13.9923 2.50797Z" fill="#FFFFFF"/>
</svg>
