<svg width="15" height="15" viewBox="0 0 15 15" fill="none" xmlns="http://www.w3.org/2000/svg">
  <path d="M11.3672 3.86719H3.63281C3.3092 3.86719 3.04688 3.60486 3.04688 3.28125C3.04688 2.95764 3.3092 2.69531 3.63281 2.69531H11.3672C11.6908 2.69531 11.9531 2.95764 11.9531 3.28125C11.9531 3.60486 11.6908 3.86719 11.3672 3.86719ZM11.9531 6.32812C11.9531 6.00451 11.6908 5.74219 11.3672 5.74219H3.63281C3.3092 5.74219 3.04688 6.00451 3.04688 6.32812C3.04688 6.65174 3.3092 6.91406 3.63281 6.91406H11.3672C11.6908 6.91406 11.9531 6.65174 11.9531 6.32812ZM8.08594 9.375C8.08594 9.05139 7.82361 8.78906 7.5 8.78906H3.63281C3.3092 8.78906 3.04688 9.05139 3.04688 9.375C3.04688 9.69861 3.3092 9.96094 3.63281 9.96094H7.5C7.82361 9.96094 8.08594 9.69861 8.08594 9.375ZM7.91432 14.8284L10.0864 12.6562H14.4141C14.7377 12.6562 15 12.3939 15 12.0703V0.585938C15 0.262324 14.7377 0 14.4141 0H0.585938C0.262324 0 0 0.262324 0 0.585938V12.0703C0 12.3939 0.262324 12.6562 0.585938 12.6562H4.91355L7.08568 14.8284C7.31452 15.0572 7.68551 15.0572 7.91432 14.8284ZM1.17188 1.17188H13.8281V11.4844H9.84375C9.68836 11.4844 9.5393 11.5461 9.42943 11.656L7.5 13.5854L5.57057 11.656C5.4607 11.5461 5.31164 11.4844 5.15625 11.4844H1.17188V1.17188Z" fill="#EE1C41"/>
</svg>
