<svg width="15" height="15" viewBox="0 0 15 15" fill="none" xmlns="http://www.w3.org/2000/svg">
  <path d="M14.9084 14.4666L10.3444 9.90249C11.2924 8.84994 11.875 7.46218 11.875 5.93748C11.875 2.66358 9.21144 0 5.93751 0C2.66358 0 0 2.66358 0 5.93751C0 9.21144 2.66358 11.875 5.93751 11.875C7.46221 11.875 8.84994 11.2924 9.90252 10.3444L14.4666 14.9084C14.5276 14.9695 14.6076 15 14.6875 15C14.7675 15 14.8474 14.9695 14.9085 14.9084C15.0305 14.7864 15.0305 14.5886 14.9084 14.4666ZM5.93751 11.25C3.00844 11.25 0.62502 8.86687 0.62502 5.93751C0.62502 3.00814 3.00844 0.62499 5.93751 0.62499C8.86658 0.62499 11.25 3.00812 11.25 5.93751C11.25 8.8669 8.86658 11.25 5.93751 11.25Z" fill="white"/>
</svg>
