<svg width="50" height="50" viewBox="0 0 50 50" fill="none" xmlns="http://www.w3.org/2000/svg">
  <path d="M48.4375 31.25C47.575 31.25 46.875 31.95 46.875 32.8125V43.75H3.125V25H20.3125C21.175 25 21.875 24.3 21.875 23.4375C21.875 22.575 21.175 21.875 20.3125 21.875H3.125V15.625H20.3125C21.175 15.625 21.875 14.925 21.875 14.0625C21.875 13.2 21.175 12.5 20.3125 12.5H3.125C1.4 12.5 0 13.9 0 15.625V43.75C0 45.475 1.4 46.875 3.125 46.875H46.875C48.6 46.875 50 45.475 50 43.75V32.8125C50 31.95 49.3 31.25 48.4375 31.25Z" fill="#F1D261"/>
  <path d="M14.0625 31.25H7.8125C6.95 31.25 6.25 31.95 6.25 32.8125C6.25 33.675 6.95 34.375 7.8125 34.375H14.0625C14.925 34.375 15.625 33.675 15.625 32.8125C15.625 31.95 14.925 31.25 14.0625 31.25Z" fill="#F1D261"/>
  <path d="M49.0531 7.93672L38.1156 3.24922C37.7187 3.08359 37.2781 3.08359 36.8813 3.24922L25.9438 7.93672C25.3719 8.18359 25 8.74922 25 9.37422V15.6242C25 24.2211 28.1781 29.2461 36.7219 34.168C36.9625 34.3055 37.2312 34.3742 37.5 34.3742C37.7688 34.3742 38.0375 34.3055 38.2781 34.168C46.8219 29.2586 50 24.2336 50 15.6242V9.37422C50 8.74922 49.6281 8.18359 49.0531 7.93672ZM46.875 15.6242C46.875 22.8398 44.4875 26.8117 37.5 30.9992C30.5125 26.8023 28.125 22.8305 28.125 15.6242V10.4055L37.5 6.38672L46.875 10.4055V15.6242Z" fill="#F1D261"/>
  <path d="M43.1645 12.8406C42.4927 12.3094 41.5114 12.4125 40.9677 13.0844L36.0552 19.2281L34.1114 16.3219C33.627 15.6031 32.6552 15.4125 31.9458 15.8875C31.2302 16.3656 31.0333 17.3375 31.5114 18.0531L34.6364 22.7406C34.9145 23.1562 35.3708 23.4125 35.8708 23.4375C35.8927 23.4375 35.9177 23.4375 35.9364 23.4375C36.4083 23.4375 36.8583 23.225 37.1583 22.85L43.4083 15.0375C43.9458 14.3625 43.8395 13.3812 43.1645 12.8406Z" fill="#F1D261"/>
</svg>

