<svg width="11" height="15" viewBox="0 0 11 15" fill="none" xmlns="http://www.w3.org/2000/svg">
  <path d="M9.4475 6.71053H2.93434V3.75C2.93434 2.33522 4.08535 1.18421 5.50013 1.18421C6.91491 1.18421 8.06592 2.33522 8.06592 3.75V4.93421C8.06592 5.26121 8.33102 5.52632 8.65802 5.52632C8.98502 5.52632 9.25013 5.26121 9.25013 4.93421V3.75C9.25013 1.68225 7.56788 0 5.50013 0C3.43238 0 1.75013 1.68225 1.75013 3.75V6.71053H1.55276C1.00775 6.71053 0.565918 7.15236 0.565918 7.69737V14.0132C0.565918 14.5582 1.00775 15 1.55276 15H9.4475C9.99251 15 10.4343 14.5582 10.4343 14.0132V7.69737C10.4343 7.15236 9.99251 6.71053 9.4475 6.71053ZM4.31592 10.0658C4.31592 9.41175 4.84609 8.88158 5.50013 8.88158C6.15413 8.88158 6.68434 9.41175 6.68434 10.0658C6.68434 10.5041 6.44612 10.8864 6.09223 11.0912V12.8289H4.90802V11.0912C4.55414 10.8864 4.31592 10.5041 4.31592 10.0658Z" fill="black"/>
</svg>
