<svg width="15" height="15" viewBox="0 0 15 15" fill="none" xmlns="http://www.w3.org/2000/svg">
  <path d="M7.82402 9.20427L7.41547 8.29729C7.80494 8.0114 8.13945 7.65574 8.40083 7.24981L9.33109 7.6023C9.50898 7.66972 9.70775 7.58012 9.77511 7.40229L10.117 6.49986C10.1494 6.41446 10.1465 6.31969 10.1089 6.23642C10.0714 6.15315 10.0024 6.08821 9.91691 6.05584L8.98665 5.70335C9.05993 5.22606 9.04506 4.73817 8.94278 4.26591L9.84976 3.85736C9.93303 3.81983 9.99798 3.75082 10.0303 3.66534C10.0627 3.57994 10.0598 3.48517 10.0223 3.40191L9.62593 2.52206C9.54783 2.34864 9.34383 2.2715 9.17054 2.34954L8.26356 2.75809C7.97767 2.36861 7.62202 2.0341 7.21608 1.77273L7.56857 0.84247C7.63593 0.664642 7.54639 0.465807 7.36857 0.39845L6.4662 0.0564983C6.38087 0.0241972 6.2861 0.0270209 6.20276 0.0645564C6.11949 0.102092 6.05455 0.171102 6.02218 0.256573L5.66976 1.18676C5.19199 1.11307 4.70327 1.12829 4.23225 1.23057L3.82377 0.323654C3.78624 0.240388 3.71722 0.175441 3.63175 0.143071C3.54642 0.11077 3.45158 0.113594 3.36832 0.151129L2.4884 0.54749C2.31498 0.625591 2.23778 0.829454 2.31588 1.00287L2.72443 1.90986C2.33496 2.19574 2.00044 2.5514 1.73907 2.95734L0.808811 2.60485C0.723478 2.57255 0.62871 2.57544 0.545374 2.61291C0.462108 2.65044 0.397161 2.71945 0.364791 2.80492L0.0229082 3.70729C-0.0444491 3.88512 0.0450851 4.08395 0.222914 4.15131L1.15317 4.5038C1.07989 4.98101 1.09477 5.46904 1.19705 5.94123L0.289995 6.34978C0.206729 6.38732 0.141782 6.45633 0.109412 6.5418C0.0770419 6.6272 0.0799345 6.72197 0.11747 6.80524L0.513831 7.68508C0.551297 7.76835 0.620376 7.8333 0.705778 7.86567C0.791249 7.89804 0.885948 7.89521 0.969215 7.85761L1.8762 7.44906C2.16209 7.8386 2.51767 8.17304 2.92368 8.43441L2.57119 9.36467C2.50383 9.5425 2.59336 9.74134 2.77119 9.8087L3.67363 10.1506C3.71295 10.1655 3.75435 10.1729 3.7956 10.1729C3.84388 10.1729 3.89216 10.1628 3.93707 10.1425C4.02033 10.105 4.08528 10.036 4.11765 9.9505L4.47007 9.02031C4.94784 9.09394 5.43662 9.07879 5.90757 8.97651L6.31606 9.88342C6.35359 9.96669 6.4226 10.0316 6.50807 10.064C6.59347 10.0964 6.68831 10.0936 6.77151 10.0559L7.65136 9.65966C7.82484 9.58155 7.90212 9.37769 7.82402 9.20427ZM7.25334 5.93083C6.91153 6.83306 6.03389 7.43921 5.06947 7.43921C4.78736 7.43921 4.50919 7.38797 4.24265 7.287C3.65944 7.06606 3.19717 6.6312 2.94103 6.06252C2.6849 5.49391 2.66554 4.85952 2.88649 4.27631C3.2283 3.37408 4.10594 2.76794 5.07036 2.76794C5.35246 2.76794 5.63064 2.81918 5.89717 2.92014C6.48039 3.14109 6.94266 3.57595 7.19879 4.14456C7.455 4.71324 7.47435 5.34762 7.25334 5.93083ZM14.9098 10.6332C14.8481 10.5659 14.7621 10.5259 14.6709 10.5219L14.0223 10.4941C13.9625 10.188 13.8547 9.89244 13.7032 9.61964L14.1815 9.18065C14.3216 9.05206 14.3309 8.83422 14.2024 8.69413L13.7274 8.17663C13.6657 8.10934 13.5797 8.06932 13.4884 8.0654C13.3974 8.06202 13.3081 8.09405 13.2408 8.15576L12.7626 8.59475C12.5037 8.42043 12.2185 8.28772 11.9186 8.20204L11.9464 7.5534C11.9546 7.36338 11.8071 7.20277 11.6171 7.19464L10.9154 7.16455C10.7263 7.15738 10.5647 7.30387 10.5566 7.49382L10.5288 8.14246C10.2227 8.20218 9.92718 8.31003 9.6543 8.46148L9.21531 7.98316C9.1536 7.91587 9.06758 7.87586 8.97639 7.87193C8.8852 7.86822 8.79608 7.90059 8.7288 7.9623L8.21129 8.43724C8.07113 8.56582 8.06184 8.78367 8.19042 8.92375L8.62941 9.40207C8.4551 9.66096 8.32238 9.9461 8.2367 10.246L7.58813 10.2182C7.39894 10.2106 7.23743 10.3575 7.22931 10.5475L7.19921 11.2492C7.19528 11.3405 7.22779 11.4295 7.28957 11.4968C7.35128 11.5641 7.4373 11.6041 7.52856 11.6081L8.17713 11.6358C8.23684 11.942 8.34469 12.2375 8.49614 12.5104L8.01789 12.9493C7.95061 13.0111 7.91059 13.0971 7.90667 13.1883C7.90274 13.2795 7.93525 13.3686 7.99703 13.4359L8.47197 13.9534C8.53368 14.0207 8.6197 14.0607 8.71096 14.0646C8.8018 14.0682 8.89126 14.0359 8.95855 13.9742L9.4368 13.5352C9.69569 13.7096 9.9809 13.8423 10.2808 13.928L10.2529 14.5766C10.2448 14.7666 10.3922 14.9272 10.5822 14.9354L11.284 14.9655C11.2889 14.9657 11.2938 14.9657 11.2987 14.9657C11.3848 14.9657 11.4679 14.9335 11.5316 14.8751C11.5988 14.8134 11.6389 14.7274 11.6428 14.6362L11.6706 13.9875C11.9767 13.9278 12.2722 13.82 12.5451 13.6685L12.9841 14.1468C13.0458 14.2141 13.1318 14.2541 13.223 14.2581C13.3146 14.2621 13.4034 14.2294 13.4706 14.1677L13.9881 13.6928C14.1283 13.5642 14.1376 13.3463 14.009 13.2062L13.57 12.7279C13.7443 12.469 13.877 12.1839 13.9627 11.884L14.6113 11.9118C14.8011 11.9191 14.9619 11.7725 14.9701 11.5825L15.0002 10.8808C15.0041 10.7895 14.9716 10.7005 14.9098 10.6332ZM11.0309 12.6693C10.1463 12.6314 9.4574 11.8809 9.49535 10.9963C9.53226 10.1344 10.2363 9.45924 11.0982 9.45924C11.1215 9.45924 11.1449 9.45972 11.1684 9.46075C12.053 9.4987 12.7419 10.2492 12.7039 11.1338C12.666 12.019 11.9227 12.7068 11.0309 12.6693Z" fill="#EE1C41"/>
</svg>
