<svg width="15" height="15" viewBox="0 0 15 15" fill="none" xmlns="http://www.w3.org/2000/svg">
  <path d="M13.8734 0.350323C13.7655 0.134274 13.5485 0 13.3068 0C13.0651 0 12.8481 0.134274 12.7402 0.350081L11.6133 2.60419V13.3065C11.6133 14.2403 12.373 15 13.3068 15C14.2407 15 15.0004 14.2403 15.0004 13.3065V2.60419L13.8734 0.350323ZM14.5165 12.0968V12.5806H12.0972V12.0968H14.5165ZM13.5488 11.6129V9.67742H13.0649V11.6129H12.0972V2.90323H13.0649V7.25806H13.5488V2.90323H14.5165V11.6129H13.5488ZM12.2467 2.41935L12.7305 1.45161H13.8831L14.367 2.41935H12.2467ZM13.4406 0.566613L13.6412 0.967742H12.9725L13.173 0.566371C13.2241 0.464516 13.3896 0.464516 13.4406 0.566613ZM13.3068 14.5161C12.6398 14.5161 12.0972 13.9735 12.0972 13.3065V13.0645H14.5165V13.3065C14.5165 13.9735 13.9738 14.5161 13.3068 14.5161Z" fill="#FFEEEE"/>
  <path d="M13.0664 7.74219H13.5503V8.22606H13.0664V7.74219Z" fill="#FFEEEE"/>
  <path d="M13.0664 8.70898H13.5503V9.19286H13.0664V8.70898Z" fill="#FFEEEE"/>
  <path d="M5.80469 12.5801H6.28856V13.0639H5.80469V12.5801Z" fill="#FFEEEE"/>
  <path d="M8.71094 9.67773H9.19481V10.1616H8.71094V9.67773Z" fill="#FFEEEE"/>
  <path d="M6.28906 9.67773H8.22455V10.1616H6.28906V9.67773Z" fill="#FFEEEE"/>
  <path d="M6.28906 8.70898H9.19229V9.19286H6.28906V8.70898Z" fill="#FFEEEE"/>
  <path d="M5.32422 9.67773H5.80809V10.1616H5.32422V9.67773Z" fill="#FFEEEE"/>
  <path d="M2.90234 9.67773H4.83783V10.1616H2.90234V9.67773Z" fill="#FFEEEE"/>
  <path d="M2.90234 8.70996H5.80557V9.19383H2.90234V8.70996Z" fill="#FFEEEE"/>
  <path d="M9.91936 0H1.20968C0.542661 0 0 0.542661 0 1.20968V12.8226C0 13.4896 0.542661 14.0323 1.20968 14.0323H2.07726L2.87395 14.829C2.98427 14.9393 3.13089 15 3.28694 15C3.60895 15 3.87097 14.738 3.87097 14.416V14.0323H9.82694L9.62637 13.6311C9.50153 13.3815 9.43548 13.1018 9.43548 12.8226C9.43548 12.5734 9.49089 12.3252 9.59105 12.0968H9.91936C10.3195 12.0968 10.6452 11.7711 10.6452 11.371V0.725806C10.6452 0.325645 10.3195 0 9.91936 0ZM0.483871 1.20968C0.483871 0.809516 0.809516 0.483871 1.20968 0.483871H1.45161V11.6129H1.20968C0.9375 11.6129 0.686129 11.7034 0.483871 11.8553V1.20968ZM3.21605 14.4869L2.41935 13.6902V13.0645H3.3871V14.416C3.3871 14.4977 3.27387 14.5444 3.21605 14.4869ZM8.96589 12.5806H6.77419V13.0645H8.96613C8.98379 13.2288 9.01742 13.3916 9.06992 13.5484H3.87097V13.0645H5.32258V12.5806H1.45161V13.0645H1.93548V13.5484H1.20968C0.809516 13.5484 0.483871 13.2227 0.483871 12.8226C0.483871 12.4224 0.809516 12.0968 1.20968 12.0968H9.07258C9.02008 12.2538 8.98355 12.4161 8.96589 12.5806ZM10.1613 11.371C10.1613 11.5043 10.0527 11.6129 9.91936 11.6129H1.93548V0.483871H9.91936C10.0527 0.483871 10.1613 0.5925 10.1613 0.725806V11.371Z" fill="#FFEEEE"/>
  <path d="M2.90234 7.74149H9.19267V1.45117H2.90234V7.74149ZM6.77331 5.66424L8.3667 7.25762H6.77331V5.66424ZM7.11541 5.32214H8.7088V6.91553L7.11541 5.32214ZM8.7088 3.87053H7.11541L8.7088 2.27714V3.87053ZM6.77331 3.52843V1.93504H8.3667L6.77331 3.52843ZM8.7088 4.3544V4.83827H6.28944V7.25762H5.80557V4.83827H3.38621V4.3544H5.80557V1.93504H6.28944V4.3544H8.7088ZM5.3217 7.25762H3.72831L5.3217 5.66424V7.25762ZM5.3217 3.52843L3.72831 1.93504H5.3217V3.52843ZM4.9796 3.87053H3.38621V2.27714L4.9796 3.87053ZM3.38621 5.32214H4.9796L3.38621 6.91553V5.32214Z" fill="#FFEEEE"/>
</svg>
