<svg width="14" height="20" viewBox="0 0 14 20" fill="none" xmlns="http://www.w3.org/2000/svg">
<path d="M8.59788 15.4305L5.16683 18.8616V6.99935C5.16683 6.81535 5.01782 6.66602 4.83349 6.66602C4.64915 6.66602 4.50015 6.81535 4.50015 6.99935V18.8616L1.06909 15.4305C0.938757 15.3002 0.728087 15.3002 0.597752 15.4305C0.467416 15.5608 0.467416 15.7715 0.597752 15.9018L4.59748 19.9016C4.62815 19.9326 4.66515 19.9569 4.70615 19.9739C4.74682 19.9909 4.79015 19.9996 4.83349 19.9996C4.87682 19.9996 4.92016 19.9906 4.96082 19.9739C5.00182 19.9569 5.03849 19.9326 5.06949 19.9016L9.06922 15.9018C9.19956 15.7715 9.19956 15.5608 9.06922 15.4305C8.93889 15.3002 8.72822 15.3002 8.59788 15.4305Z" fill="#F1D261"/>
<path d="M9.16732 8C8.98299 8 8.83398 8.14934 8.83398 8.33334V9.00002C8.83398 9.18402 8.98299 9.33335 9.16732 9.33335C9.35166 9.33335 9.50066 9.18402 9.50066 9.00002V8.33334C9.50066 8.149 9.35166 8 9.16732 8Z" fill="#F1D261"/>
<path d="M9.16732 10C8.98299 10 8.83398 10.1493 8.83398 10.3333V11C8.83398 11.184 8.98299 11.3334 9.16732 11.3334C9.35166 11.3334 9.50066 11.184 9.50066 11V10.3333C9.50066 10.149 9.35166 10 9.16732 10Z" fill="#F1D261"/>
<path d="M9.16732 12C8.98299 12 8.83398 12.1493 8.83398 12.3333V13C8.83398 13.184 8.98299 13.3334 9.16732 13.3334C9.35166 13.3334 9.50066 13.184 9.50066 13V12.3333C9.50066 12.149 9.35166 12 9.16732 12Z" fill="#F1D261"/>
<path d="M9.16732 6C8.98299 6 8.83398 6.14934 8.83398 6.33334V7.00002C8.83398 7.18402 8.98299 7.33336 9.16732 7.33336C9.35166 7.33336 9.50066 7.18402 9.50066 7.00002V6.33334C9.50066 6.149 9.35166 6 9.16732 6Z" fill="#F1D261"/>
<path d="M9.16732 2C8.98299 2 8.83398 2.14934 8.83398 2.33334V3.00002C8.83398 3.18402 8.98299 3.33335 9.16732 3.33335C9.35166 3.33335 9.50066 3.18402 9.50066 3.00002V2.33334C9.50066 2.149 9.35166 2 9.16732 2Z" fill="#F1D261"/>
<path d="M9.16732 4C8.98299 4 8.83398 4.14934 8.83398 4.33334V5.00002C8.83398 5.18402 8.98299 5.33336 9.16732 5.33336C9.35166 5.33336 9.50066 5.18402 9.50066 5.00002V4.33334C9.50066 4.149 9.35166 4 9.16732 4Z" fill="#F1D261"/>
<path d="M13.4032 4.09732L9.40348 0.097585C9.37281 0.0665845 9.33581 0.0422507 9.29481 0.0252504C9.21347 -0.00841681 9.12147 -0.00841681 9.04014 0.0252504C8.99914 0.0422507 8.96247 0.0665845 8.93147 0.097585L4.93174 4.09732C4.8014 4.22765 4.8014 4.43832 4.93174 4.56866C4.99674 4.63366 5.08207 4.66633 5.16741 4.66633C5.25274 4.66633 5.33808 4.63366 5.40308 4.56866L8.85747 1.11427C8.90447 1.24127 9.02414 1.33261 9.16747 1.33261C9.31081 1.33261 9.43048 1.24094 9.47781 1.11427L12.9319 4.56833C12.9969 4.63333 13.0822 4.66599 13.1675 4.66599C13.2529 4.66599 13.3382 4.63333 13.4032 4.56833C13.5335 4.43832 13.5335 4.22732 13.4032 4.09732Z" fill="#F1D261"/>
</svg>
