<svg width="50" height="50" viewBox="0 0 50 50" fill="none" xmlns="http://www.w3.org/2000/svg">
  <path d="M47.5081 32.713L40.3957 31.6787L37.2192 25.2416C37.0414 24.8797 36.6729 24.6504 36.2697 24.6504C35.8665 24.6504 35.498 24.8797 35.3199 25.2416L32.1434 31.6787L31.4789 31.7737C28.2002 28.7163 23.8786 27.0252 19.3959 27.0459H19.3643C14.5313 27.0565 10.0463 28.9351 6.72208 32.354C3.35591 35.8152 1.50935 40.5324 1.51957 45.6505C1.52155 45.9302 1.63142 46.1985 1.82574 46.3997C2.02402 46.598 2.29423 46.7085 2.57499 46.7056L28.376 46.6528C28.3229 47.0361 28.4852 47.4175 28.7983 47.6452C29.1233 47.8764 29.5496 47.9088 29.9062 47.729L36.2588 44.3839L42.6117 47.729C42.9713 47.9101 43.4016 47.8781 43.7302 47.6452C44.0561 47.4083 44.2198 47.0078 44.1525 46.6109L42.9387 39.5298L48.0778 34.5173C48.3652 34.2346 48.4675 33.8136 48.3418 33.4302C48.2233 33.0518 47.9 32.7737 47.5081 32.713ZM28.735 44.5423L3.65118 44.5951C3.87289 40.4476 5.47696 36.6595 8.23113 33.842C11.1542 30.8344 15.1116 29.1779 19.3643 29.1779H19.3959C22.7308 29.1663 25.9815 30.2241 28.6716 32.1957L25.031 32.7232C24.6324 32.7793 24.3005 33.0581 24.1762 33.4411C24.0521 33.8238 24.1537 34.2445 24.4398 34.5279L29.5792 39.5403L28.735 44.5423ZM41.071 38.4008C40.8213 38.6446 40.7071 38.9957 40.7652 39.3398L41.715 44.859L36.755 42.2523C36.6019 42.1734 36.4317 42.1332 36.2588 42.1362C36.0869 42.1381 35.918 42.1777 35.7629 42.2523L30.8032 44.859L31.7531 39.3398C31.8145 38.9957 31.6996 38.6426 31.4473 38.4008L27.4371 34.4962L32.9771 33.6942C33.3219 33.6467 33.6194 33.4286 33.7686 33.1138L36.2486 28.0908L38.7283 33.1138C38.8823 33.4246 39.1773 33.641 39.5197 33.6942L45.0601 34.4962L41.071 38.4008Z" fill="#F1D261"/>
  <path d="M19.3847 24.5445C25.5447 24.5445 30.5387 19.5505 30.5387 13.3903C30.5387 7.23032 25.5447 2.23633 19.3847 2.23633C13.2245 2.23633 8.23047 7.23032 8.23047 13.3903C8.23641 19.5482 13.2268 24.5386 19.3847 24.5445ZM19.3847 4.34682C24.3794 4.34682 28.4282 8.3956 28.4282 13.3903C28.4282 18.3852 24.3794 22.4337 19.3847 22.4337C14.3897 22.4337 10.3413 18.3852 10.3413 13.3903C10.3469 8.39791 14.3924 4.35243 19.3847 4.34682Z" fill="#F1D261"/>
</svg>
