<svg width="50" height="50" viewBox="0 0 50 50" fill="none" xmlns="http://www.w3.org/2000/svg">
  <g clip-path="url(#clip0)">
    <path d="M35.8372 41.665C35.377 41.665 35.0039 42.0381 35.0039 42.4983V44.1648C35.0039 44.625 35.377 44.9981 35.8372 44.9981C36.2973 44.9981 36.6704 44.625 36.6704 44.1648V42.4983C36.6704 42.0381 36.2973 41.665 35.8372 41.665Z" fill="#F1D261"/>
    <path d="M35.8357 46.665C35.3756 46.665 35.0025 47.0381 35.0025 47.4983V48.3316H34.1692C33.709 48.3316 33.3359 48.7047 33.3359 49.1648C33.3359 49.625 33.709 49.9981 34.1692 49.9981H35.8357C36.2959 49.9981 36.669 49.625 36.669 49.1648V47.4983C36.669 47.0381 36.2959 46.665 35.8357 46.665Z" fill="#F1D261"/>
    <path d="M31.0204 48.332H27.8723C27.4122 48.332 27.0391 48.7051 27.0391 49.1653C27.0391 49.6255 27.4122 49.9986 27.8723 49.9986H31.0204C31.4806 49.9986 31.8537 49.6255 31.8537 49.1653C31.8537 48.7051 31.4806 48.332 31.0204 48.332Z" fill="#F1D261"/>
    <path d="M18.4297 48.3311H15.2825C14.8223 48.3311 14.4492 48.7041 14.4492 49.1643C14.4492 49.6245 14.8223 49.9976 15.2825 49.9976H18.4297C18.8899 49.9976 19.263 49.6245 19.263 49.1643C19.263 48.7041 18.8899 48.3311 18.4297 48.3311Z" fill="#F1D261"/>
    <path d="M24.7227 48.332H21.5754C21.1153 48.332 20.7422 48.7051 20.7422 49.1653C20.7422 49.6255 21.1153 49.9986 21.5754 49.9986H24.7227C25.1828 49.9986 25.5559 49.6255 25.5559 49.1653C25.5559 48.7051 25.1828 48.332 24.7227 48.332Z" fill="#F1D261"/>
    <path d="M12.1298 48.332H8.9817C8.52153 48.332 8.14844 48.7051 8.14844 49.1653C8.14844 49.6255 8.52153 49.9986 8.9817 49.9986H12.1298C12.5899 49.9986 12.963 49.6255 12.963 49.1653C12.963 48.7051 12.5899 48.332 12.1298 48.332Z" fill="#F1D261"/>
    <path d="M5.83964 48.3316H5.00637V47.4983C5.00637 47.0381 4.63328 46.665 4.17311 46.665C3.71294 46.665 3.33984 47.0381 3.33984 47.4983V49.1648C3.33984 49.625 3.71294 49.9981 4.17311 49.9981H5.83964C6.29981 49.9981 6.6729 49.625 6.6729 49.1648C6.6729 48.7047 6.29981 48.3316 5.83964 48.3316Z" fill="#F1D261"/>
    <path d="M4.17311 18.7891C3.71294 18.7891 3.33984 19.1622 3.33984 19.6223V23.107C3.33984 23.5672 3.71294 23.9403 4.17311 23.9403C4.63328 23.9403 5.00637 23.5672 5.00637 23.107V19.6223C5.00637 19.1622 4.63328 18.7891 4.17311 18.7891Z" fill="#F1D261"/>
    <path d="M4.17311 25.7578C3.71294 25.7578 3.33984 26.1309 3.33984 26.5911V30.0758C3.33984 30.5359 3.71294 30.909 4.17311 30.909C4.63328 30.909 5.00637 30.5359 5.00637 30.0758V26.5911C5.00637 26.1309 4.63328 25.7578 4.17311 25.7578Z" fill="#F1D261"/>
    <path d="M4.17311 39.6963C3.71294 39.6963 3.33984 40.0694 3.33984 40.5296V44.0134C3.33984 44.4736 3.71294 44.8467 4.17311 44.8467C4.63328 44.8467 5.00637 44.4736 5.00637 44.0134V40.5296C5.00637 40.0694 4.63328 39.6963 4.17311 39.6963Z" fill="#F1D261"/>
    <path d="M4.17311 32.7266C3.71294 32.7266 3.33984 33.0997 3.33984 33.5598V37.0454C3.33984 37.5055 3.71294 37.8786 4.17311 37.8786C4.63328 37.8786 5.00637 37.5055 5.00637 37.0454V33.5598C5.00637 33.0997 4.63328 32.7266 4.17311 32.7266Z" fill="#F1D261"/>
    <path d="M4.17311 11.8193C3.71294 11.8193 3.33984 12.1924 3.33984 12.6526V16.1373C3.33984 16.5975 3.71294 16.9706 4.17311 16.9706C4.63328 16.9706 5.00637 16.5975 5.00637 16.1373V12.6526C5.00637 12.1924 4.63328 11.8193 4.17311 11.8193Z" fill="#F1D261"/>
    <path d="M8.25765 3.33918C7.8631 1.3959 6.15345 -2.37655e-05 4.17049 0.00195524C1.86953 -0.000336239 0.00229358 1.86315 2.10154e-06 4.16411C-0.0019769 6.14707 1.39395 7.85672 3.33722 8.25127V9.16786C3.33722 9.62803 3.71032 10.0011 4.17049 10.0011C4.63066 10.0011 5.00375 9.62803 5.00375 9.16786V8.25127C7.25877 7.79339 8.71553 5.5942 8.25765 3.33918ZM4.17049 6.66807C2.78987 6.66807 1.6707 5.54889 1.6707 4.16827C1.6707 2.78766 2.78987 1.66848 4.17049 1.66848C5.5511 1.66848 6.67028 2.78766 6.67028 4.16827C6.67028 5.54889 5.5511 6.66807 4.17049 6.66807Z" fill="#F1D261"/>
    <path d="M35.8335 0.00195312C28.01 0.00195312 21.668 6.34403 21.668 14.1674C21.668 21.7235 34.6177 38.9395 35.1668 39.6653L35.8335 40.5469L36.5001 39.6686C37.0492 38.9395 49.9989 21.7235 49.9989 14.1674C49.9989 6.34403 43.6569 0.00195312 35.8335 0.00195312ZM35.8335 37.763C33.1578 34.1033 23.3345 20.2453 23.3345 14.1674C23.3423 7.2677 28.9337 1.67629 35.8335 1.66848C42.7332 1.67629 48.3246 7.2677 48.3324 14.1674C48.3324 20.2453 38.5091 34.1033 35.8335 37.763Z" fill="#F1D261"/>
    <path d="M35.8368 8.33398C32.6154 8.33398 30.0039 10.9454 30.0039 14.1668C30.0039 17.3882 32.6154 19.9997 35.8368 19.9997C39.0564 19.9955 41.6654 17.3865 41.6696 14.1668C41.6696 10.9454 39.0582 8.33398 35.8368 8.33398ZM35.8368 18.3332C33.5369 18.3305 31.6731 16.4666 31.6704 14.1668C31.6704 11.8659 33.5358 10.0005 35.8368 10.0005C38.1377 10.0005 40.0031 11.8659 40.0031 14.1668C40.0031 16.4678 38.1378 18.3332 35.8368 18.3332Z" fill="#F1D261"/>
  </g>
  <defs>
    <clipPath id="clip0">
      <rect width="50" height="50" fill="white"/>
    </clipPath>
  </defs>
</svg>
