<svg width="13" height="13" fill="none" xmlns="http://www.w3.org/2000/svg"><path d="M6.525 0C3.287 0 .652 2.916.652 6.5S3.287 13 6.525 13c3.238 0 5.873-2.916 5.873-6.5S9.763 0 6.525 0zm1.958 4.333c.27 0 .49.243.49.542 0 .299-.22.542-.49.542s-.49-.243-.49-.542c0-.299.22-.542.49-.542zm-3.915 0c.27 0 .489.243.489.542 0 .299-.22.542-.49.542s-.489-.243-.489-.542c0-.299.22-.542.49-.542zm5.29 3.588c-.367 1.715-1.738 2.912-3.333 2.912-1.596 0-2.968-1.2-3.334-2.917-.031-.145.05-.291.182-.326.13-.033.263.056.294.202.314 1.472 1.49 2.5 2.858 2.5 1.367 0 2.542-1.027 2.857-2.497.031-.145.162-.235.295-.2.131.034.213.18.181.326z" fill="#F1D261"/></svg>