<svg width="12" height="13" xmlns="http://www.w3.org/2000/svg"><g clip-path="url(#clip0)"><path d="M11.505 2.197h-6.01c-.158 0-.288.144-.288.319 0 .175.13.319.288.319h6.01c.158 0 .288-.144.288-.319 0-.175-.127-.319-.288-.319zM9.852 4.843H5.495c-.158 0-.288.143-.288.318 0 .176.13.32.288.32h4.357c.158 0 .288-.144.288-.32 0-.175-.13-.318-.288-.318zM11.505 7.52h-6.01c-.158 0-.288.143-.288.319 0 .175.13.318.288.318h6.01c.158 0 .288-.143.288-.318 0-.176-.127-.319-.288-.319zM8.651 10.165H5.495c-.158 0-.288.144-.288.319 0 .175.13.319.288.319h3.156c.158 0 .288-.144.288-.32 0-.175-.13-.318-.288-.318zM3.753 8.95a.272.272 0 00-.173-.063H2.235V4.109h1.342c.158 0 .288-.14.288-.315 0-.07-.02-.137-.058-.191l-1.62-2.397a.28.28 0 00-.231-.124.272.272 0 00-.23.124L.103 3.603a.339.339 0 00.058.443.272.272 0 00.173.063h1.324V8.89H.337c-.158 0-.288.14-.288.316 0 .07.02.137.058.19l1.621 2.398a.28.28 0 00.23.124.272.272 0 00.231-.124l1.621-2.4a.339.339 0 00-.057-.443zM.91 3.473l1.046-1.549 1.048 1.549H.91zm1.049 7.605L.91 9.527h2.094l-1.045 1.55z"/></g><defs><clipPath id="clip0"><path transform="translate(.047)" d="M0 0h11.746v13H0z"/></clipPath></defs></svg>