<svg width="13" height="13" xmlns="http://www.w3.org/2000/svg"><g clip-path="url(#clip0)"><path d="M11.216 12.649H1.692a.758.758 0 01-.56-.258.93.93 0 01-.234-.62V1.23a.93.93 0 01.233-.62.758.758 0 01.561-.258h9.524c.21 0 .412.092.56.257a.929.929 0 01.233.62V11.77a.929.929 0 01-.232.621.758.758 0 01-.561.258zM1.692.703a.454.454 0 00-.337.154.557.557 0 00-.14.373v10.54c0 .14.051.274.14.373.09.099.21.154.337.154h9.524a.454.454 0 00.336-.154.557.557 0 00.14-.373V1.23c0-.14-.05-.274-.14-.373a.454.454 0 00-.336-.154H1.692z"/><path d="M7.46 10.482L4.009 6.66l-2.831 3.471-.236-.235 2.944-3.608a.16.16 0 01.051-.042.146.146 0 01.178.035l3.572 3.953-.225.248z"/><path d="M5.943 8.557l-.224-.249L8.808 4.89a.151.151 0 01.112-.051c.042 0 .083.018.112.051l2.93 3.243-.224.249L8.92 5.26 5.943 8.558zM5.82 5.095c-.25 0-.496-.083-.705-.237a1.385 1.385 0 01-.468-.631 1.545 1.545 0 01-.072-.812c.05-.273.17-.523.348-.72.177-.196.404-.33.65-.384.246-.055.501-.027.734.08.232.106.43.286.57.517.139.231.213.503.213.781 0 .373-.134.73-.372.993-.238.264-.56.412-.897.412zm0-2.46a.888.888 0 00-.529.178c-.156.115-.278.28-.35.473a1.16 1.16 0 00-.054.609c.036.204.127.392.26.54a.928.928 0 00.488.288c.185.04.376.02.55-.06a.98.98 0 00.427-.388c.105-.174.16-.377.16-.586 0-.28-.1-.547-.278-.745a.91.91 0 00-.673-.309z"/></g><defs><clipPath id="clip0"><path transform="translate(.582)" d="M0 0h11.746v13H0z"/></clipPath></defs></svg>