<svg width="13" height="12" xmlns="http://www.w3.org/2000/svg"><g clip-path="url(#clip0)"><path d="M12.35 1.135H1.31a.358.358 0 00-.353.36c0 .199.159.361.353.361h11.04a.358.358 0 00.353-.36.358.358 0 00-.353-.36zM12.35 4.126H4.627a.358.358 0 00-.353.36c0 .199.16.36.353.36h7.725a.358.358 0 00.352-.36.358.358 0 00-.352-.36zM12.35 7.153H1.31a.358.358 0 00-.353.36c0 .199.159.361.353.361h11.04a.358.358 0 00.353-.36.358.358 0 00-.353-.36zM12.35 10.144H7.376a.358.358 0 00-.353.36c0 .199.16.36.353.36h4.974a.358.358 0 00.352-.36.358.358 0 00-.352-.36z"/></g><defs><clipPath id="clip0"><path transform="translate(.957)" d="M0 0h11.746v12H0z"/></clipPath></defs></svg>