<svg width="9" height="13" xmlns="http://www.w3.org/2000/svg"><path d="M4.303.48c.565 0 .997.064 1.295.192.3.128.56.267.785.416l.303.176a.686.686 0 00.24.048c.171 0 .288-.235.353-.704h.367c-.01.192-.026.421-.048.688-.01.256-.02.597-.032 1.024V4H7.2a4.71 4.71 0 00-.353-1.52c-.192-.49-.48-.89-.864-1.2C5.61.97 5.13.816 4.543.816c-.543 0-.997.165-1.36.496-.352.32-.527.747-.527 1.28 0 .47.117.864.352 1.184.234.31.554.603.96.88.416.267.885.565 1.408.896.533.341 1.013.683 1.44 1.024.426.33.762.699 1.007 1.104.246.405.369.896.369 1.472 0 .693-.166 1.27-.497 1.728-.32.448-.752.784-1.295 1.008a4.662 4.662 0 01-1.793.336c-.597 0-1.071-.064-1.423-.192a6.006 6.006 0 01-.896-.4c-.235-.15-.416-.224-.544-.224-.171 0-.289.235-.353.704h-.367c.02-.235.032-.507.032-.816.01-.32.016-.736.016-1.248.01-.512.016-1.157.016-1.936h.367c.043.661.16 1.28.353 1.856.202.576.506 1.04.912 1.392.416.341.965.512 1.648.512.533 0 1.008-.16 1.423-.48.417-.33.625-.843.625-1.536 0-.65-.23-1.19-.689-1.616-.447-.437-1.04-.88-1.776-1.328-.5-.32-.97-.64-1.408-.96a4.038 4.038 0 01-1.055-1.12c-.257-.427-.385-.933-.385-1.52 0-.65.15-1.184.448-1.6.31-.416.705-.725 1.185-.928A4.066 4.066 0 014.303.48z"/><path d="M.063 7.072h8.88v.32H.063v-.32z" fill="snow"/></svg>