<svg width="12" height="15" xmlns="http://www.w3.org/2000/svg"><path d="M11.517.672v.32c-.352.021-.619.085-.8.192-.181.107-.304.283-.368.528-.064.235-.096.57-.096 1.008v4.624c0 .725-.048 1.37-.144 1.936-.096.565-.267 1.05-.512 1.456-.267.448-.661.81-1.184 1.088-.512.267-1.125.4-1.84.4a6.246 6.246 0 01-1.488-.176 2.85 2.85 0 01-1.264-.672 3.451 3.451 0 01-.752-.944c-.181-.341-.304-.752-.368-1.232a14.312 14.312 0 01-.096-1.808V2.368c0-.395-.032-.683-.096-.864a.534.534 0 00-.352-.384c-.181-.075-.453-.117-.816-.128v-.32a46.926 46.926 0 003.408.032c.405-.01.736-.021.992-.032v.32c-.363.01-.64.053-.832.128a.577.577 0 00-.368.384c-.064.181-.096.47-.096.864v5.536c0 .725.059 1.37.176 1.936.117.565.347 1.013.688 1.344.352.32.875.48 1.568.48.79 0 1.397-.176 1.824-.528.437-.363.741-.853.912-1.472.181-.63.272-1.344.272-2.144V2.784c0-.459-.043-.81-.128-1.056a.888.888 0 00-.448-.528c-.213-.117-.517-.187-.912-.208v-.32c.203.01.464.021.784.032.32.01.613.016.88.016.277 0 .544-.005.8-.016.267-.01.485-.021.656-.032zM.957 13.76h10.944v.32H.957v-.32z"/></svg>