<svg width="13" height="13" xmlns="http://www.w3.org/2000/svg"><g clip-path="url(#clip0)"><path d="M11.966 1.77a2.151 2.151 0 00-1.558-.676 2.14 2.14 0 00-1.556.676L6.008 4.752a2.39 2.39 0 00-.563 2.258c.063.234.295.37.518.304a.443.443 0 00.29-.544 1.48 1.48 0 01.349-1.396l2.843-2.98a1.317 1.317 0 011.926-.001 1.477 1.477 0 010 2.019L8.527 7.393a1.34 1.34 0 01-.68.388.44.44 0 00-.326.52.425.425 0 00.5.341c.417-.092.799-.31 1.1-.626l2.844-2.981c.86-.901.86-2.363 0-3.264z"/><path d="M8.016 5.318a.418.418 0 00-.518-.304.443.443 0 00-.29.543c.132.497-.001 1.03-.349 1.396L4.016 9.935a1.317 1.317 0 01-1.926 0 1.477 1.477 0 010-2.019l2.844-2.982c.186-.196.422-.33.68-.387a.44.44 0 00.33-.518.421.421 0 00-.495-.346l-.008.002c-.417.093-.8.31-1.101.626L1.496 7.293a2.388 2.388 0 00.024 3.265 2.13 2.13 0 003.09 0l2.843-2.982a2.39 2.39 0 00.563-2.258z"/></g><defs><clipPath id="clip0"><path transform="translate(.863)" d="M0 0h11.746v12.316H0z"/></clipPath></defs></svg>