<svg width="13" height="13" xmlns="http://www.w3.org/2000/svg"><g clip-path="url(#clip0)"><path d="M12.14 1.23H1.098c-.194 0-.353.176-.353.39 0 .215.159.39.353.39h11.04c.194 0 .353-.175.353-.39 0-.214-.159-.39-.353-.39zM8.859 4.47h-7.76c-.194 0-.353.175-.353.39 0 .215.159.39.353.39h7.76c.194 0 .352-.175.352-.39 0-.215-.158-.39-.352-.39zM12.14 7.75H1.098c-.194 0-.353.175-.353.39 0 .215.159.39.353.39h11.04c.194 0 .353-.175.353-.39 0-.215-.159-.39-.353-.39zM6.072 10.99H1.1c-.194 0-.353.175-.353.39 0 .214.159.39.353.39h4.973c.194 0 .353-.176.353-.39 0-.215-.159-.39-.353-.39z"/></g><defs><clipPath id="clip0"><path transform="translate(.746)" d="M0 0h11.746v13H0z"/></clipPath></defs></svg>