<svg width="10" height="12" xmlns="http://www.w3.org/2000/svg"><path d="M.66.672A46.182 46.182 0 002.771.72c.512 0 .997-.005 1.456-.016.47-.01.8-.016.992-.016 1.195 0 2.085.235 2.672.704.597.47.896 1.072.896 1.808 0 .373-.09.747-.272 1.12-.17.363-.453.693-.848.992C7.272 5.6 6.75 5.829 6.1 6v.032c.896.096 1.6.288 2.112.576s.875.635 1.088 1.04c.213.395.32.81.32 1.248 0 .939-.357 1.69-1.072 2.256-.704.565-1.69.848-2.96.848-.235 0-.592-.005-1.072-.016a44.283 44.283 0 00-2.912-.016c-.384 0-.699.01-.944.032v-.32c.363-.021.635-.064.816-.128a.534.534 0 00.352-.384c.064-.192.096-.48.096-.864V2.368c0-.395-.032-.683-.096-.864a.535.535 0 00-.368-.384c-.181-.075-.448-.117-.8-.128v-.32zm4.223.32c-.459 0-.763.09-.912.272-.139.181-.208.55-.208 1.104v7.936c0 .555.075.917.224 1.088.15.16.464.24.944.24.96 0 1.653-.24 2.08-.72.437-.49.656-1.184.656-2.08 0-.821-.219-1.456-.656-1.904-.427-.448-1.136-.672-2.128-.672H3.331v-.272h1.376c.587 0 1.04-.117 1.36-.352.32-.245.539-.565.656-.96A4.64 4.64 0 006.9 3.376c0-.79-.155-1.381-.464-1.776-.31-.405-.827-.608-1.552-.608z"/></svg>